<svg xmlns="http://www.w3.org/2000/svg" width="629.355" height="521.172" viewBox="0 0 629.355 521.172">
  <g id="Grupo_24" data-name="Grupo 24" transform="translate(0 0)">
    <path id="Caminho_634" data-name="Caminho 634" d="M679.992,350.432c-3.455,29.6-10.633,53.364-20.487,72.317-13.112,25.253-35.539,35.427-55.573,46.074a126.706,126.706,0,0,1-18,7.828c-36.457,12.653-77.26,9.3-109.311,2.616a430.908,430.908,0,0,0-68.239-8.627q-9.814-.442-19.648-.439c-10.109.013-192.13,3.468-236.447-86.254-10.942-22.132-18.441-49.168-21.136-82.124-7.624-93.171,34.28-154.362,88.333-194.359C321.731,31.8,461.887,34.975,562.63,112.628,629.735,164.353,692.566,242.635,679.992,350.432Z" transform="translate(-123.53 -52.509)" fill="#f2f2f2"/>
    <path id="Caminho_635" data-name="Caminho 635" d="M316.673,377.4c0,74.059-44.027,99.917-98.337,99.917S120,451.46,120,377.4s98.337-168.274,98.337-168.274S316.673,303.341,316.673,377.4Z" transform="translate(-120 -106.452)" fill="#57b894"/>
    <path id="Caminho_636" data-name="Caminho 636" d="M123.771,413.48l1.007-61.981,41.914-76.678-41.756,66.956.452-27.869,28.887-55.476-28.767,48.1h0l.814-50.124,30.933-44.166-30.8,36.284.509-91.909-3.2,121.671.263-5.019L92.576,225.131,123.521,282.9l-2.93,55.98L120.5,337.4,84.248,286.74l36.145,55.908-.366,7-.066.1.03.575-7.434,142.025h9.933l1.192-73.359,36.057-55.771Z" transform="translate(-29.017 -53.943)" fill="#3f3d56"/>
    <path id="Caminho_637" data-name="Caminho 637" d="M976.673,384.4c0,74.059-44.027,99.917-98.337,99.917S780,458.46,780,384.4s98.337-168.274,98.337-168.274S976.673,310.341,976.673,384.4Z" transform="translate(-347.318 -108.863)" fill="#57b894"/>
    <path id="Caminho_638" data-name="Caminho 638" d="M783.771,420.48l1.007-61.981,41.914-76.678-41.756,66.956.452-27.869,28.887-55.476-28.767,48.1h0l.814-50.124,30.933-44.166-30.805,36.284.509-91.909-3.2,121.671.263-5.019-31.449-48.138L783.521,289.9l-2.93,55.98L780.5,344.4,744.248,293.74l36.145,55.908-.366,7-.066.1.03.575-7.434,142.025h9.933l1.192-73.358,36.057-55.771Z" transform="translate(-256.335 -56.353)" fill="#3f3d56"/>
    <path id="Caminho_639" data-name="Caminho 639" d="M655.03,280.207c0,80.971-48.136,109.243-107.515,109.243S440,361.178,440,280.207,547.515,96.228,547.515,96.228,655.03,199.236,655.03,280.207Z" transform="translate(-230.215 -67.567)" fill="#57b894"/>
    <path id="Caminho_640" data-name="Caminho 640" d="M455.323,324.555l1.1-67.766,45.826-83.835L456.6,246.159l.495-30.47,31.582-60.654-31.452,52.59h0l.89-54.8,33.82-48.289-33.68,39.671.556-100.487-3.5,133.027.287-5.488-34.384-52.631,33.833,63.166-3.2,61.2-.1-1.625-39.64-55.386,39.52,61.125-.4,7.654-.071.115.033.628L443.062,410.79h10.86l1.3-80.205,39.423-60.976Z" transform="translate(-141.94 -15.058)" fill="#3f3d56"/>
    <path id="Caminho_641" data-name="Caminho 641" d="M684.729,708.871c0,17.379-113.883,71.458-254.364,71.458S176,726.25,176,708.871s104.7-56.38,245.186-56.38S684.729,691.491,684.729,708.871Z" transform="translate(-139.288 -259.156)" fill="#3f3d56"/>
    <path id="Caminho_642" data-name="Caminho 642" d="M684.729,708.871c0,17.379-113.883,71.458-254.364,71.458S176,726.25,176,708.871s104.7-56.38,245.186-56.38S684.729,691.491,684.729,708.871Z" transform="translate(-139.288 -259.156)" opacity="0.1"/>
    <path id="Caminho_643" data-name="Caminho 643" d="M684.729,708.871c0,17.379-113.883,31.468-254.364,31.468S176,726.25,176,708.871s104.7-56.38,245.186-56.38S684.729,691.491,684.729,708.871Z" transform="translate(-139.288 -259.156)" fill="#3f3d56"/>
    <path id="Caminho_644" data-name="Caminho 644" d="M694.429,605.571c0,24.931,15.64,45.1,34.969,45.1" transform="translate(-317.846 -242.996)" fill="#3f3d56"/>
    <path id="Caminho_645" data-name="Caminho 645" d="M747.769,650.41c0-25.211,17.454-45.612,39.023-45.612" transform="translate(-336.217 -242.73)" fill="#57b894"/>
    <path id="Caminho_646" data-name="Caminho 646" d="M713.755,609.018c0,23.682,9.974,42.845,22.3,42.845" transform="translate(-324.502 -244.183)" fill="#57b894"/>
    <path id="Caminho_647" data-name="Caminho 647" d="M747.769,643.753c0-32.214,20.174-58.282,45.1-58.282" transform="translate(-336.217 -236.073)" fill="#3f3d56"/>
    <path id="Caminho_648" data-name="Caminho 648" d="M736.548,673.45s4.959-.153,6.454-1.217,7.628-2.335,8-.628,7.453,8.489,1.854,8.534-13.009-.872-14.5-1.781S736.548,673.45,736.548,673.45Z" transform="translate(-332.353 -265.452)" fill="#a8a8a8"/>
    <path id="Caminho_649" data-name="Caminho 649" d="M752.954,680.95c-5.6.045-13.009-.872-14.5-1.781-1.136-.692-1.589-3.175-1.74-4.32l-.166.006s.314,4,1.806,4.908,8.9,1.826,14.5,1.781c1.616-.013,2.174-.588,2.144-1.44C754.774,680.618,754.157,680.94,752.954,680.95Z" transform="translate(-332.352 -266.856)" opacity="0.2"/>
    <ellipse id="Elipse_123" data-name="Elipse 123" cx="86.536" cy="13.767" rx="86.536" ry="13.767" transform="translate(207.818 432.669)" opacity="0.1"/>
    <rect id="Retângulo_48" data-name="Retângulo 48" width="8.523" height="19.667" transform="translate(323.856 415.624)" fill="#ffb9b9"/>
    <rect id="Retângulo_49" data-name="Retângulo 49" width="32.779" height="59.002" transform="translate(300.255 150.115)" fill="#ff6584"/>
    <path id="Caminho_650" data-name="Caminho 650" d="M527.634,399.312l1.134,9.076-29.875,9.076-3.782-16.639Z" transform="translate(-170.527 -137.532)" fill="#ffb9b9"/>
    <path id="Caminho_651" data-name="Caminho 651" d="M591.666,317.118s-.756,6.807-2.269,6.807-6.807,2.647-6.807,2.647l-1.513,7.185,10.589,6.429,17.4-1.891,4.916-7.563-4.916-4.916s-4.16-9.076-2.647-10.967S591.666,317.118,591.666,317.118Z" transform="translate(-278.805 -142.695)" fill="#ffb9b9"/>
    <path id="Caminho_652" data-name="Caminho 652" d="M591.666,317.118s-.756,6.807-2.269,6.807-6.807,2.647-6.807,2.647l-1.513,7.185,10.589,6.429,17.4-1.891,4.916-7.563-4.916-4.916s-4.16-9.076-2.647-10.967S591.666,317.118,591.666,317.118Z" transform="translate(-278.805 -142.695)" opacity="0.1"/>
    <path id="Caminho_653" data-name="Caminho 653" d="M520.85,677.948s-3.4,22.69-7.563,24.2,15.883,4.16,15.883,4.16l1.513-8.32s.378-15.127,1.891-17.4S520.85,677.948,520.85,677.948Z" transform="translate(-255.261 -267.924)" fill="#ffb9b9"/>
    <path id="Caminho_654" data-name="Caminho 654" d="M562.558,470.39s54.835-9.833,55.213-11.723,11.345,14.371,4.538,46.137-23.825,106.644-23.825,106.644-17.4,5.294-17.018,1.135,6.051-76.391,6.051-76.391l-3.781-30.632-6.429,3.782-26.85,52.944-13.614,45.759s-17.4,3.025-14.749-3.4,11.345-56.348,11.345-56.348l23.825-70.34S556.507,470.39,562.558,470.39Z" transform="translate(-258.395 -192.348)" fill="#2f2e41"/>
    <circle id="Elipse_124" data-name="Elipse 124" cx="15.883" cy="15.883" r="15.883" transform="translate(302.083 147.762)" fill="#ffb9b9"/>
    <path id="Caminho_655" data-name="Caminho 655" d="M613.225,332.413s-7.563,7.185-25.337,5.294,4.916,40.464,4.916,40.464l7.185,42.734s31.767-3.782,32.9-10.967S613.225,332.413,613.225,332.413Z" transform="translate(-278.809 -148.914)" fill="#f2f2f2"/>
    <path id="Caminho_656" data-name="Caminho 656" d="M595.72,368.769s-9.076-4.538-12.48-17.018-6.429-25.338-8.32-24.959c-1.6.319-16.4,6.031-21.2,9.85-.885.7-1.429,1.344-1.488,1.874-.378,3.4,13.614,37.439,13.614,37.439s10.967,24.581,6.429,32.523-4.916,18.152,3.4,17.4,35.926-2.269,32.145-23.447c0,0,7.185,14.749,27.228,4.16,0,0,12.1-1.891,11.723-6.051s-19.287-40.087-19.287-40.087-3.025-15.883,2.647-21.934l-12.858-15.127s-3.025-4.538-6.051-2.269a78.078,78.078,0,0,1-10.967,6.429c-1.134.378-1.88-1.359-1.88-1.359a32.881,32.881,0,0,0-3.036,17.621C596.476,353.642,595.72,368.769,595.72,368.769Z" transform="translate(-268.867 -144.806)" fill="#2f2e41"/>
    <path id="Caminho_657" data-name="Caminho 657" d="M509.4,703.574s-.844-2.647-5.717,0c0,0,1.557-8.32-3.738-8.32s-7.186,9.832-7.186,9.832-1.513,6.429-11.723,9.076-2.269,11.723,4.916,11.723,16.64-5.673,16.64-5.673,19.665.378,20.043-3.4-1.891-15.127-3.4-15.127-4.538,5.294-4.538,5.294Z" transform="translate(-242.673 -273.885)" fill="#2f2e41"/>
    <path id="Caminho_658" data-name="Caminho 658" d="M618.4,696.906s-5.294-5.673-8.32,3.782-5.294,13.236-3.4,14.749,3.4.756,2.647,3.782,2.269,9.454,9.076,9.454,8.7-4.916,8.32-8.32-3.4-7.563-3.4-7.563L620.286,702.2Z" transform="translate(-287.382 -273.872)" fill="#2f2e41"/>
    <path id="Caminho_659" data-name="Caminho 659" d="M653.538,292.033,633.5,298.84s-18.152,10.589-10.211,12.858,14.749-6.807,14.749-6.807l17.4-4.538Z" transform="translate(-292.65 -135.006)" fill="#ffb9b9"/>
    <path id="Caminho_660" data-name="Caminho 660" d="M581.108,262.835a29.322,29.322,0,0,0-6.075,6.116c-3.66,4.578-7.246,10.045-6.344,15.837.342,2.2,1.32,4.247,1.87,6.4a33.737,33.737,0,0,1,.64,8.961,12.106,12.106,0,0,1-.469,3.779,24.925,24.925,0,0,1-1.863,3.445C567.046,310.768,567,314.8,567,318.65a9.614,9.614,0,0,0,.519,3.823,15.2,15.2,0,0,0,2.191,3.065,13.22,13.22,0,0,1,2.038,11.977,5.188,5.188,0,0,0,4.714-2.972,6.571,6.571,0,0,1-1.68,5.344c4.329-1.286,8.969-3.456,10.55-7.686a16.291,16.291,0,0,0,.777-4.442c.84-10.612,1.32-21.621-2.486-31.563-1.218-3.181-2.875-6.26-3.283-9.641s.84-7.289,3.946-8.685a3.583,3.583,0,0,0,1.082,2.279c.691.513,1.97.191,1.983-.67l1.5,2.089a3.666,3.666,0,0,0,1.425-1.243l1.029,1.259,2.188-1.592,1.9,2.049a4.041,4.041,0,0,0,1.668-1.815c.409.611.914,1.282,1.645,1.348,1.593.144,1.922-2.384,3.314-3.173a2.349,2.349,0,0,1,2.931.889,4.785,4.785,0,0,1,.59,3.24c-.576,5.2-5.013,9.945-3.7,15.009.74,2.847,3.231,5.131,3.419,8.067.15,2.346-1.229,4.566-1.208,6.917.025,2.755,1.928,5.1,3.787,7.13Q612.8,325.082,618.283,330l-1.129-1.975a3.667,3.667,0,0,1,2.875,1.057,4.973,4.973,0,0,0-.721-3.385c-3.04-6.384-5.495-13.183-5.862-20.245-.51-9.816,3.02-19.785.783-29.357a25.342,25.342,0,0,0-8.541-13.654c-2.069-1.7-3.637-2.723-6.317-2.911a47.669,47.669,0,0,0-9,.071,20.6,20.6,0,0,0-9.266,3.23Z" transform="translate(-273.949 -123.752)" fill="#ff6584"/>
    <path id="Caminho_661" data-name="Caminho 661" d="M646.838,309.065a30.577,30.577,0,0,0,6.051,0,15.745,15.745,0,0,0,4.538-2.269L671.8,296.207l-12.48,1.891s2.269-17.4,1.513-17.774,36.683-7.563,35.926,4.16-21.934,34.792-34.036,39.33l-7.942,1.135Z" transform="translate(-301.454 -130.104)" fill="#2f2e41"/>
    <rect id="Retângulo_50" data-name="Retângulo 50" width="178.317" height="41.957" transform="translate(207.818 313.033)" fill="#fff"/>
    <rect id="Retângulo_51" data-name="Retângulo 51" width="132.427" height="22.29" transform="translate(230.436 322.539)" fill="#3f3d56"/>
    <path id="Caminho_662" data-name="Caminho 662" d="M509.182,556.533c-.053-.572-2.581-.826-6.05-.683,2.01-2.83,3.174-5.089,2.724-5.445-.425-.336-2.164,1.115-4.281,3.472-.2-3.162-.664-5.378-1.206-5.378-.591,0-1.09,2.637-1.254,6.262-2.946-2.118-5.324-3.361-5.691-2.9-.349.443,1.243,2.311,3.773,4.547-3.34.5-5.694,1.2-5.642,1.757s2.581.826,6.05.683c-2.01,2.83-3.174,5.089-2.724,5.445.425.336,2.164-1.115,4.28-3.472.2,3.162.665,5.378,1.206,5.378.591,0,1.09-2.637,1.254-6.262,2.946,2.118,5.324,3.362,5.69,2.9.35-.443-1.242-2.311-3.773-4.547C506.881,557.794,509.234,557.095,509.182,556.533Z" transform="translate(-247.972 -223.339)" fill="#fff"/>
    <path id="Caminho_663" data-name="Caminho 663" d="M543.182,556.533c-.053-.572-2.581-.826-6.05-.683,2.01-2.83,3.174-5.089,2.724-5.445-.425-.336-2.164,1.115-4.281,3.472-.2-3.162-.664-5.378-1.206-5.378-.591,0-1.09,2.637-1.254,6.262-2.946-2.118-5.324-3.361-5.69-2.9-.349.443,1.242,2.311,3.773,4.547-3.34.5-5.694,1.2-5.642,1.757s2.581.826,6.05.683c-2.01,2.83-3.174,5.089-2.724,5.445.425.336,2.164-1.115,4.28-3.472.2,3.162.665,5.378,1.206,5.378.591,0,1.09-2.637,1.254-6.262,2.946,2.118,5.324,3.362,5.69,2.9.35-.443-1.242-2.311-3.773-4.547C540.881,557.794,543.234,557.095,543.182,556.533Z" transform="translate(-259.682 -223.339)" fill="#fff"/>
    <path id="Caminho_664" data-name="Caminho 664" d="M577.182,556.533c-.053-.572-2.581-.826-6.05-.683,2.01-2.83,3.174-5.089,2.724-5.445-.425-.336-2.164,1.115-4.281,3.472-.2-3.162-.664-5.378-1.206-5.378-.591,0-1.09,2.637-1.254,6.262-2.946-2.118-5.324-3.361-5.69-2.9-.349.443,1.242,2.311,3.773,4.547-3.34.5-5.694,1.2-5.642,1.757s2.581.826,6.05.683c-2.01,2.83-3.174,5.089-2.724,5.445.425.336,2.164-1.115,4.28-3.472.2,3.162.665,5.378,1.206,5.378.591,0,1.09-2.637,1.254-6.262,2.946,2.118,5.324,3.362,5.69,2.9.35-.443-1.243-2.311-3.773-4.547C574.881,557.794,577.234,557.095,577.182,556.533Z" transform="translate(-271.393 -223.339)" fill="#fff"/>
    <path id="Caminho_665" data-name="Caminho 665" d="M611.182,556.533c-.053-.572-2.581-.826-6.049-.683,2.01-2.83,3.174-5.089,2.724-5.445-.425-.336-2.164,1.115-4.28,3.472-.2-3.162-.664-5.378-1.206-5.378-.591,0-1.09,2.637-1.254,6.262-2.946-2.118-5.324-3.361-5.69-2.9-.349.443,1.242,2.311,3.773,4.547-3.34.5-5.694,1.2-5.642,1.757s2.581.826,6.05.683c-2.01,2.83-3.174,5.089-2.724,5.445.425.336,2.164-1.115,4.28-3.472.2,3.162.665,5.378,1.206,5.378.591,0,1.09-2.637,1.254-6.262,2.946,2.118,5.324,3.362,5.691,2.9.349-.443-1.243-2.311-3.773-4.547C608.881,557.794,611.234,557.095,611.182,556.533Z" transform="translate(-283.103 -223.339)" fill="#fff"/>
    <path id="Caminho_666" data-name="Caminho 666" d="M645.182,556.533c-.053-.572-2.581-.826-6.049-.683,2.01-2.83,3.174-5.089,2.724-5.445-.425-.336-2.164,1.115-4.28,3.472-.2-3.162-.664-5.378-1.206-5.378-.591,0-1.09,2.637-1.254,6.262-2.946-2.118-5.324-3.361-5.69-2.9-.35.443,1.242,2.311,3.773,4.547-3.34.5-5.694,1.2-5.642,1.757s2.581.826,6.05.683c-2.01,2.83-3.174,5.089-2.724,5.445.425.336,2.163-1.115,4.28-3.472.2,3.162.665,5.378,1.206,5.378.591,0,1.09-2.637,1.254-6.262,2.946,2.118,5.324,3.362,5.691,2.9.349-.443-1.243-2.311-3.773-4.547C642.881,557.794,645.234,557.095,645.182,556.533Z" transform="translate(-294.813 -223.339)" fill="#fff"/>
    <path id="Caminho_667" data-name="Caminho 667" d="M548.687,501.393s-1.891,24.959,7.185,26.094.756-28.363.756-28.363Z" transform="translate(-267.593 -206.333)" fill="#ffb9b9"/>
    <path id="Caminho_668" data-name="Caminho 668" d="M551.612,346.835l-2.647.756S538,435.327,545.183,452.345c0,0,7.563-4.16,11.345-3.4l6.051-71.474Z" transform="translate(-265.602 -153.881)" fill="#2f2e41"/>
  </g>
</svg>
