<svg xmlns="http://www.w3.org/2000/svg" xmlns:xlink="http://www.w3.org/1999/xlink" width="207.381" height="192.266" viewBox="0 0 207.381 192.266">
  <defs>
    <linearGradient id="linear-gradient" x1="0.5" y1="1" x2="0.5" gradientUnits="objectBoundingBox">
      <stop offset="0" stop-color="gray" stop-opacity="0.251"/>
      <stop offset="0.54" stop-color="gray" stop-opacity="0.122"/>
      <stop offset="1" stop-color="gray" stop-opacity="0.102"/>
    </linearGradient>
    <linearGradient id="linear-gradient-2" x1="0.507" y1="1.003" x2="0.507" y2="0" xlink:href="#linear-gradient"/>
  </defs>
  <g id="Grupo_22" data-name="Grupo 22" transform="translate(0.003 -0.18)">
    <ellipse id="Elipse_95" data-name="Elipse 95" cx="50.098" cy="3.831" rx="50.098" ry="3.831" transform="translate(61.34 184.783)" fill="rgba(87,185,148,0.06)"/>
    <ellipse id="Elipse_96" data-name="Elipse 96" cx="50.098" cy="3.831" rx="50.098" ry="3.831" transform="translate(61.34 184.783)" fill="rgba(53,175,108,0.48)" opacity="0.4"/>
    <path id="Caminho_466" data-name="Caminho 466" d="M206.371,83.7c7.024-6.269,18.073-7.547,28.128-7.042,31.576,1.568,60.083,16.813,84.735,34.057,8.924,6.244,17.713,12.971,23.508,21.567,11.8,17.5,8.295,41.745-8.106,56.161-5.58,4.905-12.343,8.666-19.288,12.008C303,206.38,289.676,211.138,275.663,212.49c-9.994.967-20.112.181-30.047-1.167-27.754-3.779-55-12.092-77.839-26.347-10.016-6.246-19.457-14.011-23.585-24.118s-1.486-22.91,8.741-28.892c4.23-2.474,9.289-3.591,14.24-4.64,7.289-1.545,14.7-3.068,21.272-6.206,6.8-3.244,14.836-9.516,13.492-16.691C200.494,96.729,199.347,89.964,206.371,83.7Z" transform="translate(-142.33 -64.877)" fill="#3f3d56"/>
    <path id="Caminho_467" data-name="Caminho 467" d="M206.371,83.7c7.024-6.269,18.073-7.547,28.128-7.042,31.576,1.568,60.083,16.813,84.735,34.057,8.924,6.244,17.713,12.971,23.508,21.567,11.8,17.5,8.295,41.745-8.106,56.161-5.58,4.905-12.343,8.666-19.288,12.008C303,206.38,289.676,211.138,275.663,212.49c-9.994.967-20.112.181-30.047-1.167-27.754-3.779-55-12.092-77.839-26.347-10.016-6.246-19.457-14.011-23.585-24.118s-1.486-22.91,8.741-28.892c4.23-2.474,9.289-3.591,14.24-4.64,7.289-1.545,14.7-3.068,21.272-6.206,6.8-3.244,14.836-9.516,13.492-16.691C200.494,96.729,199.347,89.964,206.371,83.7Z" transform="translate(-142.33 -64.877)" fill="#3f3d56" opacity="0.4"/>
    <path id="Caminho_468" data-name="Caminho 468" d="M541.586,42.277v.406a2.628,2.628,0,0,1-.016.349V43.1c0,.1-.011.195-.02.29v.084a.33.33,0,0,1,0,.045,2.623,2.623,0,0,1-.023.265c-.009.088-.016.14-.023.213-.02.174-.043.349-.07.523-.016.116-.034.227-.052.344a.1.1,0,0,0,0,.025c-.011.057-.02.113-.032.172s-.011.066-.018.1a.251.251,0,0,1-.018.091,1.156,1.156,0,0,0-.036.181c-.014.059-.025.12-.039.181s-.018.088-.029.134-.034.152-.052.227a.03.03,0,0,0,0,.014l-.041.156-.048.19c-.02.077-.043.154-.063.227a.079.079,0,0,1-.018.061l-.068.227c-.073.24-.152.48-.227.718l-.082.227-.048.125a16.088,16.088,0,0,1-2.209,3.969c-.054.077-.113.152-.17.227a16.924,16.924,0,0,1-1.393,1.586L513.626,76.874,490.462,53.705a16.409,16.409,0,0,1-1.813-2.157,15.863,15.863,0,0,1-.943-1.5,16.392,16.392,0,0,1-1.98-9.314c.025-.3.059-.594.1-.888.073-.521.172-1.04.295-1.554.025-.1.052-.208.079-.31.014-.052.027-.106.041-.156s.016-.063.025-.1l.068-.227h0c.054-.179.109-.358.168-.537l.084-.245c.122-.347.254-.68.4-1.029l.088-.2c.045-.1.091-.2.138-.306.077-.163.156-.326.227-.487l.02-.036h0c.036-.075.075-.145.113-.227l.134-.247c.057-.1.116-.2.174-.306.027-.048.057-.1.084-.145s.034-.052.05-.082a.1.1,0,0,0,0-.016h0c.036-.059.073-.118.111-.177s.084-.134.127-.2c.1-.147.193-.295.292-.44l.107-.152.134-.184c.045-.066.093-.129.143-.193l.172-.227c.054-.066.107-.134.159-.2l.057-.068.116-.14c.059-.073.12-.143.181-.213l.079-.093.014-.016.138-.154.154-.17c.145-.156.295-.313.453-.453l.179-.177.279-.263c.061-.057.122-.113.186-.168s.145-.131.227-.195l.145-.122c.048-.043.1-.084.145-.122a3.663,3.663,0,0,1,.295-.227l.15-.118c.249-.19.5-.374.759-.551l.154-.1.156-.1.147-.1.227-.136.109-.066.159-.093c.213-.125.426-.245.641-.358l.129-.068.2-.1.165-.082.165-.077.165-.079.168-.075.168-.073c.227-.1.453-.188.68-.274l.147-.091.181-.066.161-.057.136-.045.313-.1.161-.05.129-.036.127-.036q.113-.034.227-.061l.3-.077c.308-.075.618-.143.929-.2l.127-.023.177-.029.181-.029.227-.034.134-.018c.3-.039.6-.07.906-.093h2.1a1.307,1.307,0,0,1,.227.014h.154c.24.018.48.043.718.07l.322.043.227.032.179.029.179.029.118.02q.464.086.924.2l.376.1.1.029.161.045c.1.029.208.059.31.093l.136.043q.34.1.68.227l.154.057.2.077.3.122c.118.05.227.1.347.152l.136.059.186.088.165.077.163.082.206.1.163.086c.127.068.254.136.378.208l.159.091c.186.106.367.227.548.333l.147.1.156.1.154.1h0l.1.07c.227.152.433.31.646.474l.149.118c.1.077.2.156.295.227.048.039.1.079.145.122l.145.122.227.195c.063.054.125.111.186.168l.261.276.179.177.181-.177.276-.263c.061-.057.122-.113.186-.168s.145-.131.227-.195l.145-.122c.048-.043.1-.084.145-.122a3.663,3.663,0,0,1,.295-.227l.149-.118c.249-.19.5-.374.759-.551l.154-.1.156-.1.147-.1.215-.136.109-.066.159-.093c.213-.125.426-.245.641-.358l.129-.068.2-.1.165-.082.165-.077.165-.079.168-.075.168-.073c.227-.1.453-.188.68-.274.054-.02.111-.043.168-.061l.179-.066.163-.057.134-.045.313-.1.161-.05.129-.036.127-.036c.075-.023.149-.043.227-.061l.3-.077c.308-.075.619-.143.929-.2l.127-.023.177-.029.181-.029.227-.034.134-.018c.3-.039.6-.07.906-.093h2.084a1.306,1.306,0,0,1,.227.014h.154c.24.018.48.043.718.07l.322.043.227.032.179.029.179.029.118.02q.464.086.924.2l.376.1.1.029.161.045c.1.029.208.059.313.093l.134.043c.227.07.453.147.68.227l.152.057.2.077.3.122c.118.05.227.1.347.152l.136.059.186.088.165.077.163.082.206.1.165.086c.125.068.251.136.376.208l.159.091c.186.106.369.227.548.333l.147.1.156.1.154.1h.011l.1.07c.227.152.433.31.646.474l.15.118c.1.077.2.156.294.227.048.039.1.079.145.122l.145.122.188.168c.063.057.127.113.188.172l.106.1h0a.1.1,0,0,1,.016.016c.061.054.12.113.181.17l.082.079c.032.034.063.066.1.1l.179.184c.091.093.181.188.27.285.052.054.1.111.154.168.086.1.17.19.254.288l.267.319c.306.376.591.761.861,1.155l.109.165c.041.059.077.118.116.177l.1.152c.054.088.109.174.161.263l.143.245c.029.05.059.1.086.15l.066.118.066.118.1.179.093.179q.319.625.58,1.276l.075.184c.07.179.136.356.2.537l.057.163c.025.077.052.154.075.227s.045.138.066.208l.041.131c.02.063.039.127.057.19s.043.156.066.227c.034.127.066.254.1.383l.048.2c.023.1.043.19.063.285a.593.593,0,0,0,.025.122c.009.041.023.109.032.163s.018.086.025.129l.02.109a.2.2,0,0,0,.018.1c.018.034,0,.066.016.1l.034.2a1.268,1.268,0,0,0,.029.2c.011.068.02.152.029.227s.018.145.025.227l.014.125c0,.075.016.15.023.227v.111c0,.077.014.154.018.227a.035.035,0,0,1,0,.016v.292a1.775,1.775,0,0,0,.011.245h0v.251A2.889,2.889,0,0,1,541.586,42.277Z" transform="translate(-407.882 -25.61)" fill="#57b894"/>
    <path id="Caminho_469" data-name="Caminho 469" d="M543.12,42.277v.406a2.628,2.628,0,0,1-.016.349V43.1c0,.1-.011.195-.02.29v.084a.312.312,0,0,1,0,.045,2.623,2.623,0,0,1-.023.265c-.009.088-.016.14-.023.213-.02.174-.043.349-.07.523-.016.116-.034.227-.052.344a.106.106,0,0,0,0,.025c-.011.057-.02.113-.032.172s-.011.066-.018.1a.248.248,0,0,1-.018.091,1.157,1.157,0,0,0-.036.181c-.014.059-.025.12-.039.181s-.018.088-.029.134-.034.152-.052.227a.03.03,0,0,0,0,.014l-.041.156-.048.19c-.02.077-.043.154-.063.227a.079.079,0,0,1-.018.061l-.068.227c-.073.24-.152.48-.227.718l-.082.227-.048.125a16.392,16.392,0,0,0-7.146-17.672q-.442-.281-.893-.53a16.376,16.376,0,0,0-19.507,2.8,16.424,16.424,0,0,0-2-1.7h0a16.127,16.127,0,0,0-1.695-1.074,16.415,16.415,0,0,0-15.773,0,16.189,16.189,0,0,0-2.327,1.554,16.736,16.736,0,0,0-4.078,4.774.079.079,0,0,1,0,.02,15.56,15.56,0,0,0-.7,1.4c-.118.263-.227.53-.329.8.025-.1.052-.208.079-.31.014-.052.027-.106.041-.156s.016-.063.025-.1l.068-.227h0c.054-.179.109-.358.168-.537l.084-.245c.122-.347.254-.68.4-1.029l.088-.2c.045-.1.091-.2.138-.306.077-.163.156-.326.227-.487l.02-.036h0c.036-.075.075-.145.113-.227l.134-.247c.057-.1.116-.2.174-.306.027-.048.057-.1.084-.145s.034-.052.05-.082a.1.1,0,0,0,0-.016h0c.036-.059.072-.118.111-.177s.084-.134.127-.2c.1-.147.193-.295.292-.44l.106-.152.134-.184c.045-.066.093-.129.143-.193l.172-.227c.054-.066.106-.134.159-.2l.057-.068.116-.14c.059-.073.12-.143.181-.213l.079-.093.014-.016.138-.154.154-.17c.145-.156.295-.313.453-.453l.179-.177.279-.263c.061-.057.122-.113.186-.168s.145-.131.227-.195l.145-.122c.048-.043.1-.084.145-.122a3.674,3.674,0,0,1,.295-.227l.15-.118c.249-.19.5-.374.759-.551l.154-.1.156-.1.147-.1.227-.136.109-.066.159-.093c.213-.125.426-.245.641-.358l.129-.068.2-.1.165-.082.165-.077.165-.079.168-.075.168-.073c.227-.1.453-.188.68-.274l.152-.1.181-.066.161-.057.136-.045.313-.1.161-.05.129-.036.127-.036q.113-.034.227-.061l.3-.077c.308-.075.618-.143.929-.2l.127-.023.177-.029.181-.029.227-.034.134-.018c.3-.039.6-.07.906-.093h2.1a1.307,1.307,0,0,1,.227.014h.154c.24.018.48.043.718.07l.322.043.227.032.179.029.179.029.118.02q.464.086.924.2l.376.1.1.029.161.045c.1.029.208.059.31.093l.136.043q.34.1.68.227l.154.057.2.077.3.122c.118.05.227.1.347.152l.136.059.186.088.165.077.163.082.206.1.163.086c.127.068.254.136.378.208l.159.091c.186.106.367.227.548.333l.147.1.156.1.154.1h0l.1.07c.227.152.433.31.646.474l.149.118c.1.077.2.156.295.227.048.039.1.079.145.122l.145.122.227.195c.063.054.125.111.186.168l.261.276.179.177.181-.177.276-.263c.061-.057.122-.113.186-.168s.145-.131.227-.195l.145-.122c.048-.043.1-.084.145-.122a3.674,3.674,0,0,1,.295-.227l.15-.118c.249-.19.5-.374.759-.551l.154-.1.156-.1.147-.1.215-.136.109-.066.159-.093c.213-.125.426-.245.641-.358l.129-.068.2-.1.165-.082.165-.077.165-.079.168-.075.168-.073c.227-.1.453-.188.68-.274.054-.02.111-.043.168-.061l.179-.066.163-.057.134-.045.313-.1.161-.05.129-.036.127-.036c.075-.023.149-.043.227-.061l.3-.077c.308-.075.619-.143.929-.2l.127-.023.177-.029.181-.029.227-.034.134-.018c.3-.039.6-.07.906-.093H527.6a1.306,1.306,0,0,1,.227.014h.154c.24.018.48.043.718.07l.322.043.227.032.179.029.179.029.118.02q.465.086.924.2l.376.1.1.029.161.045c.1.029.208.059.313.093l.134.043c.227.07.453.147.68.227l.152.057.2.077.3.122c.118.05.227.1.347.152l.136.059.186.088.165.077.163.082.206.1.165.086c.125.068.251.136.376.208l.159.091c.186.106.369.227.548.333l.147.1.156.1.154.1H536l.1.07c.227.152.433.31.646.474l.15.118c.1.077.2.156.294.227.048.039.1.079.145.122l.145.122.188.168c.063.057.127.113.188.172l.106.1h0a.1.1,0,0,1,.016.016c.061.054.12.113.181.17l.082.079c.032.034.063.066.1.1l.179.184c.091.093.181.188.27.285.052.054.1.111.154.168.086.1.17.19.254.288l.267.319c.306.376.591.761.861,1.155l.109.165c.041.059.077.118.116.177l.1.152c.054.088.109.174.161.263l.143.245c.029.05.059.1.086.15l.066.118.066.118.1.179.093.179q.319.625.58,1.276l.075.184c.07.179.136.356.2.537l.057.163c.025.077.052.154.075.227s.045.138.066.208l.041.131c.02.063.038.127.057.19s.043.156.066.227c.034.127.066.254.1.383l.048.2c.023.1.043.19.063.285a.589.589,0,0,0,.025.122c.009.041.023.109.032.163s.018.086.025.129l.02.109a.2.2,0,0,0,.018.1c.018.034,0,.066.016.1l.034.2a1.268,1.268,0,0,0,.029.2c.011.068.02.152.029.227s.018.145.025.227l.014.125c0,.075.016.15.023.227v.111c0,.077.014.154.018.227a.033.033,0,0,1,0,.016v.292a1.766,1.766,0,0,0,.011.245h0v.251A2.9,2.9,0,0,1,543.12,42.277Z" transform="translate(-409.415 -25.61)" opacity="0.1"/>
    <path id="Caminho_470" data-name="Caminho 470" d="M841.541,304.41v.36a.03.03,0,0,1,0,.014v.145l-.02.161a.831.831,0,0,1-.016.1h0v.084a.113.113,0,0,1,0,.027v.057a.459.459,0,0,1-.011.054v.041a.129.129,0,0,1-.016.07h0l-.014.048-.014.057-.02.07v.02a.46.46,0,0,1-.023.07c-.02.075-.045.147-.07.227a.26.26,0,0,1-.025.07.272.272,0,0,1-.016.039,4.88,4.88,0,0,1-.662,1.208l-.052.07a5,5,0,0,1-.426.483l-7.148,7.078-7.071-7.071a5.046,5.046,0,0,1-.555-.657,5.169,5.169,0,0,1-.288-.453,5.02,5.02,0,0,1-.6-2.843,1.843,1.843,0,0,1,.032-.272c.023-.159.052-.317.091-.474a.362.362,0,0,1,.023-.1l.014-.048v-.029l.02-.07h0c.016-.054.034-.109.052-.163s.016-.05.025-.075q.054-.161.122-.313l.027-.063.041-.093c.025-.05.048-.1.075-.147v-.011h0l.036-.066.041-.075c.016-.032.034-.063.052-.1l.027-.043.014-.025h0c0-.018.02-.036.032-.054s.027-.041.039-.061.059-.091.091-.134l.032-.048.041-.057.043-.057.054-.07.048-.061.018-.02.034-.043.057-.066.023-.027h0l.043-.048c.014-.018.032-.034.048-.052s.088-.1.136-.143l.054-.052.084-.082.057-.052.068-.059.043-.036.045-.039.088-.073.047-.036c.075-.057.152-.113.227-.168l.048-.032.045-.032.045-.027.068-.043.032-.018.05-.029c.063-.039.129-.075.195-.109l.039-.02.061-.032.05-.025.052-.025.05-.023.05-.023.052-.023.206-.084.052-.018.054-.02.05-.018.041-.014.1-.029.05-.016.039-.011.039-.011.07-.018.091-.023c.093-.025.188-.045.283-.061h.258c.091-.011.181-.023.274-.029h.759l.227.023.1.014h.211c.1.016.188.036.283.059l.113.029h.032l.05.014.1.029.041.011c.07.023.138.045.206.072l.048.016.061.025.093.036.1.045.043.02.057.025.05.025.05.025.063.032.05.027.116.061.048.029c.057.032.113.066.168.1l.045.027.048.032.048.032h0l.032.023.2.143a.354.354,0,0,0,.045.036l.091.073.043.039.045.036.066.059.057.052.084.082a.626.626,0,0,1,.057.052.4.4,0,0,1,.054-.052l.084-.082.057-.052.066-.059.045-.036.043-.039.091-.073a.35.35,0,0,0,.045-.036l.227-.168.048-.032.048-.032.045-.027.066-.043.034-.018.048-.029q.1-.059.2-.109l.039-.02.061-.032.05-.025.05-.025.052-.023.05-.023.052-.023.206-.084.052-.018.054-.02.05-.018.041-.014.1-.029.05-.016.039-.011.039-.011.068-.018.091-.023q.143-.036.285-.061h.256c.093-.011.184-.023.274-.029h.759l.227.023a.236.236,0,0,1,.1.014h.213c.093.016.188.036.281.059l.116.029h.032l.05.014.1.029.041.011c.068.023.138.045.206.073l.045.016.061.025.093.036.107.045.041.02.057.025.052.025.05.025.061.032.052.027.113.061.05.029c.057.032.111.066.168.1l.045.027.045.032.048.032h0l.029.023q.1.068.2.143l.048.036.088.073.045.039.043.036.059.052.057.052.032.029h0l.054.052.025.023.029.029.054.057.084.086c.016.018.032.034.045.052l.079.088.082.1a3.756,3.756,0,0,1,.263.353l.034.05.034.054.029.045.05.082.043.073.027.048.02.036.018.036a.394.394,0,0,1,.029.052l.027.057c.066.127.125.256.179.387,0,.02.016.038.023.057l.061.163a.068.068,0,0,0,.016.052c.016.018.016.045.025.07a.543.543,0,0,1,.018.063l.014.039a.281.281,0,0,0,.016.059l.02.073c.011.039.02.077.029.116a.625.625,0,0,1,.016.061.613.613,0,0,0,.018.088.085.085,0,0,1,0,.036v.657h0v.043a.281.281,0,0,0,0,.045v.075h0v.077C841.4,304.281,841.543,304.36,841.541,304.41Z" transform="translate(-669.925 -237.253)" fill="#57b894"/>
    <path id="Caminho_471" data-name="Caminho 471" d="M842.3,304.348v.36a.029.029,0,0,1,0,.014v.145l-.02.161a.842.842,0,0,1-.016.1h0v.084a.119.119,0,0,1,0,.027v.057a.458.458,0,0,1-.011.054v.041a.129.129,0,0,1-.016.07h0l-.014.048-.014.057-.02.07v.02a.463.463,0,0,1-.023.07c-.02.075-.045.147-.07.227a.261.261,0,0,1-.025.07.269.269,0,0,1-.016.039,4.867,4.867,0,0,0,.138-1.212,5.012,5.012,0,0,0-2.318-4.18c-.091-.059-.181-.111-.274-.163a5.014,5.014,0,0,0-4.812,0,5.2,5.2,0,0,0-.476.3,4.981,4.981,0,0,0-.653.553,5.072,5.072,0,0,0-.612-.521h0a5.214,5.214,0,0,0-.517-.329,4.985,4.985,0,0,0-5.526.476,5.335,5.335,0,0,0-.417.374,4.927,4.927,0,0,0-.548.65c-.1.14-.193.285-.276.433h0a4.722,4.722,0,0,0-.213.428c-.036.082-.07.163-.1.245a.365.365,0,0,1,.023-.1l.014-.048v-.029l.02-.07h0c.016-.054.034-.109.052-.163s.016-.05.025-.075q.054-.161.122-.313l.027-.063.041-.093c.025-.05.048-.1.075-.147v-.011h0l.036-.066.041-.075c.016-.032.034-.063.052-.1l.027-.043.014-.025h0c0-.018.02-.036.032-.054s.027-.041.039-.061.059-.091.091-.134l.032-.048.041-.057.043-.057.054-.07.048-.061.018-.02.034-.043.057-.066.023-.027h0l.043-.048c.014-.018.032-.034.048-.052s.088-.1.136-.143l.054-.052.084-.082.057-.052.068-.059.043-.036.045-.039.088-.072.048-.036c.075-.057.152-.113.227-.168l.048-.032.045-.032.045-.027.068-.043.032-.018.05-.029c.063-.039.129-.075.195-.109l.039-.02.061-.032.05-.025.052-.025.05-.023.05-.023.052-.023.206-.084.052-.018.054-.02.05-.018.041-.014.1-.029.05-.016.039-.011.039-.011.07-.018.091-.023c.093-.025.188-.045.283-.061h.258c.091-.011.181-.023.274-.029h.759l.227.023.1.014h.211c.1.016.188.036.283.059l.113.029h.032l.05.014.1.029.041.011c.07.023.138.045.206.073l.048.016.061.025.093.036.1.045.043.02.057.025.05.025.05.025.063.032.05.027.116.061.047.029c.057.032.113.066.168.1l.045.027.048.032.048.032h0l.032.023.2.143a.354.354,0,0,0,.045.036l.091.073.043.039.045.036.066.059.057.052.084.082a.631.631,0,0,1,.057.052.4.4,0,0,1,.054-.052l.084-.082.057-.052.066-.059.045-.036.043-.039.091-.073a.35.35,0,0,0,.045-.036l.227-.168.048-.032.048-.032.045-.027.066-.043.034-.018.048-.029q.1-.059.2-.109l.039-.02.061-.032.05-.025.05-.025.052-.023.05-.023.052-.023.206-.084.052-.018.054-.02.05-.018.041-.014.1-.029.05-.016.039-.011.039-.011.068-.018.091-.023q.143-.036.285-.061h.256c.093-.011.184-.023.274-.029h.759l.227.023a.238.238,0,0,1,.1.014h.213c.093.016.188.036.281.059l.116.029h.032l.05.014.1.029.041.011c.068.023.138.045.206.073l.045.016.061.025.093.036.106.045.041.02.057.025.052.025.05.025.061.032.052.027.113.061.05.029c.057.032.111.066.168.1l.045.027.045.032.048.032h0l.029.023q.1.068.2.143l.048.036.088.073.045.039.043.036.059.052.057.052.032.029h0l.054.052.025.023.029.029.054.057.084.086c.016.018.032.034.045.052l.079.088.081.1a3.756,3.756,0,0,1,.263.353l.034.05.034.054.029.045.05.082.043.072.027.048.02.036.018.036a.388.388,0,0,1,.03.052l.027.057c.066.127.125.256.179.387,0,.02.016.039.023.057l.061.163a.068.068,0,0,0,.016.052c.016.018.016.045.025.07a.52.52,0,0,1,.018.063l.014.039a.284.284,0,0,0,.016.059l.02.073c.011.038.02.077.029.116a.573.573,0,0,1,.016.061.615.615,0,0,0,.018.088.084.084,0,0,1,0,.036v.657h0v.043a.281.281,0,0,0,0,.045v.075h0v.077C842.243,304.2,842.3,304.3,842.3,304.348Z" transform="translate(-670.681 -237.191)" opacity="0.1"/>
    <path id="Caminho_472" data-name="Caminho 472" d="M697.177,262.915v.462a.578.578,0,0,1,0,.063.431.431,0,0,1-.02.161c-.02.052,0,.07-.016.1h0a.424.424,0,0,1,0,.052.167.167,0,0,1,0,.032v.082l-.014.054a.253.253,0,0,1,0,.041.628.628,0,0,1-.016.07h0a.364.364,0,0,0,0,.048.559.559,0,0,0-.016.059l-.02.07a.053.053,0,0,1,0,.018l-.02.073c-.023.073-.045.147-.073.227a.2.2,0,0,1-.025.068l-.014.039a4.984,4.984,0,0,1-.664,1.21l-.052.068a4.977,4.977,0,0,1-.424.485l-7.071,7.069-7.071-7.069a5.026,5.026,0,0,1-.553-.659,4.908,4.908,0,0,1-.29-.453,4.985,4.985,0,0,1-.6-2.841,2.176,2.176,0,0,1,.029-.272c.023-.161.052-.317.091-.476a.333.333,0,0,1,.025-.093.338.338,0,0,1,.011-.05.135.135,0,0,1,0-.027l.02-.073h0c.016-.054.032-.109.05-.163l.027-.075c.036-.106.077-.211.12-.315l.027-.061c.014-.032.027-.063.043-.093s.048-.1.073-.15v-.011h0l.034-.068.041-.075.054-.093a.454.454,0,0,1,.025-.045l.016-.025h0l.034-.054c.011-.02.025-.041.039-.061l.088-.134.034-.045.041-.057.043-.059.052-.07a.615.615,0,0,1,.05-.059.19.19,0,0,1,.016-.023l.036-.041.054-.066.025-.029h0l.041-.048.048-.052.136-.141.054-.054.086-.079a.606.606,0,0,1,.057-.052l.066-.059.045-.038.043-.036.091-.073.045-.036c.075-.059.154-.116.227-.168l.048-.032.048-.032.045-.029.066-.041.032-.02.05-.029c.063-.036.129-.075.195-.109l.041-.02,0-.052.05-.025.05-.023.05-.025.052-.023.05-.023.208-.084.05-.018.054-.02.05-.016.043-.014.1-.032.048-.014.041-.011.039-.011.068-.02.091-.023.283-.061h.258c.091-.011.184-.02.274-.027h.759a2.05,2.05,0,0,1,.227.02l.1.014h.211c.1.018.19.039.283.061l.116.029h.032a.378.378,0,0,1,.048.014l.1.027.043.014.2.07.048.018.061.023.093.038.107.045.041.018.057.027.05.023.05.025.063.032.05.027.116.063.05.027.165.1.045.029.048.032.047.032h0l.032.02c.068.048.134.1.2.145a.357.357,0,0,1,.045.036c.032.023.061.048.091.073l.045.036.043.039.066.059a.615.615,0,0,1,.057.052l.086.079.054.054.054-.054.084-.079.057-.052.068-.059.043-.039L689,259c.029-.025.059-.05.091-.073a.349.349,0,0,1,.045-.036c.075-.059.152-.116.227-.168l.048-.032.048-.032.043-.029.068-.041.032-.02.05-.029c.063-.036.129-.075.195-.109l.039-.02.061-.032.052-.025.05-.023.05-.025.052-.023.05-.023.206-.084.052-.018.054-.02.05-.016.041-.014.1-.032.05-.014.039-.011.038-.011.07-.02.091-.023c.1-.023.188-.043.283-.061h.258c.091-.011.181-.02.274-.027h.759l.227.02.1.014h.211c.1.018.188.039.283.061l.116.029h.03a.323.323,0,0,1,.05.014l.1.027.041.014.206.07.048.018.061.023.093.039.106.045.041.018.057.027.05.023.05.025.063.032.05.027.116.063.048.027.168.1.045.029.048.032.048.032h0l.032.02.2.145.045.036.091.072.043.036.045.039.057.05.059.052.032.032h0l.057.052.025.025.029.029.054.054.082.088.048.052c.027.027.052.057.077.086l.082.1a4.084,4.084,0,0,1,.263.353l.034.05.034.054a.551.551,0,0,1,.029.048.935.935,0,0,1,.05.079c.016.027.029.05.043.075l.027.045.02.036.02.036.027.054c0,.018.02.036.029.054a4.278,4.278,0,0,1,.177.39.42.42,0,0,1,.023.057q.034.082.061.163a.147.147,0,0,0,.018.05l.023.07.02.063a.056.056,0,0,0,.011.041c.011.014,0,.039.018.057l.02.073a.563.563,0,0,0,.029.118l.014.061.02.086v.039a.323.323,0,0,1,0,.05.226.226,0,0,1,0,.039.175.175,0,0,1,0,.034v.061a.568.568,0,0,1,0,.061.611.611,0,0,1,0,.063.144.144,0,0,0,.011.068v.279h0v.165h0v.075C697.177,262.811,697.177,262.861,697.177,262.915Z" transform="translate(-558.338 -205.14)" fill="#57b894"/>
    <path id="Caminho_473" data-name="Caminho 473" d="M697.341,262.915v.462a.61.61,0,0,1,0,.063.431.431,0,0,1-.02.161c-.02.052,0,.07-.016.1h0a.424.424,0,0,1,0,.052.19.19,0,0,1,0,.032v.082l-.014.054a.253.253,0,0,1,0,.041.628.628,0,0,1-.016.07h0a.364.364,0,0,0,0,.048.544.544,0,0,0-.016.059l-.02.07a.05.05,0,0,1,0,.018l-.02.073c-.023.073-.045.147-.072.227a.206.206,0,0,1-.025.068l-.014.039a5.006,5.006,0,0,0-2.182-5.392c-.088-.057-.179-.111-.272-.161a5,5,0,0,0-4.814,0,4.472,4.472,0,0,0-.474.3,4.818,4.818,0,0,0-.655.551,5.092,5.092,0,0,0-.612-.521h0a4.929,4.929,0,0,0-.517-.326,5.007,5.007,0,0,0-5.943.847,4.925,4.925,0,0,0-.643.65,5.115,5.115,0,0,0-.274.433h0c-.077.14-.15.283-.213.428-.036.079-.068.161-.1.242a1.942,1.942,0,0,0,.036-.143.127.127,0,0,1,0-.027l.02-.073h0c.016-.054.032-.109.05-.163l.027-.075c.036-.107.077-.211.12-.315l.027-.061c.014-.032.027-.063.043-.093s.048-.1.073-.15v-.011h0l.034-.068.041-.075.054-.093a.441.441,0,0,1,.025-.045l.016-.025h0l.034-.054c.011-.02.025-.041.039-.061l.088-.134.034-.045.041-.057.043-.059.052-.07a.611.611,0,0,1,.05-.059.191.191,0,0,1,.016-.023l.036-.041.054-.066.025-.029h0l.041-.048.047-.052.136-.14.054-.054.086-.079a.619.619,0,0,1,.057-.052l.066-.059.045-.039.043-.036.091-.073.045-.036c.075-.059.154-.116.227-.168l.048-.032.048-.032.045-.029.066-.041.032-.02.05-.029c.063-.036.129-.075.195-.109l.041-.02.086-.039.05-.025.05-.023.05-.025.052-.023.05-.023.208-.084.05-.018.054-.02.05-.016.043-.014.1-.032.048-.014.041-.011.039-.011.068-.02.091-.023.283-.061h.258c.091-.011.183-.02.274-.027h.759a2.049,2.049,0,0,1,.227.02l.1.014h.211c.1.018.19.039.283.061l.116.029h.032a.374.374,0,0,1,.048.014l.1.027.043.014.2.07.048.018.061.023.093.038.106.045.041.018.057.027.05.023.05.025.063.032.05.027.116.063.05.027.165.1.045.029.048.032.048.032h0l.032.02c.068.048.134.1.2.145a.357.357,0,0,1,.045.036c.032.023.061.048.091.073l.045.036.043.039.066.059a.606.606,0,0,1,.057.052l.086.079.054.054.054-.054.084-.079.057-.052.068-.059.043-.039.045-.036c.029-.025.059-.05.091-.073a.353.353,0,0,1,.045-.036c.075-.059.152-.116.227-.168l.048-.032.048-.032.043-.029.068-.041.032-.02.05-.029c.063-.036.129-.075.195-.109l.039-.02.061-.032.052-.025.05-.023.05-.025.052-.023.05-.023.206-.084.052-.018.054-.02.05-.016.041-.014.1-.032.05-.014.038-.011.039-.011.07-.02.091-.023c.1-.023.188-.043.283-.061h.258c.091-.011.181-.02.274-.027h.759l.227.02.1.014h.211c.1.018.188.039.283.061l.116.029h.029a.32.32,0,0,1,.05.014l.1.027.041.014.206.07.048.018.061.023.093.039.107.045.041.018.057.027.05.023.05.025.063.032.05.027.116.063.048.027.168.1.045.029.048.032.048.032h0l.032.02.2.145.045.036.091.072.043.036.045.039.057.05.059.052.032.032h0l.057.052.025.025.029.029.054.054.082.088.048.052c.027.027.052.057.077.086l.082.1a4.084,4.084,0,0,1,.263.353l.034.05.034.054a.552.552,0,0,1,.029.048c.018.025.034.052.05.079s.029.05.043.075l.027.045.02.036.02.036.027.054c0,.018.02.036.029.054.066.127.125.258.177.39a.42.42,0,0,1,.023.057q.034.082.061.163a.148.148,0,0,0,.018.05l.023.07.02.063a.057.057,0,0,0,.011.041c.011.014,0,.039.018.057l.02.073a.567.567,0,0,0,.029.118l.014.061.02.086v.039a.323.323,0,0,1,0,.05.226.226,0,0,1,0,.039.175.175,0,0,1,0,.034v.061a.568.568,0,0,1,0,.061.611.611,0,0,1,0,.063.144.144,0,0,0,.011.068v.279h0v.165h0v.075C697.341,262.811,697.341,262.861,697.341,262.915Z" transform="translate(-558.502 -205.14)" opacity="0.1"/>
    <path id="Caminho_474" data-name="Caminho 474" d="M402.089,284.9a.286.286,0,0,1,0,.043v.41q0,.033,0,.066a.977.977,0,0,1-.02.161c-.009.054,0,.07-.016.1h0a.354.354,0,0,1,0,.052v.116l-.014.054a.26.26,0,0,1,0,.041.114.114,0,0,1-.016.07h0a.364.364,0,0,0-.011.048.537.537,0,0,0-.016.057l-.02.07a.065.065,0,0,1,0,.02l-.02.07c-.023.075-.045.147-.072.227a.636.636,0,0,1-.025.07l-.014.039a4.964,4.964,0,0,1-.664,1.208l-.052.07a4.967,4.967,0,0,1-.424.483l-7.071,7.071-7.071-7.071a5.046,5.046,0,0,1-.555-.657c-.1-.15-.2-.3-.288-.453a5,5,0,0,1-.6-2.843,2.211,2.211,0,0,1,.029-.272c.023-.159.052-.317.091-.474a.483.483,0,0,1,.023-.1l.014-.048a.148.148,0,0,1,0-.029.267.267,0,0,1,.018-.07h0c.016-.054.032-.109.05-.163s.018-.05.025-.075q.057-.161.122-.313l.027-.063c.014-.029.027-.061.043-.093s.048-.1.072-.147v-.011h0l.034-.066.041-.075.054-.1.025-.043.016-.025h0l.034-.054c.011-.02.025-.041.039-.061l.088-.134.034-.048.041-.057c.014-.018.027-.039.043-.057a.813.813,0,0,1,.052-.07l.05-.061.016-.02.034-.043.057-.066.025-.027h0l.041-.048.048-.052.136-.143.054-.052.086-.082.057-.052.066-.059.045-.036.043-.039.091-.073.045-.036c.075-.057.152-.113.227-.168l.048-.032.048-.032.045-.027a.654.654,0,0,1,.066-.043l.032-.018.05-.029c.063-.039.129-.075.195-.109l.041-.023.02-.032.05-.025.05-.025.05-.023L388,280.3l.05-.023.208-.084.05-.018.054-.02.05-.018.043-.014.1-.029.048-.016.041-.011h.039l.068-.018.091-.023c.1-.025.188-.045.283-.061h.15l.068-.011h.041c.091,0,.184-.023.274-.029h.752l.227.023.1.011.066.011h.145c.1.016.19.036.283.059l.116.029h.032l.048.014.1.029.041.011c.07.023.138.045.206.073l.048.016.061.025.093.036.107.045.041.02.057.025.05.025.05.025.063.032.05.027.116.061.048.029c.057.032.113.066.168.1l.045.027.048.032.048.032h0a.163.163,0,0,1,.032.023q.1.068.2.143l.045.036.091.073.043.039.045.036.066.059.057.052.086.082.054.052.054-.052.084-.082.057-.052.068-.059.043-.036.045-.039.091-.073.045-.036c.075-.057.152-.113.227-.168l.048-.032.048-.032.043-.027.068-.043.032-.018.05-.029c.063-.039.129-.075.195-.109a.225.225,0,0,0,.038-.023l.061-.029.05-.025.052-.025.05-.023.052-.023.05-.023.206-.084.052-.018.054-.02.05-.018.041-.014.1-.029.05-.016.039-.011h.039l.07-.018.091-.023c.093-.025.188-.045.283-.061h.147l.07-.011h.041c.091,0,.181-.023.274-.029h.759l.227.023.1.011.066.011h.145c.1.016.188.036.283.059l.113.029h.032l.05.014.1.029.041.011c.07.023.138.045.206.073l.048.016.061.025.093.036.1.045.043.02.057.025.05.025.05.025.063.032.05.027.116.061.048.029c.057.032.113.066.168.1l.045.027.048.032.048.032h0l.032.023.2.143.045.036.091.073.043.038.045.036.057.052a.627.627,0,0,1,.057.052l.034.029h0l.057.052.023.023.032.029.054.057.082.086.048.052.077.088.082.1a3.765,3.765,0,0,1,.263.353l.034.05.034.054a.311.311,0,0,1,.029.045c.018.027.034.054.05.082l.043.072.027.048.02.036.02.036.027.052c.011.018.02.039.029.057a4.25,4.25,0,0,1,.177.387l.023.057q.034.082.061.163l.018.052a.315.315,0,0,0,.023.07l.02.063a.049.049,0,0,0,.011.039l.018.059a.681.681,0,0,1,.018.073c.011.039.02.077.032.116l.014.061.02.088v.036a.388.388,0,0,1,0,.05.268.268,0,0,1,0,.041.138.138,0,0,1,0,.032v.125a.567.567,0,0,1,0,.061v.07a.655.655,0,0,1,0,.066v.143a.674.674,0,0,1,0,.07h0a.274.274,0,0,0,0,.043v.12h0v.077C401.985,284.784,402.089,284.855,402.089,284.9Z" transform="translate(-330.098 -222.163)" fill="#57b894"/>
    <path id="Caminho_475" data-name="Caminho 475" d="M402.283,284.9a.29.29,0,0,1,0,.043v.41a.656.656,0,0,1,0,.066.977.977,0,0,1-.02.161c-.009.054,0,.07-.016.1h0a.363.363,0,0,1,0,.052v.116l-.014.054a.253.253,0,0,1,0,.041.115.115,0,0,1-.016.07h0a.364.364,0,0,0-.011.048.544.544,0,0,0-.016.057l-.02.07a.067.067,0,0,1,0,.02l-.02.07c-.023.075-.045.147-.072.227a.635.635,0,0,1-.025.07l-.014.039a4.882,4.882,0,0,0-2.268-5.381c-.088-.059-.181-.111-.272-.163a5.018,5.018,0,0,0-4.815,0,4.879,4.879,0,0,0-.474.3,5.006,5.006,0,0,0-.655.553,4.9,4.9,0,0,0-.612-.521h0a4.958,4.958,0,0,0-.517-.328,5.018,5.018,0,0,0-4.815,0,4.847,4.847,0,0,0-.709.476,4.983,4.983,0,0,0-.419.374,4.93,4.93,0,0,0-.548.65c-.1.14-.19.285-.274.433h0c-.077.14-.15.283-.213.428-.036.082-.068.163-.1.245a.485.485,0,0,1,.023-.1l.014-.048a.148.148,0,0,1,0-.029.266.266,0,0,1,.018-.07h0c.016-.054.032-.109.05-.163s.018-.05.025-.075q.057-.161.122-.313l.027-.063c.014-.029.027-.061.043-.093s.048-.1.073-.147v-.011h0l.034-.066.041-.075.054-.1.025-.043.016-.025h0l.034-.054c.011-.02.025-.041.039-.061l.088-.134.034-.048.041-.057c.014-.018.027-.039.043-.057a.8.8,0,0,1,.052-.07l.05-.061.016-.02.034-.043.057-.066.025-.027h0l.041-.048.048-.052.136-.143.054-.052.086-.082.057-.052.066-.059.045-.036.043-.039.091-.073.045-.036c.075-.057.152-.113.227-.168l.048-.032.048-.032.045-.027a.654.654,0,0,1,.066-.043l.032-.018.05-.029c.063-.039.129-.075.195-.109l.041-.023.1-.032.05-.025.05-.025.05-.023.052-.023.05-.023.208-.084.05-.018.054-.02.05-.018.043-.014.1-.029.048-.016.041-.011h.039l.068-.018.091-.023c.1-.025.188-.045.283-.061h.15l.068-.011h.041c.091,0,.184-.023.274-.029h.752l.227.023.1.011.066.011h.145c.1.016.19.036.283.059l.116.029h.032l.048.014.1.029.041.011c.07.023.138.045.206.073l.048.016.061.025.093.036.106.045.041.02.057.025.05.025.05.025.063.032.05.027.116.061.048.029c.057.032.113.066.168.1l.045.027.048.032.048.032h0a.165.165,0,0,1,.032.023q.1.068.2.143l.045.036.091.073.043.039.045.036.066.059.057.052.086.082.054.052.054-.052.084-.082.057-.052.068-.059.043-.036.045-.039.091-.073.045-.036c.075-.057.152-.113.227-.168l.048-.032.048-.032.043-.027.068-.043.032-.018.05-.029c.063-.039.129-.075.195-.109a.226.226,0,0,0,.039-.023l.061-.029.05-.025.052-.025.05-.023.052-.023.05-.023.206-.084.052-.018.054-.02.05-.018.041-.014.1-.029.05-.016.039-.011h.039l.07-.018.091-.023c.093-.025.188-.045.283-.061h.147l.07-.011h.041c.091,0,.181-.023.274-.029h.759l.227.023.1.011.066.011h.145c.1.016.188.036.283.059l.113.029h.032l.05.014.1.029.041.011c.07.023.138.045.206.073l.048.016.061.025.093.036.1.045.043.02.057.025.05.025.05.025.063.032.05.027.116.061.048.029c.057.032.113.066.168.1l.045.027.048.032.048.032h0l.032.023.2.143.045.036.091.073.043.038.045.036.057.052a.627.627,0,0,1,.057.052l.034.029h0l.057.052.023.023.032.029.054.057.082.086.048.052.077.088.082.1a3.755,3.755,0,0,1,.263.353l.034.05.034.054a.311.311,0,0,1,.029.045c.018.027.034.054.05.082l.043.072.027.048.02.036.02.036.027.052c.011.018.02.039.029.057a4.25,4.25,0,0,1,.177.387l.023.057q.034.082.061.163l.018.052a.313.313,0,0,0,.023.07l.02.063a.049.049,0,0,0,.011.039l.018.059a.674.674,0,0,1,.018.073c.011.039.02.077.032.116l.014.061.02.088v.036a.388.388,0,0,1,0,.05.26.26,0,0,1,0,.041.134.134,0,0,1,0,.032v.125a.575.575,0,0,1,0,.061c0,.023,0,.048,0,.07s0,.044,0,.066v.143a.683.683,0,0,1,0,.07h0a.274.274,0,0,0,0,.043v.12h0v.077C402.179,284.784,402.283,284.855,402.283,284.9Z" transform="translate(-330.293 -222.163)" opacity="0.1"/>
    <path id="Caminho_476" data-name="Caminho 476" d="M392.407,444.175v.079a.312.312,0,0,1,0,.045v.242a.029.029,0,0,1,0,.014v.145l-.02.161a.239.239,0,0,1-.016.1h0v.082a.113.113,0,0,1,0,.027.42.42,0,0,1-.011.057.452.452,0,0,1-.011.054v.041a.129.129,0,0,1-.016.07h0l-.014.048-.014.059-.02.07v.018a.565.565,0,0,1-.023.072c-.02.073-.045.147-.07.227l-.025.068a.2.2,0,0,1-.016.039,4.9,4.9,0,0,1-.662,1.21l-.052.068a4.98,4.98,0,0,1-.426.483l-7.069,7.071-7.071-7.071a5.049,5.049,0,0,1-.555-.657,5.172,5.172,0,0,1-.288-.453,4.984,4.984,0,0,1-.6-2.843,1.782,1.782,0,0,1,.029-.27c.023-.161.052-.317.091-.476a.364.364,0,0,1,.023-.1l.014-.048v-.027l.02-.072h0c.018-.054.034-.109.052-.163l.025-.075c.039-.106.077-.211.122-.315l-.034-.063.041-.093c.025-.05.048-.1.075-.15v-.011h0l.036-.066.041-.075c.016-.032.034-.063.052-.093l.027-.045.014-.025h0c0-.018.02-.036.032-.054s.027-.041.038-.061l.091-.134c.011-.016.02-.032.032-.045l.041-.057.043-.059.054-.07.048-.061.018-.02.034-.043.057-.066.025-.027h0l.043-.048.066-.057c.043-.048.088-.1.136-.14l.054-.054.084-.082.057-.05.068-.059.043-.039.045-.036c.029-.025.059-.05.091-.073a.348.348,0,0,1,.045-.036c.075-.059.152-.116.227-.168l.048-.032a.348.348,0,0,1,.048-.032l.043-.029.068-.041.032-.02.05-.029c.063-.039.129-.075.195-.109l.039-.02.061-.032.05-.025.052-.023.05-.025.05-.023.052-.023.206-.084.052-.018.054-.02.05-.016.041-.014.1-.032.05-.016.039-.011h.039l.07-.02.091-.023c.093-.023.188-.043.283-.061h.258c.091-.011.181-.02.274-.027h.752l.227.02.1.014h.211c.1.016.188.036.283.059l.113.032h.032l.05.016.1.027.041.014c.07.02.138.045.206.07l.048.018.061.023.093.039.1.045.043.018.057.027.05.023.05.025.063.032.05.027.116.063.048.027c.057.034.113.066.168.1l.045.029.048.032.048.032h0l.032.02.2.145.045.036.091.072.043.036.045.038.066.059.057.05.084.082.057.054.054-.054.084-.082.057-.05.066-.059.045-.038.043-.036.091-.072.045-.036c.077-.059.154-.116.227-.168l.048-.032.048-.032.045-.029.066-.041.034-.02.048-.029.2-.109.039-.02.061-.032.05-.025.05-.023.052-.025.05-.023.052-.023.206-.084.052-.018.054-.02.05-.016.041-.014.1-.032.05-.016.039-.011h.039l.068-.02.093-.023c.093-.023.188-.043.283-.061h.256l.274-.027h.752a2,2,0,0,1,.227.02l.1.014h.213c.1.016.188.036.281.059l.116.032h.032l.05.016.1.027.041.014c.068.02.138.045.206.07l.045.018.061.023.093.038.106.045.041.018.057.027.052.023.05.025.063.032.05.027c.038.02.077.041.113.063l.05.027.168.1.045.029.048.032.045.032h0l.029.02c.068.048.134.1.2.145l.048.036.088.072.045.036.043.039.059.05.057.052.032.032h0l.054.052.025.025.029.029.054.054.084.088.048.05.077.088.082.1a4.058,4.058,0,0,1,.263.353l.034.05.034.054.029.048.05.079.043.075.027.045.02.036c0,.011.011.025.018.036s.02.036.029.054.018.036.029.054c.063.127.122.258.177.39,0,.018.016.036.023.057l.061.163.016.05a.218.218,0,0,0,.025.07.391.391,0,0,1,.018.063l.014.041.016.057.02.072c.011.039.02.077.029.118a.593.593,0,0,1,.016.061.646.646,0,0,0,.018.086v.693h0v.045a.312.312,0,0,0,0,.045v.075h0v.077C392.284,444.062,392.409,444.126,392.407,444.175Z" transform="translate(-322.602 -345.356)" fill="#57b894"/>
    <path id="Caminho_477" data-name="Caminho 477" d="M392.7,444.175v.079a.3.3,0,0,1,0,.045c0,.034,0,.07,0,.106v.136a.03.03,0,0,1,0,.014v.145l-.02.161a.239.239,0,0,1-.016.1h0v.082a.116.116,0,0,1,0,.027.42.42,0,0,1-.011.057.446.446,0,0,1-.011.054v.041a.129.129,0,0,1-.016.07h0l-.014.048-.014.059-.02.07v.018a.57.57,0,0,1-.023.072c-.02.073-.045.147-.07.227l-.025.068a.2.2,0,0,1-.016.039,4.854,4.854,0,0,0,.138-1.212,4.916,4.916,0,0,0-.17-1.257,5.023,5.023,0,0,0-2.148-2.923c-.091-.057-.181-.111-.274-.161a5,5,0,0,0-4.812,0,7.112,7.112,0,0,0-1.187.85,5.068,5.068,0,0,0-.612-.521h0a5.183,5.183,0,0,0-.517-.326,5,5,0,0,0-5.526.473,5.341,5.341,0,0,0-.417.374,4.93,4.93,0,0,0-.548.65,4.629,4.629,0,0,0-.274.433h0a4.709,4.709,0,0,0-.213.428c-.036.079-.07.161-.1.242a.363.363,0,0,1,.023-.1l.014-.048v-.027l.02-.073h0c.018-.054.034-.109.052-.163l.025-.075c.039-.107.077-.211.122-.315l.02-.052.041-.093.075-.15v-.011h0l.036-.066.041-.075c.016-.032.034-.063.052-.093l.027-.045.014-.025h0c0-.018.02-.036.032-.054s.027-.041.039-.061l.091-.134c.011-.016.02-.032.032-.045l.041-.057.043-.059.054-.07.048-.061.018-.02.034-.043.057-.066.025-.027h0l.043-.048.066-.057c.043-.048.088-.1.136-.14l.054-.054.084-.082.057-.05.068-.059.043-.039.045-.036c.029-.025.059-.05.091-.073a.352.352,0,0,1,.045-.036c.075-.059.152-.116.227-.168l.048-.032a.346.346,0,0,1,.048-.032l.043-.029.068-.041.032-.02.05-.029c.063-.039.129-.075.195-.109l.038-.02.061-.032.05-.025.052-.023.05-.025.05-.023.052-.023.206-.084.052-.018.054-.02.05-.016.041-.014.1-.032.05-.016.039-.011h.039l.07-.02.091-.023c.093-.023.188-.043.283-.061h.258c.091-.011.181-.02.274-.027H381l.227.02.1.014h.211c.1.016.188.036.283.059l.113.032h.032l.05.016.1.027.041.014c.07.02.138.045.206.07l.048.018.061.023.093.039.1.045.043.018.057.027.05.023.05.025.063.032.05.027.116.063.048.027c.057.034.113.066.168.1l.045.029.048.032.048.032h0l.032.02.2.145.045.036.091.072.043.036.045.038.066.059.057.05.084.082.057.054.054-.054.084-.082.057-.05.066-.059.045-.038.043-.036.091-.072.045-.036c.077-.059.154-.116.227-.168l.048-.032.048-.032.045-.029.066-.041.034-.02.048-.029.2-.109.039-.02.061-.032.05-.025.05-.023.052-.025.05-.023.052-.023.206-.084.052-.018.054-.02.05-.016.041-.014.1-.032.05-.016.039-.011h.039l.068-.02.093-.023c.093-.023.188-.043.283-.061h.256l.274-.027h.752a2,2,0,0,1,.227.02l.1.014h.213c.1.016.188.036.281.059l.116.032h.032l.05.016.1.027.041.014c.068.02.138.045.206.07l.045.018.061.023.093.038.107.045.041.018.057.027.052.023.05.025.063.032.05.027c.039.02.077.041.113.063l.05.027.168.1.045.029.048.032.045.032h0l.029.02c.068.048.134.1.2.145l.048.036.088.072.045.036.043.039.059.05.057.052.032.032h0l.054.052.025.025.029.029.054.054.084.088.048.05.077.088.082.1a4.077,4.077,0,0,1,.263.353l.034.05.034.054.029.048.05.079.043.075.027.045.02.036c0,.011.011.025.018.036s.02.036.029.054.018.036.029.054c.063.127.122.258.177.39,0,.018.016.036.023.057l.061.163.016.05a.218.218,0,0,0,.025.07.388.388,0,0,1,.018.063l.014.041.016.057.02.072c.011.039.02.077.029.118a.6.6,0,0,1,.016.061.646.646,0,0,0,.018.086v.693h0v.045a.308.308,0,0,0,0,.045q0,.037,0,.075h0v.077C392.573,444.062,392.7,444.126,392.7,444.175Z" transform="translate(-322.891 -345.356)" opacity="0.1"/>
    <path id="Caminho_478" data-name="Caminho 478" d="M492.66,346.911v.057a.132.132,0,0,1,0,.029v.238a.331.331,0,0,1,0,.045l-.014.113-.014.073h0v.036a.083.083,0,0,1,0,.023v.125a.485.485,0,0,0,0,.05h0v.032a.062.062,0,0,1-.011.043l-.014.05v.011l-.014.052c-.016.052-.034.1-.052.154s0,.034-.016.05l-.011.027a3.574,3.574,0,0,1-.467.854l-.039.048a3.275,3.275,0,0,1-.3.342l-5,5-5-5a3.544,3.544,0,0,1-1.022-2.8,1.442,1.442,0,0,1,.023-.193,3.32,3.32,0,0,1,.063-.333.37.37,0,0,1,.016-.068.186.186,0,0,0,0-.034v-.02l.014-.05h0c.011-.041.025-.079.036-.116l.018-.054c.027-.075.054-.147.086-.227l.02-.043c0-.023.018-.043.029-.066l.05-.1h0a.5.5,0,0,0,.025-.048l.029-.052a.632.632,0,0,1,.039-.066.141.141,0,0,1,.018-.032v-.018h0l.025-.036.027-.043.063-.1.023-.034.027-.039.032-.043.039-.048a.315.315,0,0,1,.034-.043l.011-.016.025-.029c.014-.016.025-.032.038-.045l.018-.02h0l.029-.032.034-.039.1-.1.039-.039.061-.057a.3.3,0,0,0,.039-.036l.048-.041.032-.027.032-.025L482,344.1l.032-.025.163-.12.034-.023.034-.02.032-.02.045-.029.025-.014.034-.02c.045-.027.091-.054.138-.077l.027-.016.043-.023.036-.016.036-.018.034-.016.036-.016.036-.016.147-.059.036-.014.039-.014.034-.014h.029l.068-.023h.088l.05-.014.063-.016c.068-.018.134-.032.2-.043h.181c.063,0,.129-.016.193-.02h.537l.154.016h.22c.066.011.134.025.2.041l.082.023h.057l.068.018h.027l.147.05.032.014.043.016.066.027.075.032.029.014.041.018.036.018.034.016.045.023.034.02.082.043.034.02.12.072.032.02.032.02.034.023h0l.023.016c.048.032.093.066.138.1l.032.025.066.052.029.025.032.027.048.041.041.036a.706.706,0,0,0,.059.057l.039.039.038-.039a.685.685,0,0,0,.059-.057l.041-.036.048-.041.032-.027.029-.025.066-.052.032-.025c.052-.041.107-.082.163-.12l.034-.023.032-.02.032-.02.047-.029.023-.014.034-.02c.048-.027.093-.054.14-.077l.027-.016.043-.023.034-.016.036-.018.036-.016.036-.016.036-.016.145-.059.036-.014.039-.014.036-.014h.029l.066-.023h.091l.048-.014.066-.016c.066-.018.134-.032.2-.043h.184c.063,0,.127-.016.193-.02h.537l.154.016h.22l.2.041.082.023h.059l.066.018h.029l.145.05.034.014.043.016.066.027.075.032.029.014.039.018.036.018.036.016.043.023.036.02.082.043.034.02c.041.023.079.048.118.073l.032.02.034.02.034.023h0l.02.016c.048.032.1.066.14.1l.032.025a.72.72,0,0,1,.063.052l.032.025.032.027.041.036.041.036.023.023h0l.038.038.016.016.023.02.039.041.059.061.032.036.054.061.059.07c.066.079.127.163.186.249l.023.034c0,.014.016.027.025.039l.02.034c.011.018.025.036.036.057l.029.052a.229.229,0,0,1,.018.032l.016.025.014.027.02.039.02.039c.045.088.086.181.125.274l.016.041c.016.039.029.075.043.116a.2.2,0,0,1,.011.034.056.056,0,0,0,.018.05l.014.045a.2.2,0,0,0,0,.029.056.056,0,0,0,.011.041l.014.05a.371.371,0,0,0,.023.082c.007.027,0,.029,0,.045l.014.061v.061a.113.113,0,0,0,0,.027v.2a.344.344,0,0,1,0,.048v.025a.34.34,0,0,0,0,.05.1.1,0,0,0,0,.025v.05h0a.162.162,0,0,1,0,.032.145.145,0,0,1,0,.032.449.449,0,0,1,0,.054h0a.449.449,0,0,1,0,.054Z" transform="translate(-404.028 -271.276)" fill="#57b894"/>
    <path id="Caminho_479" data-name="Caminho 479" d="M493.074,346.865v.057a.132.132,0,0,1,0,.029v.238a.331.331,0,0,1,0,.045l-.014.113-.014.073h0v.036a.083.083,0,0,1,0,.023v.125a.485.485,0,0,0,0,.05h0v.032a.062.062,0,0,1-.011.043l-.014.05v.011l-.014.052c-.016.052-.034.1-.052.154s0,.034-.016.05l-.011.027a3.522,3.522,0,0,0,.1-.856,3.6,3.6,0,0,0-.12-.89A3.543,3.543,0,0,0,492,344.74a3.6,3.6,0,0,0-.6-.485c-.063-.039-.127-.077-.193-.113a3.541,3.541,0,0,0-3.4,0,3.936,3.936,0,0,0-.335.208,3.733,3.733,0,0,0-.453.39,3.629,3.629,0,0,0-.43-.367h0a3.111,3.111,0,0,0-.367-.227,3.541,3.541,0,0,0-3.4,0,3.441,3.441,0,0,0-.5.335,3.611,3.611,0,0,0-.295.263,3.718,3.718,0,0,0-.39.453c-.07.1-.134.2-.193.306h0a3.171,3.171,0,0,0-.152.3c-.025.057-.048.113-.07.172a.366.366,0,0,1,.016-.068.2.2,0,0,0,0-.034v-.02l.014-.05h0c.011-.041.025-.079.036-.116l.018-.054c.027-.075.054-.147.086-.227l.02-.043c0-.023.018-.043.029-.066l.05-.1h0a.476.476,0,0,0,.025-.048l.029-.052a.61.61,0,0,1,.039-.066A.141.141,0,0,1,481.6,345v-.018h0l.025-.036.027-.043.063-.1.023-.034.027-.039.032-.043.039-.048a.313.313,0,0,1,.034-.043l.011-.016.025-.029c.014-.016.025-.032.039-.045l.018-.02h0l.029-.032.034-.039.1-.1.039-.039.061-.057a.3.3,0,0,0,.039-.036l.048-.041.032-.027.032-.025.063-.052.032-.025.163-.12.034-.023.034-.02.032-.02.045-.029.025-.014.034-.02c.045-.027.091-.054.138-.077l.027-.016.043-.023.036-.016.036-.018.034-.016.036-.016.036-.016.147-.059.036-.014.039-.014.034-.014h.029l.068-.023h.088l.05-.014.063-.016c.068-.018.134-.032.2-.043h.181c.063,0,.129-.016.193-.02h.537l.154.016h.22c.066.011.134.025.2.041l.082.023h.057l.068.018h.027l.147.05.032.014.043.016.066.027.075.032.029.014.041.018.036.018.034.016.045.023.034.02.082.043.034.02.12.073.032.02.032.02.034.023h0l.023.016c.048.032.093.066.138.1l.032.025.066.052.029.025.032.027.048.041.041.036a.718.718,0,0,0,.059.057l.038.039.039-.039a.7.7,0,0,0,.059-.057l.041-.036.048-.041.032-.027.029-.025.066-.052.032-.025c.052-.041.107-.082.163-.12l.034-.023.032-.02.032-.02.048-.029.023-.014.034-.02c.048-.027.093-.054.14-.077l.027-.016.043-.023.034-.016.036-.018.036-.016.036-.016.036-.016.145-.059.036-.014.039-.014.036-.014h.029l.066-.023h.091l.048-.014.066-.016c.066-.018.134-.032.2-.043h.183c.063,0,.127-.016.193-.02h.537l.154.016h.22l.2.041.082.023h.059l.066.018h.029l.145.05.034.014.043.016.066.027.075.032.029.014.038.018.036.018.036.016.043.023.036.02.082.043.034.02c.041.023.079.048.118.073l.032.02.034.02.034.023h0l.02.016c.048.032.1.066.141.1l.032.025a.7.7,0,0,1,.063.052l.032.025.032.027.041.036.041.036.023.023h0l.039.039.016.016.023.02.039.041.059.061.032.036.054.061.059.07c.066.079.127.163.186.249l.023.034c0,.014.016.027.025.039l.02.034c.011.018.025.036.036.057l.029.052a.23.23,0,0,1,.018.032l.016.025.014.027.02.039.02.039c.045.088.086.181.125.274l.016.041c.016.039.029.075.043.116a.2.2,0,0,1,.011.034.056.056,0,0,0,.018.05l.014.045a.207.207,0,0,0,0,.029.056.056,0,0,0,.011.041l.014.05a.364.364,0,0,0,.023.082c.007.027,0,.029,0,.045l.014.061v.061a.112.112,0,0,0,0,.027v.2a.343.343,0,0,1,0,.048v.025a.339.339,0,0,0,0,.05.1.1,0,0,0,0,.025v.05h0a.162.162,0,0,1,0,.032.153.153,0,0,1,0,.032.449.449,0,0,1,0,.054h0a.448.448,0,0,1,0,.054Z" transform="translate(-404.442 -271.23)" opacity="0.1"/>
    <path id="Caminho_480" data-name="Caminho 480" d="M728.764,431.322v.057a.162.162,0,0,1,0,.032v.091a.538.538,0,0,0,0,.061v.086a.312.312,0,0,1,0,.045l-.014.113v.075h0v.036a.071.071,0,0,1,0,.023v.02a.311.311,0,0,1,0,.038v.118h0a.176.176,0,0,0,0,.034v.041l-.014.05v.014a.432.432,0,0,0-.016.05c-.016.052-.032.1-.05.156a.417.417,0,0,0-.018.048l-.011.027a3.534,3.534,0,0,1-.467.854l-.036.048a3.584,3.584,0,0,1-.3.342l-5,5-4.984-5a3.28,3.28,0,0,1-.392-.464,3.226,3.226,0,0,1-.2-.324,3.537,3.537,0,0,1-.426-2.01.9.9,0,0,1,.02-.19,3.36,3.36,0,0,1,.063-.335.1.1,0,0,1,.018-.068.2.2,0,0,1,0-.034.067.067,0,0,1,0-.02l.014-.05h0a.453.453,0,0,1,.036-.116.514.514,0,0,0,.018-.054c.027-.075.057-.147.086-.227l.02-.045a.185.185,0,0,1,.029-.066c.011-.023.034-.07.052-.1h0l.023-.048.029-.052c.014-.023.025-.045.038-.066a.225.225,0,0,1,.018-.032v-.018h0c0-.014.016-.027.025-.039l.027-.043.063-.1.023-.032.029-.041.03-.041.039-.05.034-.043v-.016l.025-.029.038-.045.018-.02h0l.029-.034.034-.036c.032-.034.063-.068.1-.1a.31.31,0,0,1,.039-.038.688.688,0,0,1,.059-.057l.041-.036a.414.414,0,0,1,.045-.043l.032-.027.032-.025.063-.052.032-.025c.054-.041.109-.082.163-.118l.034-.023.034-.023.032-.02.048-.029.023-.014.034-.02.138-.077.027-.016.043-.02.036-.018.036-.016.036-.018.034-.016.036-.016.147-.059.036-.014.039-.014.034-.011.029-.011.068-.02h.088l.05-.014.063-.016c.068-.016.134-.032.2-.043h.181l.195-.02h.535l.156.016h.218a1.951,1.951,0,0,1,.2.043l.082.02h.057l.068.02h.03l.145.05h.032l.043.016.066.027.075.032.029.014.041.02.036.016.034.018.045.023.036.018.079.045.036.018.118.073.032.02.034.023.032.023h0l.023.016.138.1.034.025.063.052.032.025.029.027.048.043.041.036.059.057a.314.314,0,0,1,.039.039c.014-.014.025-.027.039-.039l.061-.057a.29.29,0,0,1,.039-.036l.048-.043.032-.027.032-.025.063-.052.032-.025c.054-.041.109-.082.163-.118l.034-.023.034-.023.032-.02.045-.029.025-.014.034-.02.138-.077.027-.016.043-.02.036-.018.034-.016.036-.018.036-.016.036-.016.145-.059.036-.014.039-.014.036-.011.029-.011.068-.02h.088l.05-.014.063-.016c.066-.016.134-.032.2-.043h.184l.193-.02h.537l.154.016h.22c.066.011.134.025.2.043l.082.02h.057l.066.02h.029l.145.05h.034l.043.016.066.027.075.032.029.014.041.02.034.016.036.018.045.023.034.018.082.045.034.018c.041.023.079.048.118.072l.032.02.034.023.034.023h0l.023.016.138.1.032.025.063.052.032.025.032.027.041.036.041.036a.215.215,0,0,0,.023.023h0c0,.014.025.025.039.039l.018.016.02.023.038.039.059.061.032.036a.748.748,0,0,1,.054.063l.059.068c.066.082.127.163.186.249,0,.011.016.023.023.036l.025.036.02.034c.014.018.025.039.036.057l.029.052.02.032.014.027.014.025.02.039.02.039c.045.091.088.181.125.274a.306.306,0,0,1,.016.041c.016.039.03.077.043.116l.014.036a.386.386,0,0,0,.016.048l.014.045v.07l.014.05a.385.385,0,0,0,.023.084c.007.027,0,.027,0,.043l.014.061v.489h0a.125.125,0,0,0,0,.029v.032a.449.449,0,0,1,0,.054h0a.449.449,0,0,1,0,.054Z" transform="translate(-586.665 -336.546)" fill="#57b894"/>
    <path id="Caminho_481" data-name="Caminho 481" d="M729.126,431.337v.057a.162.162,0,0,1,0,.032v.091a.537.537,0,0,0,0,.061v.086a.312.312,0,0,1,0,.045l-.014.113v.075h0v.036a.071.071,0,0,1,0,.023v.02a.338.338,0,0,1,0,.039v.118h0a.176.176,0,0,0,0,.034v.041l-.014.05v.014a.43.43,0,0,0-.016.05c-.016.052-.032.1-.05.156a.4.4,0,0,0-.018.048l-.011.027a3.526,3.526,0,0,0-1.541-3.8c-.063-.041-.127-.079-.193-.116a3.541,3.541,0,0,0-3.4,0,3.463,3.463,0,0,0-.335.211,3.54,3.54,0,0,0-.453.39,3.466,3.466,0,0,0-.43-.369h0a4.108,4.108,0,0,0-.365-.227,3.546,3.546,0,0,0-3.4,0,3.639,3.639,0,0,0-.5.335,3.233,3.233,0,0,0-.295.265,3.349,3.349,0,0,0-.387.453,2.935,2.935,0,0,0-.195.308h0c-.057.1-.107.2-.152.3-.025.057-.048.113-.07.172a.1.1,0,0,1,.018-.068.186.186,0,0,1,0-.034.063.063,0,0,1,0-.02l.014-.05h0a.454.454,0,0,1,.036-.116.511.511,0,0,0,.018-.054c.027-.075.057-.147.086-.227l.02-.045a.184.184,0,0,1,.03-.066c.011-.023.034-.07.052-.1h0l.023-.048.029-.052c.014-.023.025-.045.039-.066a.231.231,0,0,1,.018-.032v-.018h0c0-.014.016-.027.025-.039l.027-.043.063-.1.023-.032.029-.041.029-.041.039-.05.034-.043v-.016l.025-.029.039-.045.018-.02h0l.029-.034.034-.036c.032-.034.063-.068.1-.1a.306.306,0,0,1,.039-.039.692.692,0,0,1,.059-.057l.041-.036a.417.417,0,0,1,.045-.043l.032-.027.032-.025.063-.052.032-.025c.054-.041.109-.082.163-.118l.034-.023.034-.023.032-.02.048-.029.023-.014.034-.02.138-.077.027-.016.043-.02.036-.018.036-.016.036-.018.034-.016.036-.016.147-.059.036-.014.039-.014.034-.011.029-.011.068-.02h.088l.05-.014.063-.016c.068-.016.134-.032.2-.043h.181l.195-.02h.535l.156.016h.218a1.955,1.955,0,0,1,.2.043l.082.02h.057l.068.02h.029l.145.05h.032l.043.016.066.027.075.032.03.014.041.02.036.016.034.018.045.023.036.018.079.045.036.018.118.072.032.02.034.023.032.023h0l.023.016.138.1.034.025.063.052.032.025.029.027.048.043.041.036.059.057a.308.308,0,0,1,.039.039c.014-.014.025-.027.039-.039l.061-.057a.3.3,0,0,1,.039-.036l.048-.043.032-.027.032-.025.063-.052.032-.025c.054-.041.109-.082.163-.118l.034-.023.034-.023.032-.02.045-.029.025-.014.034-.02.138-.077.027-.016.043-.02.036-.018.034-.016.036-.018.036-.016.036-.016.145-.059.036-.014.039-.014.036-.011.029-.011.068-.02h.088l.05-.014.063-.016c.066-.016.134-.032.2-.043h.184l.193-.02h.537l.154.016h.22c.066.011.134.025.2.043l.082.02h.057l.066.02h.029l.145.05h.034l.043.016.066.027.075.032.03.014.041.02.034.016.036.018.045.023.034.018.082.045.034.018c.041.023.079.048.118.072l.032.02.034.023.034.023h0l.023.016.138.1.032.025.063.052.032.025.032.027.041.036.041.036a.212.212,0,0,0,.023.023h0c0,.014.025.025.039.038l.018.016.02.023.038.039.059.061.032.036a.723.723,0,0,1,.054.063l.059.068c.066.082.127.163.186.249,0,.011.016.023.023.036l.025.036.02.034c.014.018.025.039.036.057l.029.052.02.032.014.027.014.025.02.039.02.039c.045.091.088.181.125.274a.3.3,0,0,1,.016.041c.016.039.029.077.043.116l.014.036a.386.386,0,0,0,.016.048l.014.045v.07l.014.05a.386.386,0,0,0,.023.084c.007.027,0,.027,0,.043l.014.061v.489h0a.132.132,0,0,0,0,.029v.032a.425.425,0,0,1,0,.054h0a.425.425,0,0,1,0,.054Z" transform="translate(-587.027 -336.562)" opacity="0.1"/>
    <path id="Caminho_482" data-name="Caminho 482" d="M539.006,258.064h0a26.059,26.059,0,0,0-2.3-2.073c.1-1.214.324-4.121.344-4.681.023-.709-1.022-1.615-3.256-2.451s-1.586,3.063-1.554,3.414a2.63,2.63,0,0,0,1.359,1.763c.3.125.383.281.363.428l-.07-.011a8.739,8.739,0,0,1-2.667-.653,14.083,14.083,0,0,0-.68,3.018v.154a1.165,1.165,0,0,0,.054.526h.156a1.706,1.706,0,0,1-.125.775h0a5.987,5.987,0,0,1-.227.557,15.575,15.575,0,0,1-.106-1.679,14.169,14.169,0,0,0-.829-2.753,3.853,3.853,0,0,1-1.117-1.015,4.458,4.458,0,0,0-1.874-1.414c-.514-.181-2.379-2.608-3.147-3.172-.612-.453-.859-.186-.933-.059l-.045.032a2.685,2.685,0,0,1-.609-1.3c0-.247.025-.754.07-1.4a5.884,5.884,0,0,1,.743.68c.521.578.906,1.266,1.475,1.8a2.4,2.4,0,0,0,1.627.711,1.5,1.5,0,0,0,.589-.093c.757-.292,1.244-1.214,2.039-1.251.625.032,1.085.609,1.6.99a2.141,2.141,0,0,0,1.316.453,1.5,1.5,0,0,0,.555-.088,1.189,1.189,0,0,0,.723-1.513c-.417-.879-1.835-.68-2.44-1.445a.6.6,0,0,1-.14-.562.392.392,0,0,1,.367-.267,1.278,1.278,0,0,1,.759.363c.295.3.68.68,1.044.639a.5.5,0,0,0,.3-.057c.011-.27.025-.539.036-.809a2.821,2.821,0,0,0,1.26.358,1.476,1.476,0,0,0,.245-.011.986.986,0,0,0,.879-.97,1.1,1.1,0,0,0,.755.251,1.029,1.029,0,0,0,.362-.045,1.1,1.1,0,0,0,.734-.943,2.151,2.151,0,0,0-.573-1.359l-1.482-2.025a.82.82,0,0,1-.227-.585,1.217,1.217,0,0,1,.254-.453,1.581,1.581,0,0,0-.308-1.948,2.747,2.747,0,0,0-1.976-.655,2.592,2.592,0,0,1-1.566-.2,1.784,1.784,0,0,1-.612-1.067c-.315-1.192-.333-2.442-.553-3.654a5.014,5.014,0,0,0-1.677-3.2,1.552,1.552,0,0,0-.777-.34,5.515,5.515,0,0,0-.721.059,2.632,2.632,0,0,1-2.057-1.155,18.337,18.337,0,0,0-1.5-1.942,3.656,3.656,0,0,0-3.476-.8c-.53.147-.952.578-1.5.6a17.934,17.934,0,0,1-2.479-.227,6.847,6.847,0,0,0-2.266.05,2.411,2.411,0,0,0-1.586,1.176l-.193-1.634a28.512,28.512,0,0,0-.578-3.333c-.129-.184-.072-.44.023-.727l.036.034c.027-.082.057-.165.086-.249a.594.594,0,0,0,0-.19,34.811,34.811,0,0,0-1.054-4.556h-1.01a.809.809,0,0,0-.025-.145,27.349,27.349,0,0,0-1.133-4.708,2.809,2.809,0,0,1-.2-1.523,12.2,12.2,0,0,0,.048-1.8,4.918,4.918,0,0,1,.041-.866,1.215,1.215,0,0,0-.483-1.133c-1.325-.983-4.547-3.222-6.432-3.278-2.415-.072.757,4.167.72,4.565s2.415.761,2.415.761.145,1.23.29,1.919c.1.478.267,4.024.362,6.151a6.755,6.755,0,0,1-1.624-.609s-2.812-.759-3.065,0,3.426,4.42,3.426,4.42,1.3,3.441.906,4.531S504,230.4,504,230.4s.036,6.117.306,7.681a3.01,3.01,0,0,1-.487,2.427s-.324,3.84,0,4.2a11.216,11.216,0,0,1,.888,1.425l.1.172c-1.065,1.3-2.123,2.544-2.678,2.719-1.081.326-8.469,3.4-8.469,3.4a18.627,18.627,0,0,1-2.778,2.306c-.365,0,2.2,2.465,2.2,2.465s2.306,1.847,2.56,2.137,6.57,3.732,6.57,3.732,1.083.326,1.189.653,1.55,1.23,1.55,1.23a9.411,9.411,0,0,1,1.4,2.093.487.487,0,0,0,.016.156c.014.227.029.331.043.276.193.53,1.491,1.883.865,2.848-.29.453,0,1.267.56,1.924a6.909,6.909,0,0,1-.589,2.039c-.433.58-.24,1.4-.68,1.5s-.578,2.223-.578,2.223l-.374,4.683s-.1.965-.625,1.208,0,1.545,0,1.545-.566,1.11-.227,1.738-.68,3.528-.68,3.528-.433,5.6,0,6.376a6.343,6.343,0,0,1,.68,2.463c0,.483.24,9.516.24,9.516s-.578,3.67-.77,4.346.53,2.175.05,2.945a5.718,5.718,0,0,0-.385,2.51s-.72,6.811-.288,9.323-.138,3.043-.138,3.043a5.147,5.147,0,0,0,.933.412c.011.1.023.2.034.3.227,2.107.56,5.737.256,6.57a13.245,13.245,0,0,0-.419,3.3v.147h0l-.841,1.359a4.35,4.35,0,0,1-.385,1.391c-.217.193-2.023,3.471-2.266,3.892l-.025.045s-1.826,3.358,2.692,3.453,3.94-2.22,3.94-2.22.014-.453.057-1.008a4.866,4.866,0,0,1,.328-1.722,24.2,24.2,0,0,0,1.226-2.2v-2.66h-.29a.466.466,0,0,1,.016-.145,10.032,10.032,0,0,1,.251-1.643,10.172,10.172,0,0,0-.313-2.368,53.305,53.305,0,0,1,.546-6.371c.02-.109.041-.215.061-.317a7.708,7.708,0,0,0,.972-.507s0-4.926.578-5.8.455-3.333.455-3.333.143-2.173.575-2.608.331-2.368.331-2.368.383-1.255.816-2.266a19.62,19.62,0,0,0,.68-3.863,4.9,4.9,0,0,1,.68-1.4c.483-.68,0-2.173,0-2.173a2.646,2.646,0,0,1-.19-1.933c.338-.967,2.209-8.791,2.209-8.791l.723-2.8,1.056,3.573a24.537,24.537,0,0,0,0,3.285,10.255,10.255,0,0,0,1.153,2.266v7.583s.1,5.12.483,5.941a19.07,19.07,0,0,1,.575,3.865s1.3,8.936.48,10.238a7.814,7.814,0,0,0,1.328.727v5.263a15.659,15.659,0,0,0-.621,5.354.845.845,0,0,0,.02.129c-.086.063-.181.118-.24.1l.152,3.625a11.221,11.221,0,0,1-.344,3.07,4.37,4.37,0,0,0-.227,1.151c-.084,1.434.469,3.4,3.625,3.195,4.2-.267,3.555-2.945,3.555-2.945s0-.1-.016-.288a10.92,10.92,0,0,0-1.042-3.938,9.914,9.914,0,0,1-.863-4.445,1.551,1.551,0,0,1-.256.068.658.658,0,0,1,.011-.147c.054-.68.138-1.561.227-1.973a12.939,12.939,0,0,0,0-2.413l.541-5.29.029-.295a4.336,4.336,0,0,0,.745-.453h0a5.424,5.424,0,0,1-.279-1.473,1.3,1.3,0,0,1,.279-.931c.625-.628,1.056-8.5,1.056-8.5s.34-2.771.342-3.707v-.168c-.038-.564-.338-2.773-.333-4.062a2.551,2.551,0,0,1,.093-.807c.288-.725.68-14.346.68-14.346l.48-6.036v-4.957a29.242,29.242,0,0,0-.86-7.046c1.311.686,3.556,2.232,3.966,1.819.505-.508.757-9.2.612-10.071a.914.914,0,0,0-.034-.177c-.034-.159-.084-.372-.145-.618l.2-.347a30.316,30.316,0,0,0,2.612-5.211,34.383,34.383,0,0,1,.655-4.291,1.988,1.988,0,0,1,.1-.242h0c.088-.179.184-.276.292-.249.614.145,1.01.616,1.335.435a.16.16,0,0,0,.043-.036h0a.539.539,0,0,0,.082-.116h0a1.127,1.127,0,0,0,.075-.165h0c.023-.059.043-.125.063-.195v-.02a.424.424,0,0,1,.023-.088.148.148,0,0,0,0-.029.317.317,0,0,1,.018-.077l.014-.057v-.029c.057-.256.1-.521.127-.707a.935.935,0,0,1,.023-.168v-.091Z" transform="translate(-411.885 -162.226)" fill="url(#linear-gradient)"/>
    <path id="Caminho_483" data-name="Caminho 483" d="M559.31,489.4a.771.771,0,0,0-.05-.406C559.276,489.316,559.294,489.466,559.31,489.4Z" transform="translate(-464.801 -383.865)" fill="url(#linear-gradient-2)"/>
    <path id="Caminho_484" data-name="Caminho 484" d="M674.489,415.315s.856-.585.02-.929a2.626,2.626,0,0,1-1.359-1.754c-.032-.349-.68-4.228,1.554-3.4s3.278,1.731,3.256,2.438-.385,5.188-.385,5.188Z" transform="translate(-552.801 -322.089)" fill="#fbbebe"/>
    <path id="Caminho_485" data-name="Caminho 485" d="M673.225,435.574a1.329,1.329,0,0,1-.034.258c-.066.453-.227,1.387-.471,1.52-.324.181-.72-.288-1.334-.433-.109-.025-.2.07-.292.249a2.079,2.079,0,0,0-.1.24,34.16,34.16,0,0,0-.655,4.273,30.113,30.113,0,0,1-2.612,5.191c-.147.256-.286.489-.4.68-.272.453-.453.75-.453.75l-2.492-4.672v-6.89a6.122,6.122,0,0,0,.453-.954h0a1.685,1.685,0,0,0,.125-.77.394.394,0,0,0-.107-.227.272.272,0,0,1-.048-.07.362.362,0,0,1-.023-.059.743.743,0,0,1-.032-.177v-.15a14,14,0,0,1,.68-3,8.428,8.428,0,0,0,2.667.648C669.933,432.193,673.225,435.574,673.225,435.574Z" transform="translate(-546.104 -339.269)" fill="#57b894"/>
    <path id="Caminho_486" data-name="Caminho 486" d="M674.451,436.845c-.066.453-.227,1.387-.471,1.52-.324.181-.721-.288-1.335-.433-.109-.025-.2.07-.292.249a2.113,2.113,0,0,0-.1.24,18.492,18.492,0,0,1-3.537-2c-.138-.308-1.643-.378-2.492-.392h-.154a1.149,1.149,0,0,1-.054-.523,15.724,15.724,0,0,1,.68-2.864,8.427,8.427,0,0,0,2.667.648C671.1,433.487,674.107,436.5,674.451,436.845Z" transform="translate(-547.364 -340.282)" opacity="0.1"/>
    <path id="Caminho_487" data-name="Caminho 487" d="M674.532,435.553s-.181,1.6-.505,1.776-.72-.288-1.334-.43c-.109-.027-.2.068-.292.247a18.75,18.75,0,0,1-3.625-2.05c-.125-.315-1.84-.387-2.646-.4-.3-.621.625-3.4.625-3.4a8.458,8.458,0,0,0,2.667.65C671.258,432.168,674.532,435.553,674.532,435.553Z" transform="translate(-547.411 -339.246)" fill="#57b894"/>
    <path id="Caminho_488" data-name="Caminho 488" d="M640.428,440.177c-.505.505-3.786-1.946-4.685-2.091s-4.169-13.839-4.169-13.839l.492-7.717-1.917-7.1-.249-.929s.19-.566.961,0,2.642,2.982,3.147,3.161a4.513,4.513,0,0,1,1.874,1.409A3.818,3.818,0,0,0,637,414.079a14.082,14.082,0,0,1,.829,2.739c-.036.539.29,4.219.68,4.543s1.045,3.281,1.045,3.281,1.192,4.153,1.443,5.338a1.681,1.681,0,0,1,.034.177C641.185,431.021,640.934,439.671,640.428,440.177Z" transform="translate(-519.436 -321.417)" fill="#57b894"/>
    <path id="Caminho_489" data-name="Caminho 489" d="M646.747,473.33l2.379.637s.453,4.11.621,4.327.748,8.65.748,8.65l-3.747-1.695-1.407-4.531V475.7Z" transform="translate(-531.378 -371.753)" opacity="0.1"/>
    <path id="Caminho_490" data-name="Caminho 490" d="M555.218,764.863a8.031,8.031,0,0,0-.342,1.359,51.361,51.361,0,0,0-.546,6.344,10.186,10.186,0,0,1,.313,2.356,9.893,9.893,0,0,0-.251,1.634c-.039.353-.061.623-.061.623l-4.4-.288s0-.261.014-.659a13.421,13.421,0,0,1,.419-3.281c.3-.829-.027-4.45-.256-6.548-.1-.906-.177-1.527-.177-1.527S555.959,762.933,555.218,764.863Z" transform="translate(-457.584 -596.574)" fill="#fbbebe"/>
    <path id="Caminho_491" data-name="Caminho 491" d="M631.22,766.039l-.542,5.263a12.814,12.814,0,0,1,0,2.4c-.082.41-.165,1.285-.227,1.964-.041.514-.068.92-.068.92s-3.365,2.356-4.133.288a3.665,3.665,0,0,1-.19-.775,15.513,15.513,0,0,1,.621-5.329V764l4.663.761Z" transform="translate(-516.415 -596.567)" fill="#fbbebe"/>
    <path id="Caminho_492" data-name="Caminho 492" d="M555.257,764.861a8.035,8.035,0,0,0-.342,1.359,6.713,6.713,0,0,1-4.758.179c-.1-.906-.177-1.527-.177-1.527S556,762.931,555.257,764.861Z" transform="translate(-457.623 -596.572)" opacity="0.1"/>
    <path id="Caminho_493" data-name="Caminho 493" d="M633.723,764.743l-.131,1.276a5.553,5.553,0,0,1-4.531-.227V763.98Z" transform="translate(-518.786 -596.552)" opacity="0.1"/>
    <path id="Caminho_494" data-name="Caminho 494" d="M551.046,506.21a14.1,14.1,0,0,1-.816,3.414c-.433.578-.24,1.393-.68,1.489s-.578,2.211-.578,2.211l-.367,4.663s-.1.961-.625,1.2,0,1.538,0,1.538-.566,1.106-.227,1.731-.68,3.507-.68,3.507-.433,5.576,0,6.344a6.3,6.3,0,0,1,.68,2.451c0,.48.24,9.468.24,9.468s-.578,3.654-.77,4.327.53,2.161.05,2.932a5.646,5.646,0,0,0-.385,2.492s-.743,6.786-.31,9.278-.138,3.027-.138,3.027a6.727,6.727,0,0,0,6.77-.288s0-4.9.578-5.768.483-3.315.483-3.315.143-2.164.576-2.6.331-2.349.331-2.349.383-1.251.816-2.266a19.6,19.6,0,0,0,.68-3.852,4.85,4.85,0,0,1,.68-1.4c.483-.68,0-2.161,0-2.161a2.625,2.625,0,0,1-.19-1.923c.338-.961,2.209-8.748,2.209-8.748l.723-2.787,1.056,3.557a24.279,24.279,0,0,0,0,3.267,10.365,10.365,0,0,0,1.153,2.266v7.547s.1,5.1.483,5.911a18.926,18.926,0,0,1,.576,3.852s1.3,8.893.48,10.2c0,0,3.7,2.642,6.634.48,0,0-.625-1.779,0-2.4s1.056-8.46,1.056-8.46.385-3.124.338-3.852-.528-4.133-.24-4.853.68-14.274.68-14.274l.48-6.006v-4.916a28.878,28.878,0,0,0-1.088-7.871c-.813-2.866-1.939-6.153-2.886-6.36C568.8,506.915,553.883,508.566,551.046,506.21Z" transform="translate(-454.885 -397.184)" fill="#4a4770"/>
    <path id="Caminho_495" data-name="Caminho 495" d="M554.391,815.707c-.038.354-.061.623-.061.623l-4.4-.288s0-.261.014-.659c2.064-1.831,4.121.324,4.121.324Z" transform="translate(-457.584 -635.738)" opacity="0.1"/>
    <path id="Caminho_496" data-name="Caminho 496" d="M541.447,816.365v2.669a21.42,21.42,0,0,1-1.226,2.186,4.781,4.781,0,0,0-.328,1.713c-.043.544-.057,1-.057,1s.578,2.309-3.94,2.211-2.692-3.437-2.692-3.437l.025-.043c.227-.421,2.055-3.693,2.266-3.874a4.421,4.421,0,0,0,.385-1.384l.841-1.359c2.069-1.849,4.135.313,4.135.313Z" transform="translate(-444.366 -636.244)" fill="#3f3d56"/>
    <path id="Caminho_497" data-name="Caminho 497" d="M539.836,849.07s.578,2.309-3.94,2.211-2.692-3.428-2.692-3.428l.025-.043c.125.68.657,1.384,2.354,1.294a10.416,10.416,0,0,0,4.3-1.026C539.849,848.612,539.836,849.07,539.836,849.07Z" transform="translate(-444.366 -661.389)" opacity="0.1"/>
    <path id="Caminho_498" data-name="Caminho 498" d="M630.711,814.025c-.041.514-.068.92-.068.92s-3.364,2.356-4.133.288a3.662,3.662,0,0,1-.19-.775,1.834,1.834,0,0,0,.19-.163c.551-.816,3.482-.841,3.625-.453C630.224,814.063,630.5,814.063,630.711,814.025Z" transform="translate(-516.667 -634.928)" opacity="0.1"/>
    <path id="Caminho_499" data-name="Caminho 499" d="M627.163,826.182c-3.172.2-3.718-1.751-3.625-3.172a4.3,4.3,0,0,1,.227-1.144,11.124,11.124,0,0,0,.344-3.056l-.152-3.6c.12.048.41-.24.41-.24.551-.816,3.482-.841,3.625-.453s.818.125.818.125a9.807,9.807,0,0,0,.863,4.42,10.849,10.849,0,0,1,1.042,3.92c.014.181.016.286.016.286S631.365,825.916,627.163,826.182Z" transform="translate(-514.508 -635.447)" fill="#3f3d56"/>
    <path id="Caminho_500" data-name="Caminho 500" d="M627.163,855.883c-3.172.2-3.718-1.751-3.625-3.172,0,0,.822,1.4,3.752,1.063a8.222,8.222,0,0,0,3.421-1.1c.014.181.016.285.016.285S631.365,855.617,627.163,855.883Z" transform="translate(-514.508 -665.148)" opacity="0.1"/>
    <g id="Grupo_19" data-name="Grupo 19" transform="translate(112.596 109.74)" opacity="0.1">
      <path id="Caminho_501" data-name="Caminho 501" d="M642.638,512.888c-.65-1.858-1.359-3.4-2-3.528l-.573.059c.6.322,1.255,1.754,1.856,3.469a35.944,35.944,0,0,1,1.971,11.836v3.784l-.48,6.008s-.385,13.553-.68,14.274.193,4.133.24,4.855-.338,3.852-.338,3.852-.433,7.835-1.056,8.458,0,2.4,0,2.4a4.3,4.3,0,0,1-2.266.836,4.408,4.408,0,0,0,2.993-.836s-.625-1.779,0-2.4,1.056-8.458,1.056-8.458.385-3.124.338-3.852-.528-4.135-.24-4.855.68-14.274.68-14.274l.48-6.008v-3.784A35.944,35.944,0,0,0,642.638,512.888Z" transform="translate(-639.31 -509.36)"/>
    </g>
    <g id="Grupo_20" data-name="Grupo 20" transform="translate(91.571 109.026)" opacity="0.1">
      <path id="Caminho_502" data-name="Caminho 502" d="M547.375,566.291s.571-.53.138-3.029.288-9.276.288-9.276a5.633,5.633,0,0,1,.385-2.492c.48-.761-.24-2.266-.05-2.932s.77-4.327.77-4.327-.247-8.992-.247-9.475a6.287,6.287,0,0,0-.68-2.449c-.433-.77,0-6.344,0-6.344s1.008-2.884.68-3.507.227-1.731.227-1.731-.528-1.3,0-1.538.625-1.2.625-1.2l.383-4.663s.145-2.114.578-2.211.24-.906.68-1.489a10.83,10.83,0,0,0,.75-2.963,3,3,0,0,1-.8-.453,14.115,14.115,0,0,1-.818,3.412c-.433.578-.24,1.393-.68,1.488s-.576,2.211-.576,2.211l-.372,4.665s-.1.961-.625,1.2,0,1.538,0,1.538-.567,1.106-.227,1.731-.68,3.507-.68,3.507-.433,5.576,0,6.344a6.287,6.287,0,0,1,.68,2.449c0,.483.24,9.468.24,9.468s-.578,3.654-.768,4.327.528,2.161.048,2.932a5.647,5.647,0,0,0-.385,2.492s-.727,6.788-.295,9.28-.138,3.029-.138,3.029a6.62,6.62,0,0,0,3.566.759A6.456,6.456,0,0,1,547.375,566.291Z" transform="translate(-546.51 -506.21)"/>
    </g>
    <path id="Caminho_503" data-name="Caminho 503" d="M583.021,304.932a17.859,17.859,0,0,1,1.5,1.933,2.646,2.646,0,0,0,2.057,1.151,5.516,5.516,0,0,1,.721-.061,1.552,1.552,0,0,1,.777.34,4.971,4.971,0,0,1,1.677,3.172c.22,1.2.227,2.451.553,3.639a1.813,1.813,0,0,0,.612,1.063,2.636,2.636,0,0,0,1.566.2,2.766,2.766,0,0,1,1.976.652,1.569,1.569,0,0,1,.308,1.939,1.182,1.182,0,0,0-.254.44.811.811,0,0,0,.227.582L596.219,322a2.151,2.151,0,0,1,.573,1.359,1.065,1.065,0,0,1-1.876.609c.161.5-.333,1.02-.854,1.088a2.743,2.743,0,0,1-1.5-.394l-.039.854c-.435.227-.895-.227-1.242-.58s-1.06-.557-1.226-.1a.6.6,0,0,0,.141.562c.6.754,2.023.562,2.44,1.436a1.178,1.178,0,0,1-.723,1.507,1.979,1.979,0,0,1-1.772-.363c-.505-.362-1-.995-1.658-.99-.822,0-1.314.952-2.082,1.248a2.125,2.125,0,0,1-2.114-.614c-.564-.53-.956-1.217-1.477-1.792-1.341-1.479-3.374-2.066-5.268-2.7s-3.9-1.493-4.878-3.233a13.222,13.222,0,0,0-.861-1.624c-.639-.834-1.713-1.223-2.413-2.005a3.1,3.1,0,0,1-.473-3.31,11.092,11.092,0,0,1,1.38-1.862,6.262,6.262,0,0,0,1.23-3.675,4.657,4.657,0,0,1,.107-1.486,2.314,2.314,0,0,1,1.679-1.382,6.9,6.9,0,0,1,2.266-.052,20.773,20.773,0,0,0,2.479.227c.548-.025.97-.453,1.5-.6A3.664,3.664,0,0,1,583.021,304.932Z" transform="translate(-472.052 -240.786)" fill="#b96f70"/>
    <g id="Grupo_21" data-name="Grupo 21" transform="translate(96.682 68.598)" opacity="0.1">
      <path id="Caminho_504" data-name="Caminho 504" d="M658.617,329.283c.227,1.208.227,2.451.555,3.636a2.294,2.294,0,0,0,.36.818c-.027-.079-.052-.161-.073-.24-.315-1.187-.333-2.431-.553-3.639a6.473,6.473,0,0,0-.727-2.089A7.187,7.187,0,0,1,658.617,329.283Z" transform="translate(-637.991 -327.77)"/>
      <path id="Caminho_505" data-name="Caminho 505" d="M681.375,363.56a1.165,1.165,0,0,0-.256.453.807.807,0,0,0,.227.58c.02.027.039.054.059.079a.357.357,0,0,1,0-.084,1.187,1.187,0,0,1,.256-.44,1.537,1.537,0,0,0-.138-1.749A1.4,1.4,0,0,1,681.375,363.56Z" transform="translate(-655.733 -354.554)"/>
      <path id="Caminho_506" data-name="Caminho 506" d="M604.762,378.929a1.239,1.239,0,0,1-.8,1.223,1.979,1.979,0,0,1-1.772-.365c-.505-.365-1-.992-1.656-.988-.825,0-1.314.952-2.084,1.246a2.12,2.12,0,0,1-2.114-.614c-.564-.53-.956-1.217-1.475-1.79-1.341-1.479-3.374-2.069-5.27-2.7s-3.888-1.489-4.869-3.222c.088.193.179.383.281.566.979,1.74,2.982,2.6,4.876,3.233s3.929,1.219,5.27,2.7c.521.576.906,1.262,1.475,1.792a2.128,2.128,0,0,0,2.114.614c.77-.3,1.26-1.242,2.084-1.248.657,0,1.133.6,1.658.99a1.9,1.9,0,0,0,1.77.362,1.179,1.179,0,0,0,.725-1.507A1.061,1.061,0,0,0,604.762,378.929Z" transform="translate(-581.174 -361.762)"/>
      <path id="Caminho_507" data-name="Caminho 507" d="M668.05,384.87a1.237,1.237,0,0,1,.063.464,1.067,1.067,0,0,1-1.878.612c.161.5-.333,1.017-.854,1.088a2.724,2.724,0,0,1-1.5-.394c-.014.283-.025.569-.039.852-.435.227-.906-.227-1.239-.578s-1.06-.56-1.228-.1a.6.6,0,0,0,.14.56,1.157,1.157,0,0,0,.125.134.417.417,0,0,1,.023-.118c.168-.453.881-.254,1.228.1s.8.809,1.242.58c0-.285.025-.569.036-.854a2.851,2.851,0,0,0,1.5.394c.521-.059,1.015-.587.852-1.088a1.067,1.067,0,0,0,1.878-.609A1.706,1.706,0,0,0,668.05,384.87Z" transform="translate(-640.446 -371.933)"/>
      <path id="Caminho_508" data-name="Caminho 508" d="M571.746,356.464c-.637-.834-1.713-1.221-2.411-2.005a2.623,2.623,0,0,1-.265-.349,2.878,2.878,0,0,0,.553.927c.7.782,1.774,1.171,2.411,2.005a3.092,3.092,0,0,1,.242.372,5.12,5.12,0,0,0-.53-.949Z" transform="translate(-569.07 -348.142)"/>
    </g>
    <path id="Caminho_509" data-name="Caminho 509" d="M591.772,362.39s.528,5.864-1.876,7.64,5.143,6.634,5.143,6.634l5.721-1.251s-2.789-2.594-2.789-3.7.48-7.307,1.251-8.027S591.772,362.39,591.772,362.39Z" transform="translate(-488.13 -285.948)" fill="#fbbebe"/>
    <path id="Caminho_510" data-name="Caminho 510" d="M544.337,283.6l-1.307,2.857s-1.948,1.156-2.091,1.262-1.695,1.876-1.695,1.876l-3.822,2.451s-.093-.174-.227-.421a11.4,11.4,0,0,0-.888-1.418c-.324-.36,0-4.18,0-4.18a3,3,0,0,0,.487-2.415c-.27-1.55-.306-7.642-.306-7.642s-.288-5.12.109-6.2-.906-4.506-.906-4.506-3.675-3.652-3.423-4.407,3.065,0,3.065,0a6.342,6.342,0,0,0,1.692.614c.349.02,2.214.029,3.643.032h1.692a31.109,31.109,0,0,1,1.047,4.577c-.029.084-.059.168-.086.249-.116.333-.2.63-.059.831a28.365,28.365,0,0,1,.578,3.317l.4,3.317a28.65,28.65,0,0,1,.575,2.957c-.036.363-.938,1.117-.542,1.8a10,10,0,0,1,.544,2.775,7.888,7.888,0,0,0,1.316,2.118A1.108,1.108,0,0,0,544.337,283.6Z" transform="translate(-442.368 -207.158)" fill="#57b894"/>
    <circle id="Elipse_97" data-name="Elipse 97" cx="6.922" cy="6.922" r="6.922" transform="translate(101.129 66.498)" opacity="0.1"/>
    <circle id="Elipse_98" data-name="Elipse 98" cx="6.922" cy="6.922" r="6.922" transform="translate(101.129 66.21)" fill="#fbbebe"/>
    <path id="Caminho_511" data-name="Caminho 511" d="M578.855,404.092c-.625.68-.768,7.25-.4,7.835s-1.86,1.731-3.158,1.681a24.406,24.406,0,0,0-4.851,1.058s-7.116-1.924-8.609-.961-3.6-1.731-2.979-2.692-.68-2.306-.866-2.834a4.246,4.246,0,0,1-.077-.68h0c-.174-2.42-.356-10.173-.356-10.173v-8.9l6.539-4.615a31.369,31.369,0,0,1,3.034,1.756,14.848,14.848,0,0,1,1.962,1.511c1.781,1.683,6.2,3.462,6.2,3.462s4.855,5.816,5.478,6.394S579.478,403.419,578.855,404.092Z" transform="translate(-463.486 -302.515)" fill="#fff"/>
    <path id="Caminho_512" data-name="Caminho 512" d="M557.57,417.293V409.64s.2,13.941.356,17.826C557.751,425.046,557.57,417.293,557.57,417.293Z" transform="translate(-463.494 -322.493)" opacity="0.1"/>
    <path id="Caminho_513" data-name="Caminho 513" d="M559.26,490.86a.762.762,0,0,1,.05.4C559.294,491.331,559.276,491.182,559.26,490.86Z" transform="translate(-464.801 -385.311)" opacity="0.1"/>
    <path id="Caminho_514" data-name="Caminho 514" d="M567.183,388.04a5.868,5.868,0,0,0-1.044,1.477c-.36.793-8.569.145-8.569.145v-1.237l6.539-4.615a31.376,31.376,0,0,1,3.034,1.756C567.183,386.921,567.183,388.04,567.183,388.04Z" transform="translate(-463.494 -302.515)" opacity="0.1"/>
    <path id="Caminho_515" data-name="Caminho 515" d="M559.26,488.31a.763.763,0,0,1,.05.4C559.294,488.783,559.276,488.634,559.26,488.31Z" transform="translate(-464.801 -383.339)" opacity="0.1"/>
    <path id="Caminho_516" data-name="Caminho 516" d="M561.2,361.864l-1.307,2.857s-1.948,1.155-2.091,1.262-1.695,1.876-1.695,1.876l-3.822,2.451s-.093-.174-.227-.421a26.612,26.612,0,0,1,2.719-3.077c1.226-.936-.036-1.044,0-1.226s2.705-1.153,3.426-1.837a30.258,30.258,0,0,1,2.8-2.039A1.1,1.1,0,0,0,561.2,361.864Z" transform="translate(-459.232 -285.422)" opacity="0.1"/>
    <path id="Caminho_517" data-name="Caminho 517" d="M513.873,362.39a32.649,32.649,0,0,0-3,2.161c-.72.684-3.4,1.658-3.426,1.84s1.226.288,0,1.226-4.216,5.333-5.3,5.664-8.469,3.4-8.469,3.4a18.76,18.76,0,0,1-2.775,2.266c-.36,0,2.2,2.451,2.2,2.451s2.306,1.84,2.56,2.127,6.566,3.7,6.566,3.7,1.083.324,1.189.648,1.55,1.226,1.55,1.226,1.611,1.851,1.455,2.51-.433-18.8-.433-18.8,8.208.648,8.569-.145a5.868,5.868,0,0,1,1.044-1.477s-.023-6.668-.483-7.162S513.882,363,513.873,362.39Z" transform="translate(-411.903 -285.948)" fill="#57b894"/>
    <path id="Caminho_518" data-name="Caminho 518" d="M508.2,413.776a15.774,15.774,0,0,0,3.172,2.739,2.73,2.73,0,0,1,1.4,1.443,8.254,8.254,0,0,0,1.84.793,4.555,4.555,0,0,1,1.622,1.081s2.415.68,2.415,1.189.974,1.192.974,1.192l-.242-13.843s-4.012.5-5.166,2.2S508.2,413.776,508.2,413.776Z" transform="translate(-425.309 -321.511)" opacity="0.1"/>
    <path id="Caminho_519" data-name="Caminho 519" d="M529,415.354c.181-.109,5.1-6.448,5.1-6.448l.906-.186a36.243,36.243,0,0,0-2.3,3.786C532.745,412.794,529,415.354,529,415.354Z" transform="translate(-441.396 -321.781)" opacity="0.1"/>
    <path id="Caminho_520" data-name="Caminho 520" d="M538.11,421.961s1.3-2.993,1.658-3.5,2.3-3.892,2.3-3.892a2.278,2.278,0,0,1,0,.865C541.966,415.759,538.11,421.961,538.11,421.961Z" transform="translate(-448.443 -326.306)" opacity="0.1"/>
    <path id="Caminho_521" data-name="Caminho 521" d="M567.416,348.7s-2.884,5.263-2.63,5.517S567.416,348.7,567.416,348.7Z" transform="translate(-469.063 -275.36)" opacity="0.1"/>
    <path id="Caminho_522" data-name="Caminho 522" d="M573.477,357.93a34.747,34.747,0,0,0-2.164,3.432A34.743,34.743,0,0,0,573.477,357.93Z" transform="translate(-474.112 -282.499)" opacity="0.1"/>
    <path id="Caminho_523" data-name="Caminho 523" d="M539.589,220.464l-4.543.324s0-.147-.016-.4c-.063-1.5-.292-6.729-.415-7.314-.145-.68-.29-1.91-.29-1.91s-2.451-.36-2.415-.757-3.136-4.615-.72-4.531c1.885.057,5.107,2.284,6.432,3.26a1.21,1.21,0,0,1,.483,1.119,4.857,4.857,0,0,0-.041.861,12.081,12.081,0,0,1-.048,1.788,2.743,2.743,0,0,0,.2,1.516,28.453,28.453,0,0,1,1.133,4.683C539.494,219.889,539.589,220.464,539.589,220.464Z" transform="translate(-442.389 -164.894)" fill="#fbbebe"/>
    <path id="Caminho_524" data-name="Caminho 524" d="M553.942,270.061l-.086.247c-.986-.977-7.159-1.6-7.159-1.6-.541-.63-.057-.906.521-1.677.338-.453,2.361-1.1,3.985-1.552h1.692A31.179,31.179,0,0,1,553.942,270.061Z" transform="translate(-454.901 -210.995)" opacity="0.1"/>
    <path id="Caminho_525" data-name="Caminho 525" d="M555.8,265.583l-4.543.324s0-.147-.016-.4a19.775,19.775,0,0,1,3.659-1.3h.657C555.7,265.007,555.8,265.583,555.8,265.583Z" transform="translate(-458.598 -210.012)" opacity="0.1"/>
    <path id="Caminho_526" data-name="Caminho 526" d="M553.942,269.421c-.029.084-.059.168-.086.249-.986-.979-7.159-1.6-7.159-1.6-.541-.63-.057-.906.521-1.674.338-.453,2.361-1.1,3.985-1.554h1.692A31.179,31.179,0,0,1,553.942,269.421Z" transform="translate(-454.901 -210.5)" fill="#57b894"/>
    <path id="Caminho_527" data-name="Caminho 527" d="M596.053,442.57s-.505,9.7,0,10.166S596.053,442.57,596.053,442.57Z" transform="translate(-493.084 -347.962)" opacity="0.1"/>
    <path id="Caminho_528" data-name="Caminho 528" d="M612.295,460.55s-.181,10.671,0,10.778S612.295,460.55,612.295,460.55Z" transform="translate(-505.757 -361.868)" opacity="0.1"/>
    <path id="Caminho_529" data-name="Caminho 529" d="M631,466.12s.68,7.354,1.3,7.642S631,466.12,631,466.12Z" transform="translate(-520.287 -366.177)" opacity="0.1"/>
    <path id="Caminho_530" data-name="Caminho 530" d="M640.382,430.592a1.5,1.5,0,0,1-.578-.227c-.612-.4-1.3-4.651-2.2-5.227s-4.146-6.237-4.146-6.237a29.754,29.754,0,0,0-1.767-2.848c-.505-.582-.252-3.172-.252-3.172a14.128,14.128,0,0,1-1.912-2.848,2.583,2.583,0,0,1-.249-.927s.193-.569.961,0,2.642,2.982,3.147,3.161a4.519,4.519,0,0,1,1.876,1.407,3.9,3.9,0,0,0,1.117,1.011,14.036,14.036,0,0,1,.829,2.739c-.036.542.288,4.216.68,4.543s1.044,3.278,1.044,3.278S640.13,429.407,640.382,430.592Z" transform="translate(-518.957 -321.885)" opacity="0.1"/>
    <path id="Caminho_531" data-name="Caminho 531" d="M666.05,444.75v-.15a1.409,1.409,0,0,1,.039.326A.754.754,0,0,1,666.05,444.75Z" transform="translate(-547.396 -349.532)" opacity="0.1"/>
    <path id="Caminho_532" data-name="Caminho 532" d="M667.775,462.039c-.147.256-.285.489-.4.68-.6-.614-1.266-4.62-2.139-5.177a4.08,4.08,0,0,1-.793-.89v-4.758a6.114,6.114,0,0,0,.453-.954c.106,1.287.351,3.195.632,3.426.4.324,1.044,3.281,1.044,3.281S667.344,460.374,667.775,462.039Z" transform="translate(-546.15 -354.436)" opacity="0.1"/>
    <path id="Caminho_533" data-name="Caminho 533" d="M641.022,429.956a1.421,1.421,0,0,1-.578-.227c-.614-.4-1.3-4.649-2.2-5.227s-4.144-6.235-4.144-6.235a29.745,29.745,0,0,0-1.767-2.848c-.505-.582-.252-3.172-.252-3.172a14.2,14.2,0,0,1-1.912-2.848,2.608,2.608,0,0,1-.249-.929s.19-.566.961,0,2.642,2.982,3.147,3.161a4.513,4.513,0,0,1,1.874,1.409,3.819,3.819,0,0,0,1.117,1.008,14.084,14.084,0,0,1,.829,2.739c-.036.539.29,4.219.68,4.543s1.044,3.281,1.044,3.281S640.77,428.771,641.022,429.956Z" transform="translate(-519.452 -321.394)" fill="#57b894"/>
    <circle id="Elipse_99" data-name="Elipse 99" cx="0.487" cy="0.487" r="0.487" transform="translate(113.729 94.123)" fill="#3f3d56"/>
    <circle id="Elipse_100" data-name="Elipse 100" cx="0.487" cy="0.487" r="0.487" transform="translate(116.928 98.502)" fill="#3f3d56"/>
    <path id="Caminho_534" data-name="Caminho 534" d="M670.1,453.94s-2.345-1.072-1.985-.494S670.1,453.94,670.1,453.94Z" transform="translate(-548.961 -356.242)" opacity="0.1"/>
    <path id="Caminho_535" data-name="Caminho 535" d="M670.356,461.775s-2.381-.648-1.876-.27A3.829,3.829,0,0,0,670.356,461.775Z" transform="translate(-549.221 -362.516)" opacity="0.1"/>
    <path id="Caminho_536" data-name="Caminho 536" d="M670.863,467.8s-1.622-1.174-1.226-.741A3.815,3.815,0,0,0,670.863,467.8Z" transform="translate(-550.122 -366.832)" opacity="0.1"/>
    <path id="Caminho_537" data-name="Caminho 537" d="M679.052,476.14s-1.654,3.253-.863,3.466S679.052,476.14,679.052,476.14Z" transform="translate(-556.619 -373.926)" opacity="0.1"/>
    <path id="Caminho_538" data-name="Caminho 538" d="M568.912,711.77s-3.8,3.6-2.692,3.557S568.912,711.77,568.912,711.77Z" transform="translate(-470.028 -556.171)" opacity="0.1"/>
    <path id="Caminho_539" data-name="Caminho 539" d="M555.24,731.762c.193,0,4.037-.385,3.027-.578A7.986,7.986,0,0,0,555.24,731.762Z" transform="translate(-461.691 -571.163)" opacity="0.1"/>
    <path id="Caminho_540" data-name="Caminho 540" d="M637.76,709.23s4.078.143,3.99.576S637.76,709.23,637.76,709.23Z" transform="translate(-525.515 -554.206)" opacity="0.1"/>
    <path id="Caminho_541" data-name="Caminho 541" d="M634.79,716.44s2.354,1.779,2.884,1.2S634.79,716.44,634.79,716.44Z" transform="translate(-523.218 -559.783)" opacity="0.1"/>
    <path id="Caminho_542" data-name="Caminho 542" d="M569.877,596.755a1.2,1.2,0,0,1-.15.365.368.368,0,0,1-.1.109,6.477,6.477,0,0,1-1.924.906c-.088-.023-.433-.127-.811-.227-.442-.129-.931-.267-1.115-.292s-.29-.317-.317-.6,0-.508.12-.551a.285.285,0,0,0,.1-.149,1.793,1.793,0,0,0,.063-.2l.018-.068c.063-.263.116-.6.152-.87.02-.147.034-.279.045-.367v-.1h0v-.018l.317-.016h.3a18.675,18.675,0,0,1,2.748.027.773.773,0,0,1,.5.576,2.649,2.649,0,0,1,.113.65,2.9,2.9,0,0,1-.061.834Z" transform="translate(-469.586 -465.572)" fill="#fbbebe"/>
    <path id="Caminho_543" data-name="Caminho 543" d="M634.832,601.761a.326.326,0,0,0,0,.048c0,.492-.034.863-.034.924a24.084,24.084,0,0,1-6.246,1.441c-.82-.063-.211-.625.247-1.205a1.9,1.9,0,0,0,.362-.614.451.451,0,0,0,0-.247c-.025-.091-.048-.172-.063-.247h0c-.118-.519-.059-.68.063-.807a.958.958,0,0,0,.165-.31,1.237,1.237,0,0,0,.07-.322.974.974,0,0,0-.183-.7c-.385-.512,1.443-.786,1.443-.786h3.473c.34,0,.521.48.612,1.1a.061.061,0,0,0,0,.02c.025.181.045.374.057.571s.02.372.023.553S634.832,601.577,634.832,601.761Z" transform="translate(-518.081 -468.904)" fill="#fbbebe"/>
    <path id="Caminho_544" data-name="Caminho 544" d="M578.754,669.941a28.019,28.019,0,0,1-3.46.68c.147-.093.181-.406.168-.759a5.093,5.093,0,0,0-.045-.523c-.05-.4-.122-.736-.122-.736a9.585,9.585,0,0,1,2.739-.24.859.859,0,0,1,.542.58.845.845,0,0,1,.029.079,3.3,3.3,0,0,1,.15.92Z" transform="translate(-477.181 -522.559)" fill="#fbbebe"/>
    <path id="Caminho_545" data-name="Caminho 545" d="M592.091,319.577a16.661,16.661,0,0,0,1.5-.732,2.061,2.061,0,0,1,1.613-.159,2.571,2.571,0,0,1,.707.5c.453.4.906.8,1.332,1.23a7.829,7.829,0,0,0,1.389,1.239,6.01,6.01,0,0,0,4.078.347,2.513,2.513,0,0,0,.8-.227,1.67,1.67,0,0,0,.7-1.8,4.036,4.036,0,0,0-1.035-1.765,14.5,14.5,0,0,0-4.728-3.5,7.393,7.393,0,0,0-6.081-.433,6.6,6.6,0,0,0-1.586,1.083c-.662.589-2.372,2.087-1.994,3.1C589.2,319.6,591.106,319.908,592.091,319.577Z" transform="translate(-487.595 -248.362)" opacity="0.1"/>
    <path id="Caminho_546" data-name="Caminho 546" d="M592.091,318.943a16.069,16.069,0,0,0,1.5-.732,2.071,2.071,0,0,1,1.613-.159,2.676,2.676,0,0,1,.707.5c.453.4.906.8,1.332,1.23a7.738,7.738,0,0,0,1.389,1.239,6.01,6.01,0,0,0,4.078.347,2.456,2.456,0,0,0,.8-.227,1.669,1.669,0,0,0,.7-1.8,4.035,4.035,0,0,0-1.035-1.765,14.467,14.467,0,0,0-4.728-3.5,7.4,7.4,0,0,0-6.081-.435,6.663,6.663,0,0,0-1.586,1.083c-.661.589-2.372,2.089-1.994,3.1C589.2,318.966,591.106,319.276,592.091,318.943Z" transform="translate(-487.595 -247.873)" fill="#b96f70"/>
    <path id="Caminho_547" data-name="Caminho 547" d="M603.49,335.131a2.431,2.431,0,0,1-.8.227,5.972,5.972,0,0,1-4.078-.347,7.834,7.834,0,0,1-1.4-1.251c-.426-.43-.881-.829-1.332-1.23a2.633,2.633,0,0,0-.707-.5,2.067,2.067,0,0,0-1.615.161,16.023,16.023,0,0,1-1.5.732c-.986.331-2.889.02-3.315-1.115a.85.85,0,0,1-.043-.17.941.941,0,0,0,.043.453c.426,1.133,2.329,1.445,3.315,1.115a16.3,16.3,0,0,0,1.5-.732,2.065,2.065,0,0,1,1.615-.159,2.575,2.575,0,0,1,.707.5c.453.4.906.8,1.332,1.23a7.828,7.828,0,0,0,1.389,1.239,6.009,6.009,0,0,0,4.078.347,2.492,2.492,0,0,0,.8-.227,1.61,1.61,0,0,0,.732-1.554A1.522,1.522,0,0,1,603.49,335.131Z" transform="translate(-487.566 -262.165)" opacity="0.1"/>
    <path id="Caminho_548" data-name="Caminho 548" d="M567,595.446a9.368,9.368,0,0,1-.251,1.289,10.759,10.759,0,0,0,.227-1.305Z" transform="translate(-470.594 -466.189)" opacity="0.1"/>
    <path id="Caminho_549" data-name="Caminho 549" d="M569.627,597.237a6.477,6.477,0,0,1-1.924.906c-.193-.054-1.586-.48-1.926-.528s-.428-1.058-.2-1.153a.286.286,0,0,0,.1-.15,1.975,1.975,0,0,1-.081.2,1,1,0,0,0,.227,1.058l2,.517,1.883-1.029c.453-.623-.054-2.06-.313-2.293a15.983,15.983,0,0,0-3.346,0l-.068-.066h0v-.018l.317-.016h.3a18.685,18.685,0,0,1,2.748.027C570.107,594.833,570.107,596.9,569.627,597.237Z" transform="translate(-469.589 -465.572)" opacity="0.1"/>
    <path id="Caminho_550" data-name="Caminho 550" d="M634.129,598.92h-3.473s-1.828.274-1.443.786a1.161,1.161,0,0,1-.052,1.328c-.138.145-.2.338,0,1.058s-1.867,1.971-.618,2.066a24.172,24.172,0,0,0,6.246-1.441C634.788,602.527,635.058,598.92,634.129,598.92Zm.469,3.729a22.748,22.748,0,0,1-5.891,1.359c-1.18-.088.768-1.266.582-1.946s-.131-.861,0-1a1.1,1.1,0,0,0,.05-1.253c-.362-.483,1.359-.741,1.359-.741h3.274C634.852,599.069,634.6,602.468,634.6,602.649Z" transform="translate(-518.074 -468.889)" opacity="0.1"/>
    <path id="Caminho_551" data-name="Caminho 551" d="M578.037,668.331a9.583,9.583,0,0,0-2.739.24s.385,1.779,0,2.019a25.526,25.526,0,0,0,3.462-.68S578.759,668.524,578.037,668.331Zm-2.68,2.22c.371-.227,0-1.951,0-1.951a9.15,9.15,0,0,1,2.646-.227c.7.19.7,1.532.7,1.532A24.588,24.588,0,0,1,575.356,670.552Z" transform="translate(-477.184 -522.536)" opacity="0.1"/>
    <path id="Caminho_552" data-name="Caminho 552" d="M638.1,606.958l-5.725.68h0l5.7-1.228C638.084,606.589,638.093,606.77,638.1,606.958Z" transform="translate(-521.346 -474.682)" opacity="0.1"/>
    <path id="Caminho_553" data-name="Caminho 553" d="M489.81,581.25l5.947-1.28.127.557Z" transform="translate(-378.839 -448.43)" fill="#3f3d56"/>
    <path id="Caminho_554" data-name="Caminho 554" d="M637.038,611.39a.326.326,0,0,0,0,.048L631,612.6a1.9,1.9,0,0,0,.362-.614Z" transform="translate(-520.287 -478.533)" opacity="0.1"/>
    <path id="Caminho_555" data-name="Caminho 555" d="M485.81,585.641l7.25-.761L486,586.237Z" transform="translate(-375.745 -452.227)" fill="#3f3d56"/>
    <path id="Caminho_556" data-name="Caminho 556" d="M638.795,603.78l-5.345.381a1.245,1.245,0,0,1-.07.322l5.417-.68Z" transform="translate(-522.128 -472.648)" opacity="0.1"/>
    <path id="Caminho_557" data-name="Caminho 557" d="M489.5,577.853l6.074-.433-6.165.775Z" transform="translate(-378.529 -446.457)" fill="#3f3d56"/>
    <path id="Caminho_558" data-name="Caminho 558" d="M571.019,597.784l-4.189.136c.063-.263.116-.6.152-.87l3.924.084A2.65,2.65,0,0,1,571.019,597.784Z" transform="translate(-470.656 -467.442)" opacity="0.1"/>
    <path id="Caminho_559" data-name="Caminho 559" d="M423.12,570.76l5.714.12-.7.609-5.016.161Z" transform="translate(-327.258 -441.306)" fill="#3f3d56"/>
    <path id="Caminho_560" data-name="Caminho 560" d="M569.91,604a1.2,1.2,0,0,1-.15.365l-2.839.786c-.442-.129-.931-.267-1.115-.292s-.29-.317-.317-.6Z" transform="translate(-469.619 -472.818)" opacity="0.1"/>
    <path id="Caminho_561" data-name="Caminho 561" d="M419.81,577.807l6.656-.387-6.1,1.69Z" transform="translate(-324.698 -446.457)" fill="#3f3d56"/>
    <path id="Caminho_562" data-name="Caminho 562" d="M579.118,671.139l-3.142.841a5.061,5.061,0,0,0-.045-.523c.877-.118,2.338-.3,3.158-.4A.821.821,0,0,1,579.118,671.139Z" transform="translate(-477.694 -524.684)" opacity="0.1"/>
    <path id="Caminho_563" data-name="Caminho 563" d="M572.74,670.665c.12-.048,4.495-.575,4.495-.575l-4.495,1.2Z" transform="translate(-475.227 -523.934)" fill="#3f3d56"/>
    <circle id="Elipse_101" data-name="Elipse 101" cx="4.901" cy="4.901" r="4.901" transform="translate(163.673 16.833)" fill="#3f3d56"/>
    <circle id="Elipse_102" data-name="Elipse 102" cx="3.854" cy="3.854" r="3.854" transform="translate(186.472 29.885)" fill="#3f3d56"/>
    <circle id="Elipse_103" data-name="Elipse 103" cx="4.901" cy="4.901" r="4.901" transform="translate(163.673 16.833)" fill="#3f3d56" opacity="0.4"/>
    <circle id="Elipse_104" data-name="Elipse 104" cx="3.854" cy="3.854" r="3.854" transform="translate(186.472 29.885)" fill="#3f3d56" opacity="0.4"/>
    <circle id="Elipse_105" data-name="Elipse 105" cx="12.368" cy="12.368" r="12.368" transform="translate(17.445 21.371)" fill="#3f3d56"/>
    <circle id="Elipse_106" data-name="Elipse 106" cx="12.368" cy="12.368" r="12.368" transform="translate(17.445 21.371)" fill="#3f3d56" opacity="0.4"/>
    <circle id="Elipse_107" data-name="Elipse 107" cx="1.359" cy="1.359" r="1.359" transform="translate(187.829 15.17)" fill="#3f3d56"/>
    <circle id="Elipse_108" data-name="Elipse 108" cx="1.359" cy="1.359" r="1.359" transform="translate(187.829 15.17)" fill="#3f3d56" opacity="0.4"/>
    <path id="Caminho_564" data-name="Caminho 564" d="M447.771,788s1.409,1.842-.65,4.624-3.756,5.129-3.07,6.865c0,0,3.106-5.166,5.635-5.238S450.547,791.108,447.771,788Z" transform="translate(-375.574 -615.13)" fill="#57b894"/>
    <path id="Caminho_565" data-name="Caminho 565" d="M448.045,788a2.266,2.266,0,0,1,.288.578c2.467,2.9,3.781,5.605,1.412,5.664-2.209.061-4.86,4.012-5.494,5.009a2.084,2.084,0,0,0,.075.227s3.106-5.166,5.635-5.238S450.82,791.108,448.045,788Z" transform="translate(-375.848 -615.13)" opacity="0.1"/>
    <path id="Caminho_566" data-name="Caminho 566" d="M471.424,796.959c0,.648-.073,1.174-.163,1.174s-.161-.526-.161-1.174.091-.344.179-.344S471.424,796.309,471.424,796.959Z" transform="translate(-396.615 -621.737)" fill="#ffd037"/>
    <path id="Caminho_567" data-name="Caminho 567" d="M472.709,800.274c-.569.31-1.067.5-1.108.419s.383-.394.952-.7.344-.084.387,0S473.275,799.964,472.709,800.274Z" transform="translate(-397 -624.28)" fill="#ffd037"/>
    <path id="Caminho_568" data-name="Caminho 568" d="M417.337,788s-1.409,1.842.65,4.624,3.756,5.129,3.07,6.865c0,0-3.106-5.166-5.635-5.238S414.555,791.108,417.337,788Z" transform="translate(-352.587 -615.13)" fill="#57b894"/>
    <path id="Caminho_569" data-name="Caminho 569" d="M417.337,788a2.269,2.269,0,0,0-.288.578c-2.467,2.9-3.781,5.605-1.411,5.664,2.209.061,4.86,4.012,5.494,5.009a2.078,2.078,0,0,1-.075.227s-3.106-5.166-5.635-5.238S414.555,791.108,417.337,788Z" transform="translate(-352.587 -615.13)" opacity="0.1"/>
    <path id="Caminho_570" data-name="Caminho 570" d="M416.57,796.959c0,.648.073,1.174.163,1.174s.161-.526.161-1.174-.091-.344-.179-.344S416.57,796.309,416.57,796.959Z" transform="translate(-354.439 -621.737)" fill="#ffd037"/>
    <path id="Caminho_571" data-name="Caminho 571" d="M411.42,800.274c.569.31,1.065.5,1.108.419s-.383-.394-.952-.7-.344-.084-.387,0S410.852,799.964,411.42,800.274Z" transform="translate(-350.189 -624.28)" fill="#ffd037"/>
    <path id="Caminho_572" data-name="Caminho 572" d="M418.55,830.382s3.938-.12,5.125-.967,6.061-1.853,6.355-.5,5.918,6.743,1.47,6.779-10.331-.693-11.516-1.414S418.55,830.382,418.55,830.382Z" transform="translate(-355.971 -646.263)" fill="#a8a8a8"/>
    <path id="Caminho_573" data-name="Caminho 573" d="M431.58,842.456c-4.445.036-10.331-.693-11.516-1.414-.906-.551-1.262-2.524-1.382-3.432h-.131s.249,3.172,1.434,3.9,7.071,1.45,11.516,1.414c1.285,0,1.729-.467,1.7-1.144C433.025,842.2,432.536,842.456,431.58,842.456Z" transform="translate(-355.971 -653.5)" opacity="0.2"/>
    <path id="Caminho_574" data-name="Caminho 574" d="M811.156,757.037s-2.517-8.548.471-14.84a13.5,13.5,0,0,0,1.092-8.471,22.743,22.743,0,0,0-1.2-3.976" transform="translate(-658.859 -570.077)" fill="none" stroke="#535461" stroke-miterlimit="10" stroke-width="2"/>
    <path id="Caminho_575" data-name="Caminho 575" d="M811.4,705.942c0,1.049-1.9,4.078-1.9,4.078s-1.9-3.038-1.9-4.078a1.9,1.9,0,0,1,3.795,0Z" transform="translate(-656.883 -550.246)" fill="#6c63ff"/>
    <path id="Caminho_576" data-name="Caminho 576" d="M825.183,727.823c-.569.879-3.813,2.4-3.813,2.4s.059-3.58.628-4.459a1.9,1.9,0,1,1,3.185,2.062Z" transform="translate(-667.526 -566.322)" fill="#6c63ff"/>
    <path id="Caminho_577" data-name="Caminho 577" d="M822.222,769.326c-.933.471-4.5.145-4.5.145s1.86-3.061,2.794-3.534a1.9,1.9,0,0,1,1.708,3.4Z" transform="translate(-664.703 -597.908)" fill="#6c63ff"/>
    <path id="Caminho_578" data-name="Caminho 578" d="M814.613,802.917c-.843.623-4.413.906-4.413.906s1.314-3.33,2.157-3.953a1.9,1.9,0,1,1,2.266,3.049Z" transform="translate(-658.886 -624.021)" fill="#6c63ff"/>
    <path id="Caminho_579" data-name="Caminho 579" d="M801.829,738.178c.752.729,4.253,1.486,4.253,1.486s-.859-3.478-1.609-4.207a1.9,1.9,0,1,0-2.644,2.719Z" transform="translate(-651.968 -574.076)" fill="#6c63ff"/>
    <path id="Caminho_580" data-name="Caminho 580" d="M791.6,775.818c.936.471,4.5.145,4.5.145s-1.858-3.061-2.794-3.534a1.9,1.9,0,0,0-1.708,3.389Z" transform="translate(-643.735 -602.948)" fill="#6c63ff"/>
    <path id="Caminho_581" data-name="Caminho 581" d="M789.01,815.151c.841.623,4.411.906,4.411.906s-1.314-3.333-2.157-3.956A1.9,1.9,0,1,0,789,815.153Z" transform="translate(-641.895 -633.48)" fill="#6c63ff"/>
    <path id="Caminho_582" data-name="Caminho 582" d="M811.4,705.942c0,1.049-1.9,4.078-1.9,4.078s-1.9-3.038-1.9-4.078a1.9,1.9,0,0,1,3.795,0Z" transform="translate(-656.883 -550.246)" fill="#57b894"/>
    <path id="Caminho_583" data-name="Caminho 583" d="M825.183,727.823c-.569.879-3.813,2.4-3.813,2.4s.059-3.58.628-4.459a1.9,1.9,0,1,1,3.185,2.062Z" transform="translate(-667.526 -566.322)" fill="#57b894"/>
    <path id="Caminho_584" data-name="Caminho 584" d="M822.222,769.326c-.933.471-4.5.145-4.5.145s1.86-3.061,2.794-3.534a1.9,1.9,0,0,1,1.708,3.4Z" transform="translate(-664.703 -597.908)" fill="#57b894"/>
    <path id="Caminho_585" data-name="Caminho 585" d="M814.613,802.917c-.843.623-4.413.906-4.413.906s1.314-3.33,2.157-3.953a1.9,1.9,0,1,1,2.266,3.049Z" transform="translate(-658.886 -624.021)" fill="#57b894"/>
    <path id="Caminho_586" data-name="Caminho 586" d="M801.829,738.178c.752.729,4.253,1.486,4.253,1.486s-.859-3.478-1.609-4.207a1.9,1.9,0,1,0-2.644,2.719Z" transform="translate(-651.968 -574.076)" fill="#57b894"/>
    <path id="Caminho_587" data-name="Caminho 587" d="M791.6,775.818c.936.471,4.5.145,4.5.145s-1.858-3.061-2.794-3.534a1.9,1.9,0,0,0-1.708,3.389Z" transform="translate(-643.735 -602.948)" fill="#57b894"/>
    <path id="Caminho_588" data-name="Caminho 588" d="M789.01,815.151c.841.623,4.411.906,4.411.906s-1.314-3.333-2.157-3.956A1.9,1.9,0,1,0,789,815.153Z" transform="translate(-641.895 -633.48)" fill="#57b894"/>
    <path id="Caminho_589" data-name="Caminho 589" d="M788.27,837.6s3.068-.609,3.883-1.421,4.5-2.232,4.907-1.217,5.517,4.463,2.039,5.073-8.177.811-9.2.406S788.27,837.6,788.27,837.6Z" transform="translate(-641.925 -651.184)" fill="#a8a8a8"/>
    <path id="Caminho_590" data-name="Caminho 590" d="M799.1,849.774c-3.476.61-8.177.813-9.2.408-.777-.31-1.319-1.794-1.534-2.492l-.1.02s.614,2.436,1.636,2.841,5.723.2,9.2-.406c1-.177,1.289-.589,1.18-1.11C800.2,849.382,799.85,849.645,799.1,849.774Z" transform="translate(-641.925 -661.296)" opacity="0.2"/>
    <path id="Caminho_591" data-name="Caminho 591" d="M253.32,94.357v.082a.265.265,0,0,0,0,.043c0,.036,0,.07,0,.106v.136a.029.029,0,0,1,0,.014v.147l-.02.159a.528.528,0,0,1-.018.1h0a.412.412,0,0,0,0,.052v.032a.116.116,0,0,1,0,.027.1.1,0,0,1-.011.054c-.011.018,0,.036-.011.054s0,.027,0,.041a.7.7,0,0,1-.016.07h0a.359.359,0,0,1-.011.048.566.566,0,0,1-.016.059.267.267,0,0,1-.018.07.056.056,0,0,0,0,.018.224.224,0,0,1-.023.072c-.02.072-.045.147-.07.227,0,.023-.018.045-.025.068a.249.249,0,0,1-.016.039,4.927,4.927,0,0,1-.662,1.21l-.052.068a5.015,5.015,0,0,1-.426.485l-7.139,7.078-7.069-7.069a5.038,5.038,0,0,1-.555-.659,4.872,4.872,0,0,1-.288-.453,5.01,5.01,0,0,1-.6-2.841,1.854,1.854,0,0,1,.032-.272q.034-.227.088-.476a.332.332,0,0,1,.025-.093l.014-.05v-.027l.02-.072h0c.016-.054.034-.109.052-.163s.016-.05.025-.075c.036-.106.077-.211.122-.315l.027-.061.041-.093.073-.15h0c0-.023.023-.045.036-.068a.6.6,0,0,1,.041-.075c.016-.032.034-.061.052-.093a.457.457,0,0,0,.025-.045.093.093,0,0,0,.016-.025h0l.034-.054c.014-.02.025-.041.039-.059l.091-.136.032-.045.041-.057.043-.059.054-.07.048-.059.018-.023.034-.041a.786.786,0,0,1,.057-.066.331.331,0,0,1,.023-.029h0l.041-.048.05-.052c.043-.048.088-.1.136-.14l.054-.054.084-.079.057-.052.068-.059.043-.039.045-.036.088-.072.045-.036c.077-.059.154-.116.227-.168l.045-.032.048-.032.045-.029.066-.041.034-.02.048-.029c.066-.036.131-.075.2-.109l.039-.02.061-.032.05-.023.052-.025.05-.025.05-.023.052-.023c.068-.029.138-.057.206-.082l.052-.02.054-.02.05-.016.041-.014.1-.032.077-.052.039-.011h.039l.07-.02.091-.023c.093-.023.188-.043.283-.061h.258c.091,0,.181-.02.274-.027h.759c.075,0,.147.014.227.02l.1.014h.211c.1.018.188.039.281.061l.116.029h.032l.05.014.1.027.041.014.206.07.045.018.061.023.1.039.1.045.041.018.059.027.05.025.05.023.063.034.05.025.116.063.048.027.168.1.045.029.048.032.045.032h0l.032.02.2.145.045.036.088.072.045.036.043.039.068.059.057.052.084.079.054.054.057-.054c.027-.027.054-.054.084-.079a.617.617,0,0,1,.057-.052l.066-.059.045-.039.043-.036.091-.072.045-.036c.077-.059.154-.116.227-.168l.048-.032.048-.032.045-.029.066-.041.034-.02.048-.029c.066-.036.131-.075.2-.109l.039-.02.061-.032.05-.023.05-.025.052-.025.05-.023.052-.023c.068-.029.136-.057.206-.082l.05-.02.057-.02.05-.016.041-.014.1-.032.048-.014.041-.011h.039l.068-.02.091-.023q.143-.034.285-.061h.256c.091,0,.184-.02.274-.027h.759l.227.02.1.014h.213c.093.018.188.039.281.061l.116.029h.032l.05.014.1.027.041.014.206.07.045.018.061.023.093.039.106.045.041.018.057.027.05.025.052.023.061.034.05.025.116.063.05.027.168.1.043.029.048.032.05.036h0l.029.02c.068.048.134.1.2.145a.352.352,0,0,1,.045.036c.032.023.061.048.091.072l.045.036.043.039.059.05.057.052.032.032h0l.054.052.025.025.029.029.054.054.084.088a.5.5,0,0,1,.045.052c.027.027.052.057.079.086l.082.1a4.057,4.057,0,0,1,.261.353.34.34,0,0,1,.048.039.423.423,0,0,1,.036.052l.029.048.05.079.043.075.025.045.02.036.02.036.029.054.027.054c.066.127.125.258.179.39l.023.057c.02.054.041.109.059.163a.454.454,0,0,1,.018.05.255.255,0,0,0,.023.07l.02.063.014.041a.233.233,0,0,0,.016.057l.02.073c.011.039.02.079.029.118s.011.041.016.061.011.057.018.086a.222.222,0,0,0,0,.039v.655h0a.308.308,0,0,1,0,.045.308.308,0,0,1,0,.045v.075h0V94.2Z" transform="translate(-214.975 -74.785)" fill="#57b894"/>
    <path id="Caminho_592" data-name="Caminho 592" d="M253.807,94.357v.082a.263.263,0,0,0,0,.043v.242a.03.03,0,0,1,0,.014v.147l-.02.159a.527.527,0,0,1-.018.1h0a.424.424,0,0,0,0,.052v.032a.111.111,0,0,1,0,.027.1.1,0,0,1-.011.054c-.011.018,0,.036-.011.054s0,.027,0,.041a.7.7,0,0,1-.016.07h0a.356.356,0,0,1-.011.048.573.573,0,0,1-.016.059.267.267,0,0,1-.018.07.054.054,0,0,0,0,.018.224.224,0,0,1-.023.072c-.02.072-.045.147-.07.227,0,.023-.018.045-.025.068a.244.244,0,0,1-.016.039,4.984,4.984,0,0,0-1.325-4.706,5.069,5.069,0,0,0-.854-.68c-.091-.057-.181-.111-.274-.161a4.984,4.984,0,0,0-5.354.3,4.8,4.8,0,0,0-.653.551,5.481,5.481,0,0,0-.612-.521h0a5.19,5.19,0,0,0-.517-.326,5,5,0,0,0-4.815,0,5.176,5.176,0,0,0-.711.474,5.068,5.068,0,0,0-.965,1.024c-.1.14-.193.285-.276.433h0a4.7,4.7,0,0,0-.213.428c-.036.079-.07.161-.1.242a.332.332,0,0,1,.025-.093l.014-.05v-.027l.02-.072h0c.016-.054.034-.109.052-.163s.016-.05.025-.075c.036-.106.077-.211.122-.315l.027-.061.041-.093.073-.15h0c0-.023.023-.045.036-.068a.608.608,0,0,1,.041-.075c.016-.032.034-.061.052-.093a.451.451,0,0,0,.025-.045.094.094,0,0,0,.016-.025h0l.034-.054c.014-.02.025-.041.039-.059l.091-.136.032-.045.041-.057.043-.059.054-.07.048-.059.018-.023.034-.041a.783.783,0,0,1,.057-.066.335.335,0,0,1,.023-.029h0l.041-.048.05-.052c.043-.048.088-.1.136-.14l.054-.054.084-.079.057-.052.068-.059.043-.039.045-.036.088-.072.045-.036c.077-.059.154-.116.227-.168l.045-.032.048-.032.045-.029.066-.041.034-.02.048-.029c.066-.036.131-.075.2-.109l.039-.02.061-.032.05-.023.052-.025.05-.025.05-.023.052-.023c.068-.029.138-.057.206-.082l.052-.02.054-.02.05-.016.041-.014.1-.032.072-.036.039-.011h.038l.07-.02.091-.023c.093-.023.188-.043.283-.061h.258c.091,0,.181-.02.274-.027h.759c.075,0,.147.014.227.02l.1.014h.211c.1.018.188.039.281.061l.116.029h.032l.05.014.1.027.041.014.206.07.045.018.061.023.1.039.1.045.041.018.059.027.05.025.05.023.063.034.05.025.116.063.048.027.168.1.045.029.048.032.045.032h0l.032.02.2.145.045.036.088.072.045.036.043.039.068.059.057.052.084.079.054.054.057-.054c.027-.027.054-.054.084-.079a.621.621,0,0,1,.057-.052l.066-.059.045-.039.043-.036.091-.072.045-.036c.077-.059.154-.116.227-.168l.048-.032.048-.032.045-.029.066-.041.034-.02.048-.029c.066-.036.131-.075.2-.109l.039-.02.061-.032.05-.023.05-.025.052-.025.05-.023.052-.023c.068-.029.136-.057.206-.082l.05-.02.057-.02.05-.016.041-.014.1-.032.048-.014.041-.011h.039l.068-.02.091-.023q.143-.034.285-.061h.256c.091,0,.184-.02.274-.027h.759l.227.02.1.014h.213c.093.018.188.039.281.061l.116.029h.032l.05.014.1.027.041.014.206.07.045.018.061.023.093.039.106.045.041.018.057.027.05.025.052.023.061.034.05.025.116.063.05.027.168.1.043.029.048.032.05.036h0l.029.02c.068.048.134.1.2.145a.353.353,0,0,1,.045.036c.032.023.061.048.091.072l.045.036.043.039.059.05.057.052.032.032h0l.054.052.025.025.029.029.054.054.084.088a.5.5,0,0,1,.045.052c.027.027.052.057.079.086l.082.1a4.06,4.06,0,0,1,.261.353.34.34,0,0,1,.048.039.423.423,0,0,1,.036.052l.029.048.05.079.043.075.025.045.02.036.02.036.029.054.027.054c.066.127.125.258.179.39l.023.057c.02.054.041.109.059.163a.451.451,0,0,1,.018.05.256.256,0,0,0,.023.07l.02.063.014.041a.233.233,0,0,0,.016.057l.02.073c.011.039.02.079.029.118s.011.041.016.061.011.057.018.086a.222.222,0,0,0,0,.039v.655h0a.308.308,0,0,1,0,.045.308.308,0,0,1,0,.045v.075h0V94.2Z" transform="translate(-215.461 -74.785)" opacity="0.1"/>
  </g>
</svg>
