<svg id="Grupo_16" data-name="Grupo 16" xmlns="http://www.w3.org/2000/svg" width="886" height="654.301" viewBox="0 0 886 654.301">
  <path id="Caminho_404" data-name="Caminho 404" d="M534.7,566.284s117.663-14.12,158.845-36.475,347.1-32.945,347.1,36.475S688.835,666.3,688.835,666.3l-184.73-10.59Z" transform="translate(-157 -122.599)" fill="#fbbebe"/>
  <path id="Caminho_405" data-name="Caminho 405" d="M534.7,566.284s117.663-14.12,158.845-36.475,347.1-32.945,347.1,36.475S688.835,666.3,688.835,666.3l-184.73-10.59Z" transform="translate(-157 -122.599)" opacity="0.1"/>
  <path id="Caminho_406" data-name="Caminho 406" d="M568.819,553.341,544.11,625.115,157,629.822v-105.9S305.255,489.8,422.918,562.755C422.918,562.754,561.76,546.282,568.819,553.341Z" transform="translate(-157 -122.599)" fill="#9d5b29"/>
  <path id="Caminho_407" data-name="Caminho 407" d="M568.819,553.226,544.11,625,157,629.706V523.81s148.255-34.122,265.918,38.829C422.918,562.639,561.76,546.166,568.819,553.226Z" transform="translate(-157 -122.599)" fill="#9d5b29" opacity="0.1"/>
  <path id="Caminho_408" data-name="Caminho 408" d="M1011.4,523.337c0,4.01-8.993,6.987-9.877,10.856-.877,3.837,4.466,9.672,2.775,13.336a72.567,72.567,0,0,1-6.172,10.733c-2.215,3.171-9.057,2.708-11.862,5.682a94.325,94.325,0,0,1-8.712,7.576c-2.977,2.476-7.01,2.995-10.395,5.274-3.219,2.167-2.829,10.116-6.389,12.089-3.4,1.886-8.61.369-12.3,2.064-3.542,1.627-5.41,7.511-9.2,8.95-3.652,1.388-8.172.79-12.034,1.992-3.737,1.163-7.918.974-11.834,1.954-3.8.951-6.707,6.651-10.662,7.419-3.854.749-8.371-1.248-12.356-.681-3.892.554-8.418-4.372-12.421-4-3.918.365-7.611,2.645-11.624,2.829-3.935.181-7.825,1.914-11.839,1.914s-8.155,3.765-12.089,3.585c-4.013-.184-7.646-5.891-11.564-6.256-4-.373-8.779,5.589-12.671,5.035-3.985-.567-7.141-6.4-11-7.151-3.957-.769-9.067,3.4-12.87,2.451-3.916-.979-6.241-7.768-9.978-8.931-3.861-1.2-8.647.426-12.3-.962-3.788-1.439-8.4-1.208-11.944-2.835-3.69-1.7-6.339-5.706-9.742-7.591-3.56-1.973-5.2-6.867-8.421-9.035-3.385-2.279-8.543-1.988-11.52-4.464-3.143-2.614-9.031-2.75-11.684-5.563-2.805-2.974-3.94-7.969-6.155-11.141-2.333-3.34,2.245-10.4.617-13.933-1.69-3.664-8.756-5.152-9.632-8.989a56.437,56.437,0,0,1-1.384-12.207c0-4.01,6.043-7.075,6.927-10.943.877-3.837-3.571-9.348-1.88-13.012,1.629-3.531,1.421-8.959,3.754-12.3,2.215-3.171,7.742-4.415,10.548-7.389,2.652-2.812,7.4-3.6,10.543-6.21,2.977-2.476,2.6-9.942,5.983-12.221,3.219-2.167,7.712-3.156,11.273-5.129,3.4-1.886,8.217-1.568,11.907-3.263,3.542-1.627,9.091,1.579,12.878.14,3.652-1.388,6.614-4.421,10.476-5.623,3.737-1.163,5.493-10.035,9.409-11.014,3.8-.951,8.481.628,12.437-.141,3.854-.749,9.04,6.251,13.025,5.684,3.892-.554,6.8-9.9,10.806-10.271,3.918-.365,8.337,4.475,12.349,4.29,3.935-.181,7.886,2.655,11.9,2.655s8.012-3.892,11.946-3.711c4.013.184,7.551,5.327,11.469,5.692,4,.373,8.919-7.45,12.811-6.9,3.985.567,7.064,6.614,10.918,7.363,3.957.769,8.912-2.986,12.716-2.034,3.916.979,6.273,7.407,10.01,8.57,3.861,1.2,6.24,5.736,9.892,7.124,3.788,1.439,10.823-5.294,14.366-3.667,3.69,1.7,6.878,4.628,10.28,6.514,3.56,1.973,9.22.981,12.439,3.148,3.385,2.279,4.218,8.4,7.195,10.874,3.143,2.614,8.327,3.4,10.98,6.213,2.805,2.974,3.2,8.3,5.41,11.476,2.333,3.34,2.26,7.969,3.888,11.5,1.69,3.664,6.2,6.435,7.078,10.271C1008.79,514.9,1011.4,519.328,1011.4,523.337Z" transform="translate(-157 -122.599)" fill="#3f3d56"/>
  <path id="Caminho_409" data-name="Caminho 409" d="M587.645,596.877S720.6,528.632,806.5,554.518s205.91-18.826,220.029-3.53,34.122,180.024-135.312,189.437-314.159-28.239-314.159-28.239Z" transform="translate(-157 -122.599)" fill="#fbbebe"/>
  <path id="Caminho_410" data-name="Caminho 410" d="M556.334,589.609s52.491-3.322,50.137,15.5-4.706,164.728-18.826,168.258-125.9,3.53-171.788,3.53H157V551.326S340.554,540.4,432.331,586.287C432.331,586.287,542.672,584.694,556.334,589.609Z" transform="translate(-157 -122.599)" fill="#cc7c3f"/>
  <path id="Caminho_411" data-name="Caminho 411" d="M802.239,236.779a27.041,27.041,0,0,0-23.309,16.3c-5.828,14.089,1.676,30.638,12.942,40.912s25.737,16.146,38.885,23.865c17.661,10.368,33.53,24.759,42.367,43.234s9.776,41.358-.611,59.008c-9.641,16.382-27.171,26.186-43.891,35.228" transform="translate(-157 -122.599)" fill="none" stroke="#3f3d56" stroke-miterlimit="10" stroke-width="1"/>
  <path id="Caminho_412" data-name="Caminho 412" d="M849.3,150.885A27.041,27.041,0,0,0,826,167.182c-5.828,14.089,1.676,30.638,12.942,40.912s25.737,16.146,38.885,23.865c17.661,10.368,33.53,24.76,42.367,43.234s9.776,41.358-.611,59.008c-9.641,16.382-27.171,26.186-43.891,35.228" transform="translate(-157 -122.599)" fill="none" stroke="#3f3d56" stroke-miterlimit="10" stroke-width="1"/>
  <path id="Caminho_413" data-name="Caminho 413" d="M1004.05,170.64a27.041,27.041,0,0,0-28.408-1.382c-13.233,7.572-17.43,25.252-14.812,40.272s10.467,28.523,16.138,42.675c7.618,19.009,11.356,40.1,7.034,60.122s-17.588,38.688-36.606,46.285c-17.652,7.051-37.515,4.072-56.271.987" transform="translate(-157 -122.599)" fill="none" stroke="#3f3d56" stroke-miterlimit="10" stroke-width="1"/>
  <ellipse id="Elipse_44" data-name="Elipse 44" cx="28.239" cy="13.716" rx="28.239" ry="13.716" transform="translate(682.444 198.173)" fill="#57b894"/>
  <ellipse id="Elipse_45" data-name="Elipse 45" cx="28.239" cy="13.716" rx="28.239" ry="13.716" transform="translate(678.914 195.82)" fill="none" stroke="#3f3d56" stroke-miterlimit="10" stroke-width="1"/>
  <ellipse id="Elipse_46" data-name="Elipse 46" cx="28.239" cy="13.716" rx="28.239" ry="13.716" transform="translate(743.628 186.407)" fill="#57b894"/>
  <ellipse id="Elipse_47" data-name="Elipse 47" cx="28.239" cy="13.716" rx="28.239" ry="13.716" transform="translate(740.098 184.054)" fill="none" stroke="#3f3d56" stroke-miterlimit="10" stroke-width="1"/>
  <ellipse id="Elipse_48" data-name="Elipse 48" cx="28.239" cy="13.716" rx="28.239" ry="13.716" transform="translate(753.041 238.179)" fill="#57b894"/>
  <ellipse id="Elipse_49" data-name="Elipse 49" cx="28.239" cy="13.716" rx="28.239" ry="13.716" transform="translate(749.511 235.825)" fill="none" stroke="#3f3d56" stroke-miterlimit="10" stroke-width="1"/>
  <ellipse id="Elipse_50" data-name="Elipse 50" cx="28.239" cy="13.716" rx="28.239" ry="13.716" transform="translate(747.158 108.75)" fill="#57b894"/>
  <ellipse id="Elipse_51" data-name="Elipse 51" cx="28.239" cy="13.716" rx="28.239" ry="13.716" transform="translate(743.628 106.397)" fill="none" stroke="#3f3d56" stroke-miterlimit="10" stroke-width="1"/>
  <ellipse id="Elipse_52" data-name="Elipse 52" cx="28.239" cy="13.716" rx="28.239" ry="13.716" transform="translate(676.56 100.513)" fill="#57b894"/>
  <ellipse id="Elipse_53" data-name="Elipse 53" cx="28.239" cy="13.716" rx="28.239" ry="13.716" transform="translate(673.031 98.16)" fill="none" stroke="#3f3d56" stroke-miterlimit="10" stroke-width="1"/>
  <ellipse id="Elipse_54" data-name="Elipse 54" cx="28.239" cy="13.716" rx="28.239" ry="13.716" transform="translate(708.329 71.098)" fill="#57b894"/>
  <ellipse id="Elipse_55" data-name="Elipse 55" cx="28.239" cy="13.716" rx="28.239" ry="13.716" transform="translate(704.8 68.744)" fill="none" stroke="#3f3d56" stroke-miterlimit="10" stroke-width="1"/>
  <ellipse id="Elipse_56" data-name="Elipse 56" cx="28.239" cy="13.716" rx="28.239" ry="13.716" transform="translate(777.75 76.981)" fill="#57b894"/>
  <ellipse id="Elipse_57" data-name="Elipse 57" cx="28.239" cy="13.716" rx="28.239" ry="13.716" transform="translate(774.22 74.628)" fill="none" stroke="#3f3d56" stroke-miterlimit="10" stroke-width="1"/>
  <ellipse id="Elipse_58" data-name="Elipse 58" cx="28.239" cy="13.716" rx="28.239" ry="13.716" transform="translate(829.522 115.81)" fill="#57b894"/>
  <ellipse id="Elipse_59" data-name="Elipse 59" cx="28.239" cy="13.716" rx="28.239" ry="13.716" transform="translate(825.992 113.456)" fill="none" stroke="#3f3d56" stroke-miterlimit="10" stroke-width="1"/>
  <ellipse id="Elipse_60" data-name="Elipse 60" cx="28.239" cy="13.716" rx="28.239" ry="13.716" transform="translate(647.145 47.565)" fill="#57b894"/>
  <ellipse id="Elipse_61" data-name="Elipse 61" cx="28.239" cy="13.716" rx="28.239" ry="13.716" transform="translate(643.615 45.212)" fill="none" stroke="#3f3d56" stroke-miterlimit="10" stroke-width="1"/>
  <ellipse id="Elipse_62" data-name="Elipse 62" cx="28.239" cy="13.716" rx="28.239" ry="13.716" transform="translate(664.794 2.853)" fill="#57b894"/>
  <ellipse id="Elipse_63" data-name="Elipse 63" cx="28.239" cy="13.716" rx="28.239" ry="13.716" transform="translate(661.264 0.5)" fill="none" stroke="#3f3d56" stroke-miterlimit="10" stroke-width="1"/>
  <ellipse id="Elipse_64" data-name="Elipse 64" cx="28.239" cy="13.716" rx="28.239" ry="13.716" transform="translate(828.345 35.799)" fill="#57b894"/>
  <ellipse id="Elipse_65" data-name="Elipse 65" cx="28.239" cy="13.716" rx="28.239" ry="13.716" transform="translate(824.815 33.446)" fill="none" stroke="#3f3d56" stroke-miterlimit="10" stroke-width="1"/>
  <ellipse id="Elipse_66" data-name="Elipse 66" cx="28.239" cy="13.716" rx="28.239" ry="13.716" transform="translate(568.311 144.049)" fill="#57b894"/>
  <ellipse id="Elipse_67" data-name="Elipse 67" cx="28.239" cy="13.716" rx="28.239" ry="13.716" transform="translate(564.781 141.695)" fill="none" stroke="#3f3d56" stroke-miterlimit="10" stroke-width="1"/>
  <ellipse id="Elipse_68" data-name="Elipse 68" cx="28.239" cy="13.716" rx="28.239" ry="13.716" transform="translate(665.971 136.989)" fill="#57b894"/>
  <ellipse id="Elipse_69" data-name="Elipse 69" cx="28.239" cy="13.716" rx="28.239" ry="13.716" transform="translate(662.441 134.636)" fill="none" stroke="#3f3d56" stroke-miterlimit="10" stroke-width="1"/>
  <ellipse id="Elipse_70" data-name="Elipse 70" cx="28.239" cy="13.716" rx="28.239" ry="13.716" transform="translate(794.223 147.578)" fill="#57b894"/>
  <ellipse id="Elipse_71" data-name="Elipse 71" cx="28.239" cy="13.716" rx="28.239" ry="13.716" transform="translate(790.693 145.225)" fill="none" stroke="#3f3d56" stroke-miterlimit="10" stroke-width="1"/>
  <ellipse id="Elipse_72" data-name="Elipse 72" cx="28.239" cy="13.716" rx="28.239" ry="13.716" transform="translate(725.979 152.285)" fill="#57b894"/>
  <ellipse id="Elipse_73" data-name="Elipse 73" cx="28.239" cy="13.716" rx="28.239" ry="13.716" transform="translate(722.449 149.932)" fill="none" stroke="#3f3d56" stroke-miterlimit="10" stroke-width="1"/>
  <ellipse id="Elipse_74" data-name="Elipse 74" cx="28.239" cy="13.716" rx="28.239" ry="13.716" transform="translate(730.685 34.622)" fill="#57b894"/>
  <ellipse id="Elipse_75" data-name="Elipse 75" cx="28.239" cy="13.716" rx="28.239" ry="13.716" transform="translate(727.155 32.269)" fill="none" stroke="#3f3d56" stroke-miterlimit="10" stroke-width="1"/>
  <ellipse id="Elipse_76" data-name="Elipse 76" cx="28.239" cy="13.716" rx="28.239" ry="13.716" transform="translate(609.493 107.573)" fill="#57b894"/>
  <ellipse id="Elipse_77" data-name="Elipse 77" cx="28.239" cy="13.716" rx="28.239" ry="13.716" transform="translate(605.963 105.22)" fill="none" stroke="#3f3d56" stroke-miterlimit="10" stroke-width="1"/>
  <ellipse id="Elipse_78" data-name="Elipse 78" cx="28.239" cy="13.716" rx="28.239" ry="13.716" transform="translate(625.966 160.521)" fill="#57b894"/>
  <ellipse id="Elipse_79" data-name="Elipse 79" cx="28.239" cy="13.716" rx="28.239" ry="13.716" transform="translate(622.436 158.168)" fill="none" stroke="#3f3d56" stroke-miterlimit="10" stroke-width="1"/>
  <g id="Grupo_13" data-name="Grupo 13" opacity="0.3">
    <ellipse id="Elipse_80" data-name="Elipse 80" cx="14.794" cy="6.407" rx="14.794" ry="6.407" transform="translate(636.461 274.552) rotate(-60.799)" fill="#57b894"/>
    <ellipse id="Elipse_81" data-name="Elipse 81" cx="14.794" cy="6.407" rx="14.794" ry="6.407" transform="translate(634.599 275.63) rotate(-60.799)" fill="none" stroke="#3f3d56" stroke-miterlimit="10" stroke-width="1"/>
  </g>
  <g id="Grupo_14" data-name="Grupo 14" opacity="0.3">
    <ellipse id="Elipse_82" data-name="Elipse 82" cx="6.407" cy="14.794" rx="6.407" ry="14.794" transform="matrix(0.667, -0.745, 0.745, 0.667, 775.73, 287.125)" fill="#57b894"/>
    <ellipse id="Elipse_83" data-name="Elipse 83" cx="6.407" cy="14.794" rx="6.407" ry="14.794" transform="matrix(0.667, -0.745, 0.745, 0.667, 775.086, 285.073)" fill="none" stroke="#3f3d56" stroke-miterlimit="10" stroke-width="1"/>
  </g>
  <g id="Grupo_15" data-name="Grupo 15" opacity="0.3">
    <ellipse id="Elipse_84" data-name="Elipse 84" cx="6.407" cy="14.794" rx="6.407" ry="14.794" transform="matrix(0.667, -0.745, 0.745, 0.667, 643.949, 212.998)" fill="#57b894"/>
    <ellipse id="Elipse_85" data-name="Elipse 85" cx="6.407" cy="14.794" rx="6.407" ry="14.794" transform="matrix(0.667, -0.745, 0.745, 0.667, 643.304, 210.945)" fill="none" stroke="#3f3d56" stroke-miterlimit="10" stroke-width="1"/>
  </g>
</svg>
