<svg xmlns="http://www.w3.org/2000/svg" width="224.976" height="230.999" viewBox="0 0 224.976 230.999">
  <g id="Grupo_17" data-name="Grupo 17" transform="translate(0)">
    <path id="Caminho_414" data-name="Caminho 414" d="M855.158,259.673s-4.217,2.433-2.92,5.839c0,0,4.379,1.3,6.164,4.542s15.571,14.922,15.571,14.922l10.056-5.028s-3.5-4.67-14.563-7.931c0,0-6.523-6.991-8.794-8.289A47.95,47.95,0,0,1,855.158,259.673Z" transform="translate(-670.91 -195.979)" fill="#cbcdda"/>
    <path id="Caminho_415" data-name="Caminho 415" d="M855.158,259.673s-4.217,2.433-2.92,5.839c0,0,4.379,1.3,6.164,4.542s15.571,14.922,15.571,14.922l10.056-5.028s-3.5-4.67-14.563-7.931c0,0-6.523-6.991-8.794-8.289A47.95,47.95,0,0,1,855.158,259.673Z" transform="translate(-670.91 -195.979)" opacity="0.05"/>
    <path id="Caminho_416" data-name="Caminho 416" d="M295.512,789.985c-2.165.535-4.43-.09-6.661-.116s-4.832.911-5.379,3.073c-.734,2.9,2.661,5.094,5.568,5.818,11.283,2.808,23.227-.837,34.759.65,4.86.627,9.585,2.159,14.472,2.525,11.184.837,22.111-4.482,33.31-3.883,5.611.3,11.064,2.082,16.675,2.368,13.426.684,26.671-7.2,39.815-4.374,3.711.8,7.2,2.423,10.873,3.365,9.3,2.38,19.084.259,28.444-1.864,1.858-.421,4.1-1.242,4.328-3.134.253-2.088-2.144-3.4-4.138-4.063-21.806-7.293-45.153-11.156-67.9-7.786-5.176.767-10.337,1.907-15.569,1.832-11.58-.167-22.221-6.208-33.59-8.417-21.542-4.187-43.08,5.581-62.856,15.095" transform="translate(-257.064 -571.025)" fill="#57b894" opacity="0.1"/>
    <path id="Caminho_417" data-name="Caminho 417" d="M420.033,602.735h-6.595V658.49s42.565,13.789,83.932,0V602.735Z" transform="translate(-351.728 -445.662)" fill="#3f3d56"/>
    <ellipse id="Elipse_86" data-name="Elipse 86" cx="41.366" cy="6.295" rx="41.366" ry="6.295" transform="translate(61.71 151.078)" fill="#3f3d56"/>
    <ellipse id="Elipse_87" data-name="Elipse 87" cx="41.366" cy="6.295" rx="41.366" ry="6.295" transform="translate(61.71 151.078)" opacity="0.1"/>
    <path id="Caminho_418" data-name="Caminho 418" d="M587.74,151.5c-10.436,38.576-46.179,62.466-46.179,62.466s-18.824-38.653-8.389-77.228,46.179-62.466,46.179-62.466S598.176,112.929,587.74,151.5Z" transform="translate(-436.578 -61.046)" fill="#3f3d56"/>
    <path id="Caminho_419" data-name="Caminho 419" d="M384.876,151.5c10.436,38.576,46.179,62.466,46.179,62.466s18.824-38.653,8.389-77.228-46.179-62.466-46.179-62.466S374.441,112.929,384.876,151.5Z" transform="translate(-328.647 -61.046)" fill="#57b894"/>
    <path id="Caminho_420" data-name="Caminho 420" d="M258.285,246.743c28.635,27.875,32.132,70.725,32.132,70.725s-42.929-2.344-71.564-30.219-32.133-70.725-32.133-70.725S229.65,218.868,258.285,246.743Z" transform="translate(-186.721 -164.575)" fill="#3f3d56"/>
    <path id="Caminho_421" data-name="Caminho 421" d="M599.821,246.743c-28.635,27.875-32.133,70.725-32.133,70.725s42.929-2.344,71.564-30.219,32.132-70.725,32.132-70.725S628.455,218.868,599.821,246.743Z" transform="translate(-463.992 -164.575)" fill="#3f3d56"/>
    <circle id="Elipse_88" data-name="Elipse 88" cx="13.189" cy="13.189" r="13.189" transform="translate(90.487 0)" fill="#57b894"/>
    <path id="Caminho_422" data-name="Caminho 422" d="M276.708,399.015a10.731,10.731,0,0,0,4.184,5.458,9.153,9.153,0,0,0-3.387-12.289A10.73,10.73,0,0,0,276.708,399.015Z" transform="translate(-252.013 -292.422)" fill="#57b894"/>
    <path id="Caminho_423" data-name="Caminho 423" d="M340.891,472.359a10.731,10.731,0,0,0,.653,6.846,9.153,9.153,0,0,0,3.645-12.215A10.732,10.732,0,0,0,340.891,472.359Z" transform="translate(-298.692 -346.866)" fill="#57b894"/>
    <path id="Caminho_424" data-name="Caminho 424" d="M798.578,559.14a10.73,10.73,0,0,0-2.633,6.353,9.153,9.153,0,0,0,8.947-9.08A10.729,10.729,0,0,0,798.578,559.14Z" transform="translate(-630.119 -411.949)" fill="#57b894"/>
    <path id="Caminho_425" data-name="Caminho 425" d="M944.116,767.971s.487,7.137,1.3,7.948-7.3,1.3-7.3,1.3l1.135-9.245Z" transform="translate(-733.592 -565.922)" fill="#ffb9b9"/>
    <path id="Caminho_426" data-name="Caminho 426" d="M944.116,767.971s.487,7.137,1.3,7.948-7.3,1.3-7.3,1.3l1.135-9.245Z" transform="translate(-733.592 -565.922)" opacity="0.05"/>
    <path id="Caminho_427" data-name="Caminho 427" d="M914.68,782.159s-1.135,0-5.19,2.109c0,0-2.757-.487-3.893-4.379,0,0-3.406,5.839-5.677,6.164s-6.65.649-3.73,4.542S916.3,792.7,916.3,792.7,916.789,783.295,914.68,782.159Z" transform="translate(-702.371 -574.596)" fill="#cbcdda"/>
    <path id="Caminho_428" data-name="Caminho 428" d="M914.68,782.159s-1.135,0-5.19,2.109c0,0-2.757-.487-3.893-4.379,0,0-3.406,5.839-5.677,6.164s-6.65.649-3.73,4.542S916.3,792.7,916.3,792.7,916.789,783.295,914.68,782.159Z" transform="translate(-702.371 -574.596)" opacity="0.05"/>
    <path id="Caminho_429" data-name="Caminho 429" d="M934.794,792.705l-1.135,3.082-7.461-2.109.425-3.059.1-.738.284-2.042s6.326-1.622,6.326-.811A12.582,12.582,0,0,0,933.75,789c.26,1,.586,2.135.8,2.882C934.7,792.381,934.794,792.705,934.794,792.705Z" transform="translate(-724.918 -579.627)" fill="#ffb9b9"/>
    <path id="Caminho_430" data-name="Caminho 430" d="M919.577,550.644a4.433,4.433,0,0,0-.015,4.514,7.86,7.86,0,0,0,1.166,1.617c3.568,3.893,4.542,12.651,4.542,12.651v14.111l-2.433.187-3.893.3-5.839-24.005s-3.406-17.517-1.784-20.6,3.082-22.383,3.082-22.383l1.346-1.395,3.2-3.309h9.245a6.218,6.218,0,0,1,1.8,2.011c1.552,2.569,2.945,7.912-1.312,17.777-6.65,15.409-8.6,17.842-8.6,17.842A3.739,3.739,0,0,0,919.577,550.644Z" transform="translate(-713.772 -379.867)" fill="#4c4c78"/>
    <path id="Caminho_431" data-name="Caminho 431" d="M919.577,550.644a4.433,4.433,0,0,0-.015,4.514,7.86,7.86,0,0,0,1.166,1.617c3.568,3.893,4.542,12.651,4.542,12.651v14.111l-2.433.187-3.893.3-5.839-24.005s-3.406-17.517-1.784-20.6,3.082-22.383,3.082-22.383l1.346-1.395,3.2-3.309h9.245a6.218,6.218,0,0,1,1.8,2.011c1.552,2.569,2.945,7.912-1.312,17.777-6.65,15.409-8.6,17.842-8.6,17.842A3.739,3.739,0,0,0,919.577,550.644Z" transform="translate(-713.772 -379.867)" opacity="0.05"/>
    <path id="Caminho_432" data-name="Caminho 432" d="M935.159,789l-7.025.878.284-2.042s6.326-1.622,6.326-.811a12.583,12.583,0,0,0,.415,1.976Z" transform="translate(-726.328 -579.627)" opacity="0.1"/>
    <path id="Caminho_433" data-name="Caminho 433" d="M894.784,523.353s.4,12.768.47,20.794c.015,1.815.013,3.388-.015,4.514a9.99,9.99,0,0,1-.131,1.779c-.487,1.46.487,4.7.487,4.7a46.815,46.815,0,0,1,2.92,20.113v7.137l-7.786.973s1.3-.973-2.271-10.381a41,41,0,0,1-2.5-14.23,15.227,15.227,0,0,0-1.139-5.63,6.946,6.946,0,0,1-.415-1.875,37.153,37.153,0,0,0-1.784-7.3s-3.893-11.516-4.866-19.95a46.458,46.458,0,0,1,.225-12.066,30.119,30.119,0,0,1,.586-3.019s15.856-9.978,21.843-3.082a7.81,7.81,0,0,1,1.351,2.271,14.994,14.994,0,0,1,.766,2.527C904.388,519.787,894.784,523.353,894.784,523.353Z" transform="translate(-689.45 -373.37)" fill="#4c4c78"/>
    <circle id="Elipse_89" data-name="Elipse 89" cx="8.272" cy="8.272" r="8.272" transform="translate(196.576 62.396)" fill="#ffb9b9"/>
    <path id="Caminho_434" data-name="Caminho 434" d="M921.217,290.872s3.406,9.57,0,14.6,10.867,3.406,10.867,3.406l5.515-6.65s-6.488,0-6.812-11.354S921.217,290.872,921.217,290.872Z" transform="translate(-720.911 -215.013)" fill="#ffb9b9"/>
    <path id="Caminho_435" data-name="Caminho 435" d="M907.513,509.729a21.291,21.291,0,0,1-3.614.905c-2.019.311-4.4.323-5.794-.905-.826-.728-2.86-.818-5.3-.584a90.983,90.983,0,0,0-13.448,2.791,30.12,30.12,0,0,1,.585-3.019s15.857-9.978,21.843-3.082h3.46a6.217,6.217,0,0,1,1.8,2.011C907.34,509.139,907.513,509.729,907.513,509.729Z" transform="translate(-690.825 -373.371)" opacity="0.1"/>
    <path id="Caminho_436" data-name="Caminho 436" d="M934.794,802.915,933.659,806l-7.461-2.109.425-3.059a5.253,5.253,0,0,0,3.468,3.221,26.458,26.458,0,0,1,4.464-1.954C934.7,802.59,934.794,802.915,934.794,802.915Z" transform="translate(-724.918 -589.836)" opacity="0.1"/>
    <path id="Caminho_437" data-name="Caminho 437" d="M907.529,799.44s-1.135,0-5.19,2.109c0,0-2.757-.487-3.893-4.379,0,0-3.406,5.839-5.677,6.163s-6.65.649-3.731,4.542,20.112,2.109,20.112,2.109S909.637,800.576,907.529,799.44Z" transform="translate(-697.167 -587.173)" fill="#cbcdda"/>
    <path id="Caminho_438" data-name="Caminho 438" d="M818.194,275.765s.317-6.317,6.956-5.7a1.135,1.135,0,0,1,.9,1.662l-1.361,2.562Z" transform="translate(-646.312 -203.512)" fill="#ffb9b9"/>
    <path id="Caminho_439" data-name="Caminho 439" d="M856.619,300s-7.948-1.3-10.056-2.92c0,0-1.622,3.082-4.542,1.46s-9.732-1.46-9.732-1.46a14.711,14.711,0,0,1-6.812-10.056s-1.135-4.217-.811-5.353c0,0-4.217-4.379-6.326,1.46.811,4.055,1.46,3.731,1.3,6.975l2.6,7.137s.162,2.433,4.866,5.677a104.573,104.573,0,0,1,10.056,8.272s-2.839,1.541-1.784,8.6c1.289,8.624-.649,20.924-.649,20.924v7.948s16.22-4.7,18.977-2.271,9.407,0,9.407,0a94.492,94.492,0,0,1-1.946-9.407,40.79,40.79,0,0,1,.162-13.138s4.217-11.192,6.164-15.733-1.46-10.705-4.866-12.976-4.675-.907-4.675-.907S863.918,298.545,856.619,300Z" transform="translate(-646.419 -210.846)" fill="#cbcdda"/>
    <path id="Caminho_440" data-name="Caminho 440" d="M897.5,250.283a2.867,2.867,0,0,0,.168.991,3.124,3.124,0,0,0,.761.945,9.453,9.453,0,0,1,2.708,4.241,12.83,12.83,0,0,1,.256,3.429c-.071,4.657-.266,9.684-3.142,13.347a29.074,29.074,0,0,1-3.694,3.556,1.113,1.113,0,0,0-.388.52.972.972,0,0,0,.12.642,6.939,6.939,0,0,0,3.026,2.675,3.83,3.83,0,0,0,1.736.656c1.475.048,2.449-1.51,3.792-2.123,1.954-.892,4.147.35,6.086,1.273a21.445,21.445,0,0,0,4.394,1.532c2.076.479,4.423.6,6.171-.622a4.713,4.713,0,0,0,1.922-3.008c.14-.793.119-1.713.719-2.249.309-.276.731-.391,1.065-.636a3.312,3.312,0,0,0,.986-1.624l2-5.463a4.491,4.491,0,0,0,.391-1.835c-.1-1.315-1.309-2.27-2.527-2.776a17.325,17.325,0,0,1-3.636-1.525c-1.811-1.3-2.37-3.732-2.533-5.956a28.681,28.681,0,0,1,.033-4.588c.2-2.263.64-4.672-.366-6.709-1.075-2.175-3.487-3.285-5.72-4.233a5.89,5.89,0,0,0-5.544-.167,44.024,44.024,0,0,1-4.51,1.526,19.87,19.87,0,0,0-2.627.36C896.1,243.6,897.5,247.834,897.5,250.283Z" transform="translate(-701.6 -181.638)" opacity="0.1"/>
    <path id="Caminho_441" data-name="Caminho 441" d="M897.5,249.091a2.865,2.865,0,0,0,.168.991,3.124,3.124,0,0,0,.761.945,9.453,9.453,0,0,1,2.708,4.241,12.828,12.828,0,0,1,.256,3.429c-.071,4.657-.266,9.684-3.142,13.347a29.074,29.074,0,0,1-3.694,3.556,1.114,1.114,0,0,0-.388.52.973.973,0,0,0,.12.642,6.939,6.939,0,0,0,3.026,2.675,3.83,3.83,0,0,0,1.736.656c1.475.048,2.449-1.51,3.792-2.123,1.954-.892,4.147.35,6.086,1.273a21.446,21.446,0,0,0,4.394,1.532c2.076.479,4.423.6,6.171-.622a4.713,4.713,0,0,0,1.922-3.008c.14-.793.119-1.713.719-2.249.309-.276.731-.391,1.065-.636a3.312,3.312,0,0,0,.986-1.624l2-5.463a4.49,4.49,0,0,0,.391-1.835c-.1-1.315-1.309-2.27-2.527-2.776a17.323,17.323,0,0,1-3.636-1.525c-1.811-1.3-2.37-3.732-2.533-5.956a28.674,28.674,0,0,1,.033-4.588c.2-2.263.64-4.672-.366-6.709-1.075-2.175-3.487-3.285-5.72-4.233a5.89,5.89,0,0,0-5.544-.167,44.027,44.027,0,0,1-4.509,1.526,19.871,19.871,0,0,0-2.627.36C896.1,242.413,897.5,246.643,897.5,249.091Z" transform="translate(-701.6 -180.77)" fill="#b96b6b"/>
    <path id="Caminho_442" data-name="Caminho 442" d="M882.412,435.206s1.294-.313,7.782-1.287,17.842,1.3,17.842,1.3" transform="translate(-693.051 -322.621)" opacity="0.05"/>
    <path id="Caminho_443" data-name="Caminho 443" d="M226.708,519.016a10.73,10.73,0,0,0,4.184,5.458,9.153,9.153,0,0,0-3.387-12.289A10.73,10.73,0,0,0,226.708,519.016Z" transform="translate(-215.623 -379.759)" fill="#57b894"/>
  </g>
</svg>
