<svg xmlns="http://www.w3.org/2000/svg" width="712.659" height="387.346" viewBox="0 0 712.659 387.346">
  <g id="Grupo_23" data-name="Grupo 23" transform="translate(0.138)">
    <ellipse id="Elipse_109" data-name="Elipse 109" cx="349.734" cy="23.153" rx="349.734" ry="23.153" transform="translate(8.714 341.04)" fill="#f2f2f2"/>
    <path id="Caminho_593" data-name="Caminho 593" d="M533.722,324.894c-56.981,0-97.893,36.558-97.893,121.858,0,96.674,40.912,122.265,97.893,122.265s100.33-28.027,100.33-122.265C634.052,346.017,590.7,324.894,533.722,324.894Zm.375,212.033c-39.466,0-60.085-23.154-60.085-90.113,0-59.081,21.463-90.238,60.929-90.238s60.929,20.465,60.929,90.238c0,65.271-22.307,90.113-61.773,90.113Z" transform="translate(-188.678 -214.166)" fill="#2f2e41"/>
    <path id="Caminho_594" data-name="Caminho 594" d="M294.553,506.464H270.994V437.089A13.894,13.894,0,0,0,257.1,423.195h-5.52a13.894,13.894,0,0,0-13.894,13.894v69.376H171.233a7.932,7.932,0,0,1-7.013-11.637L234.553,361.71a13.894,13.894,0,0,0-6.352-19.054l-4.152-1.961a13.894,13.894,0,0,0-18.186,6.013l-85.78,160.468a18.84,18.84,0,0,0-2.225,8.882h0A18.84,18.84,0,0,0,136.7,534.9H237.686v43.869a16.654,16.654,0,0,0,16.654,16.654h0a16.654,16.654,0,0,0,16.654-16.654V534.9h23.559a14.217,14.217,0,0,0,14.217-14.217h0a14.217,14.217,0,0,0-14.217-14.217Z" transform="translate(-81.523 -219.042)" fill="#57b894"/>
    <path id="Caminho_595" data-name="Caminho 595" d="M952.548,506.464H928.989V437.089A13.894,13.894,0,0,0,915.1,423.195h-5.52a13.894,13.894,0,0,0-13.894,13.894v69.376H829.229a7.932,7.932,0,0,1-7.013-11.637L892.549,361.71a13.894,13.894,0,0,0-6.352-19.054l-4.152-1.961a13.894,13.894,0,0,0-18.186,6.013L778.08,507.177a18.839,18.839,0,0,0-2.225,8.882h0a18.84,18.84,0,0,0,18.84,18.84H895.682v43.869a16.654,16.654,0,0,0,16.654,16.654h0a16.654,16.654,0,0,0,16.654-16.654V534.9h23.559a14.217,14.217,0,0,0,14.217-14.217h0a14.217,14.217,0,0,0-14.218-14.217Z" transform="translate(-303.266 -219.042)" fill="#57b894"/>
    <path id="Caminho_596" data-name="Caminho 596" d="M304.356,494.212H280.8V424.836A13.894,13.894,0,0,0,266.9,410.942h-5.52a13.894,13.894,0,0,0-13.894,13.894v69.376H181.035a7.932,7.932,0,0,1-7.013-11.637l70.333-133.118A13.894,13.894,0,0,0,238,330.4l-4.152-1.961a13.894,13.894,0,0,0-18.186,6.013l-85.78,160.468a18.84,18.84,0,0,0-2.225,8.882h0a18.84,18.84,0,0,0,18.84,18.84H247.488v43.869a16.654,16.654,0,0,0,16.654,16.654h0A16.654,16.654,0,0,0,280.8,566.514V522.645h23.559a14.217,14.217,0,0,0,14.217-14.217h0a14.217,14.217,0,0,0-14.216-14.217Z" transform="translate(-84.826 -214.913)" fill="none" stroke="#3f3d56" stroke-miterlimit="10" stroke-width="1"/>
    <path id="Caminho_597" data-name="Caminho 597" d="M970.928,494.212H947.369V424.836a13.894,13.894,0,0,0-13.894-13.894h-5.519a13.894,13.894,0,0,0-13.894,13.894v69.376H847.609a7.932,7.932,0,0,1-7.013-11.637l70.333-133.118a13.894,13.894,0,0,0-6.352-19.054l-4.152-1.961a13.894,13.894,0,0,0-18.186,6.013L796.459,494.924a18.84,18.84,0,0,0-2.225,8.882h0a18.84,18.84,0,0,0,18.84,18.84H914.062v43.869a16.654,16.654,0,0,0,16.654,16.654h0a16.654,16.654,0,0,0,16.654-16.654V522.645h23.559a14.217,14.217,0,0,0,14.217-14.217h0a14.217,14.217,0,0,0-14.218-14.217Z" transform="translate(-309.46 -214.913)" fill="none" stroke="#3f3d56" stroke-miterlimit="10" stroke-width="1"/>
    <path id="Caminho_598" data-name="Caminho 598" d="M553.327,313.866c-56.981,0-97.893,36.558-97.893,121.858,0,96.674,40.912,122.265,97.893,122.265s100.33-28.027,100.33-122.265C653.657,334.989,610.308,313.866,553.327,313.866ZM553.7,525.9c-39.466,0-60.085-23.154-60.085-90.113,0-59.081,21.463-90.238,60.929-90.238s60.929,20.465,60.929,90.238c0,65.271-22.307,90.113-61.773,90.113Z" transform="translate(-195.285 -210.45)" fill="none" stroke="#3f3d56" stroke-miterlimit="10" stroke-width="1"/>
    <circle id="Elipse_110" data-name="Elipse 110" cx="8.554" cy="8.554" r="8.554" transform="translate(303.814 3.547)" fill="#2f2e41"/>
    <ellipse id="Elipse_111" data-name="Elipse 111" cx="23.992" cy="31.085" rx="23.992" ry="31.085" transform="translate(309.238 0)" fill="#2f2e41"/>
    <path id="Caminho_599" data-name="Caminho 599" d="M553.466,224.08c-12.019,0-21.973-11.45-23.719-26.391a40.428,40.428,0,0,0-.272,4.694c0,17.168,10.741,31.085,23.992,31.085s23.991-13.917,23.991-31.085a40.414,40.414,0,0,0-.272-4.694C575.439,212.63,565.485,224.08,553.466,224.08Z" transform="translate(-220.237 -171.299)" opacity="0.1"/>
    <path id="Caminho_600" data-name="Caminho 600" d="M620.843,337.688c-.515,2.117-2.737,3.813-5.2,5-5.173,2.491-11.553,3.234-17.742,3.484a29.95,29.95,0,0,1-4.737-.087,13.616,13.616,0,0,1-8.122-3.734,1.114,1.114,0,0,1,.029-1.886c3.295-3.619,8.793-5.838,14.332-7.436,4.2-1.212,11.524-4.35,16.1-3.926C619.947,329.51,621.494,335.015,620.843,337.688Z" transform="translate(-238.793 -215.571)" fill="#3f3d56"/>
    <path id="Caminho_601" data-name="Caminho 601" d="M620.843,337.688c-.515,2.117-2.737,3.813-5.2,5-5.173,2.491-11.553,3.234-17.742,3.484a29.95,29.95,0,0,1-4.737-.087,13.616,13.616,0,0,1-8.122-3.734,1.114,1.114,0,0,1,.029-1.886c3.295-3.619,8.793-5.838,14.332-7.436,4.2-1.212,11.524-4.35,16.1-3.926C619.947,329.51,621.494,335.015,620.843,337.688Z" transform="translate(-238.793 -215.571)" opacity="0.1"/>
    <path id="Caminho_602" data-name="Caminho 602" d="M539.37,300.632a13.107,13.107,0,0,0-.795,9.995,17.462,17.462,0,0,0,5.854,8.285c6.693,5.365,15.9,6.1,24.481,6.029A188.728,188.728,0,0,0,591.39,323.4a26.876,26.876,0,0,0,7.294-1.694,11.18,11.18,0,0,0,6.256-6.316,7.694,7.694,0,0,0-2.078-8.337c-2.08-1.69-4.948-1.923-7.623-2.084l-15.307-.92c1.512-1.53,3.526-2.4,5.368-3.509,2.443-1.476,4.067-3.955,5.843-6.189a85.523,85.523,0,0,1,8.91-9.161,13.154,13.154,0,0,0,4.434,7.176c2.128,1.972,4.58,3.559,6.792,5.437,5.356,4.547,9.213,10.719,14.846,14.918a29.059,29.059,0,0,0,10.64-5.312l-2.189-3.966a2.612,2.612,0,0,0-.825-1.03c-.62-.381-1.419-.185-2.138-.293-1.923-.288-2.763-2.509-3.518-4.3-2.072-4.921-6.039-8.738-9.426-12.865a64.977,64.977,0,0,1-6.627-9.761,33.393,33.393,0,0,0-3.724-5.969,8.4,8.4,0,0,0-6.059-3.169c-2.077,0-3.992,1.05-5.778,2.11a152.8,152.8,0,0,0-15.667,10.674c-2.615,2.03-5.213,4.175-8.28,5.419-1.291.524-2.652.882-3.891,1.52-2.17,1.117-3.817,3.006-5.59,4.684A37.157,37.157,0,0,1,539.37,300.632Z" transform="translate(-223.089 -194.338)" fill="#3f3d56"/>
    <path id="Caminho_603" data-name="Caminho 603" d="M578.359,240.143a15.764,15.764,0,0,1-1.149,5.326,6.66,6.66,0,0,1-3.824,3.695,8.2,8.2,0,0,1-3.728.121,7.215,7.215,0,0,1-3.037-1.035,6.476,6.476,0,0,1-2.412-4.471c-.261-1.721-.144-3.48-.311-5.213a28.475,28.475,0,0,0-.8-4.147c-.113-.453-.228-.9-.34-1.354s-.219-.9-.319-1.352c-.092-.423-.177-.849-.25-1.277-.061-.361-.115-.724-.154-1.089a12.213,12.213,0,0,0-.536-3.19,9.688,9.688,0,0,0-1.118-1.892c-.19-.271-.373-.542-.542-.824a3.9,3.9,0,0,1-.645-2.485,2.173,2.173,0,0,1,.1-.4c.017-.05.036-.1.056-.148a1.2,1.2,0,0,0,.815-.762,2.276,2.276,0,0,0-.1-1.179,7.5,7.5,0,0,0-.636-1.517c-.175-.317-.77-.889-.774-1.252-.008-.73,1.419-1.318,2-1.606a11.136,11.136,0,0,1,5.7-1.156,4.2,4.2,0,0,1,3.328,1.531c.626.953.542,2.188.809,3.3a.975.975,0,0,0,.2.44.889.889,0,0,0,.49.225,3.016,3.016,0,0,0,.939.038h0a1.941,1.941,0,0,0,.246-.035,3.287,3.287,0,0,0,1.348-.582q.388-.1.782-.169a.169.169,0,0,0,.031-.006c1.045,3.3,1.181,6.835,2.036,10.193a26.161,26.161,0,0,1,1.116,5.04c.006.075.008.152.01.229.013.553-.031,1.11-.008,1.661a4.633,4.633,0,0,0,.083.739,10.346,10.346,0,0,0,.348,1.156l.006.019c.04.121.077.244.108.367.023.09.044.177.06.267l0,.006A9.907,9.907,0,0,1,578.359,240.143Z" transform="translate(-230.071 -176.43)" fill="#a66a3d"/>
    <circle id="Elipse_112" data-name="Elipse 112" cx="12.309" cy="12.309" r="12.309" transform="translate(321.339 17.524)" fill="#a66a3d"/>
    <path id="Caminho_604" data-name="Caminho 604" d="M647.862,275.7a20.185,20.185,0,0,0-3.471-9.35q.479,2.848.96,5.693a2.131,2.131,0,0,1-2.232-.686,6.855,6.855,0,0,1-1.17-2.172,44.735,44.735,0,0,0-5.443-9.77c-7.836-.653-15.582-3.9-22.473-7.688s-13.343-8.322-20.144-12.267a28.89,28.89,0,0,0-3.676-1.878c-2.128-.853-4.517-1.3-6.534-2.3-.136-.067-.271-.138-.4-.211a8.34,8.34,0,0,1-1.289-.866,6.842,6.842,0,0,1-.617-.567,13.493,13.493,0,0,1-2.36-3.947c-1.083-2.395-1.469-5.284-2.549-7.679a7.429,7.429,0,0,1,1.659-1.17h0c.088-.046.175-.09.265-.131a7.912,7.912,0,0,1,1.329-.486q.388-.1.782-.169a.168.168,0,0,0,.031-.006,7.667,7.667,0,0,1,3.64.288,16.833,16.833,0,0,1,4.6,2.833A75.6,75.6,0,0,1,595.5,228.5c1.189,1.139,2.274,2.391,3.553,3.426a27.94,27.94,0,0,0,3.353,2.222q10.38,6.184,20.762,12.365c2.343,1.4,4.688,2.791,6.978,4.268,3.48,2.245,6.834,4.677,10.187,7.108q2.964,2.147,5.925,4.3a6.45,6.45,0,0,1,1.679,1.552,5.617,5.617,0,0,1,.745,2.276A20.809,20.809,0,0,1,647.862,275.7Z" transform="translate(-236.07 -178.799)" fill="#a66a3d"/>
    <path id="Caminho_605" data-name="Caminho 605" d="M573.133,251.823c-.83,3.724-4.594,5.975-6.561,9.246-2.445,4.06-1.448,8.779-.53,13.429l-5.034,4.337c-.926.795-1.853,1.594-2.85,2.3a38.023,38.023,0,0,1-4.548,2.612l-4.456,2.293a21.3,21.3,0,0,1-4.362,1.848,16.81,16.81,0,0,1-8.931-.645,4.034,4.034,0,0,1-.976-.4,1.588,1.588,0,0,1-.463-.419,2.593,2.593,0,0,1-.294-1.684,79.134,79.134,0,0,1,2.672-14.38,42.391,42.391,0,0,1,6.142-15.069,45.327,45.327,0,0,1,5.257-7.633,12.249,12.249,0,0,0,2.437-3.142c.741-1.69.455-3.628.605-5.468a11.37,11.37,0,0,1,1.083-3.983v0a11.339,11.339,0,0,1,1.156-1.911l.607,1.412q.2.463.4.924.257.595.509,1.185l1.456,3.39A14.314,14.314,0,0,0,558.659,244a4.309,4.309,0,0,0,7.375-.565,14.1,14.1,0,0,0,1.506-3.987,12.739,12.739,0,0,0,.167-5.195c-.5-3.321-1.915-6.713-2.942-9.8a9.906,9.906,0,0,1-.716-3.229,2.224,2.224,0,0,1,.038-.371l.019-.1a7.915,7.915,0,0,1,1.329-.486q.388-.1.782-.169,1.355,7.335,2.714,14.67c.021.115.044.229.065.346.129.7.261,1.4.407,2.1.131.634.273,1.266.432,1.894l.006.019c.054.213.111.423.169.634l0,.006c.161.576.34,1.147.542,1.711C571.781,244.882,573.92,248.3,573.133,251.823Z" transform="translate(-221.793 -178.853)" fill="#57b894"/>
    <path id="Caminho_606" data-name="Caminho 606" d="M668.318,340.9a4.364,4.364,0,0,0,.4,2.084c.77,1.408,2.619,1.728,4.218,1.86a124.9,124.9,0,0,0,28.022-.854,3.24,3.24,0,0,0,1.426-.443c1.319-.925.506-3.179-.935-3.9s-3.15-.548-4.731-.86a14.9,14.9,0,0,1-4.427-1.92q-4.808-2.763-9.476-5.76c-1.853-1.19-4.039-2.46-6.126-1.754C671.042,331.268,668.281,334.807,668.318,340.9Z" transform="translate(-267.024 -215.602)" fill="#3f3d56"/>
    <path id="Caminho_607" data-name="Caminho 607" d="M544.688,235.462v0c-.015.088-.029.173-.048.259-.023.142-.05.286-.077.428-.259,1.325-.576,2.643-.941,3.953-1,3.62-2.343,7.181-3.674,10.69q-5.357,14.113-10.717,28.229c-.9,2.37-1.8,4.742-2.825,7.064-.342.774-.695,1.554-1.045,2.343a32.6,32.6,0,0,0-2.862,8.741,18.2,18.2,0,0,0-.127,5.994,6.149,6.149,0,0,0,3.467,4.621c.914.357,2.222.834,1.971,1.784-.136.522-.728.776-1.26.864a4.848,4.848,0,0,1-3.955-1.139c-1-.887-1.767-2.266-3.1-2.414a5.236,5.236,0,0,0-2.61.837c-3.438,1.571-7.444.471-11.055-.645a3.879,3.879,0,0,1,3.211-2.718,25.974,25.974,0,0,1,4.454-.125,2.327,2.327,0,0,0,1.354-.348,2.457,2.457,0,0,0,.73-1.248,52.361,52.361,0,0,0,2.13-8.716c.48-3.094.68-6.236,1.364-9.292.532-2.385,1.354-4.694,2.059-7.035a148.968,148.968,0,0,0,3.355-14.637,51.754,51.754,0,0,0,.945-6.211c.119-1.732.063-3.471.229-5.2a40.368,40.368,0,0,1,1.4-6.628q.958-3.546,1.913-7.087c.945-3.494,1.959-7.124,4.354-9.841a9.257,9.257,0,0,1,6.649-3.175,6.55,6.55,0,0,1,1.412.152c.077.019.154.038.232.058a5.725,5.725,0,0,1,1.442.6c.739-.469,1.114-.3,1.6.419a4.623,4.623,0,0,1,.584,2.516A34.759,34.759,0,0,1,544.688,235.462Z" transform="translate(-212.27 -180.44)" fill="#a66a3d"/>
    <path id="Caminho_608" data-name="Caminho 608" d="M562.856,238.1l-.031.031-.169.169-1.677,1.675-.822-3.453-2.818-11.837a6.552,6.552,0,0,1,1.412.152,2.178,2.178,0,0,1,.1-.4l.133.457.956,3.25,1.809,6.171.3,1.016v0Z" transform="translate(-229.627 -180.314)" fill="#57b894"/>
    <path id="Caminho_609" data-name="Caminho 609" d="M568.14,183.846a8.342,8.342,0,0,1-2.453,5.9,8.157,8.157,0,0,1-.9.78,8.306,8.306,0,0,1-5,1.674H549.78a8.347,8.347,0,0,1,0-16.695h10.009A8.373,8.373,0,0,1,568.14,183.846Z" transform="translate(-224.267 -163.822)" fill="#2f2e41"/>
    <circle id="Elipse_113" data-name="Elipse 113" cx="8.554" cy="8.554" r="8.554" transform="translate(344.704 3.547)" fill="#2f2e41"/>
    <path id="Caminho_610" data-name="Caminho 610" d="M595.395,163.234c-.1,0-.209,0-.313.008a8.551,8.551,0,0,1,0,17.091c.1,0,.208.008.313.008a8.554,8.554,0,0,0,0-17.107Z" transform="translate(-242.346 -159.687)" opacity="0.1"/>
    <path id="Caminho_611" data-name="Caminho 611" d="M529.847,163.234c.1,0,.209,0,.313.008a8.551,8.551,0,0,0,0,17.091c-.1,0-.208.008-.313.008a8.554,8.554,0,0,1,0-17.107Z" transform="translate(-217.48 -159.687)" opacity="0.1"/>
    <path id="Caminho_612" data-name="Caminho 612" d="M566.489,198.159a8.306,8.306,0,0,1-5,1.674H551.483a8.306,8.306,0,0,1-5-1.674Z" transform="translate(-225.97 -171.457)" opacity="0.1"/>
    <path id="Caminho_613" data-name="Caminho 613" d="M674.14,289.829s2.156,6.213,4.13,4.559l-1.573-8.121Z" transform="translate(-268.989 -201.149)" fill="#a66a3d"/>
    <path id="Caminho_614" data-name="Caminho 614" d="M1065.3,563.828a13.8,13.8,0,1,0,1.838-26.464l.345,7.1-3.36-6.087a13.747,13.747,0,0,0-7.083,7.772,13.532,13.532,0,0,0-.794,3.733,13.8,13.8,0,0,0,9.054,13.944Z" transform="translate(-397.746 -285.666)" fill="#57b894"/>
    <path id="Caminho_615" data-name="Caminho 615" d="M1093.679,640.174c-1.186-6.04,3.954-11.395,9.031-14.875s11.009-6.9,12.741-12.807c2.49-8.489-4.926-16.263-10.7-22.968a83.076,83.076,0,0,1-10.955-16.282,22.417,22.417,0,0,1-2.62-7.4c-.455-3.763.754-7.507,1.972-11.1q6.086-17.935,13.014-35.57" transform="translate(-409.496 -279.638)" fill="none" stroke="#3f3d56" stroke-miterlimit="10" stroke-width="1"/>
    <path id="Caminho_616" data-name="Caminho 616" d="M1066.15,561.07a13.8,13.8,0,1,0,1.838-26.464l.345,7.1-3.36-6.087a13.747,13.747,0,0,0-7.083,7.772,13.527,13.527,0,0,0-.794,3.733A13.8,13.8,0,0,0,1066.15,561.07Z" transform="translate(-398.032 -284.737)" fill="none" stroke="#3f3d56" stroke-miterlimit="10" stroke-width="1"/>
    <path id="Caminho_617" data-name="Caminho 617" d="M1092.029,510.853a13.783,13.783,0,0,1,9.932-8.75l1.136,6.752,2.106-7.091a13.8,13.8,0,1,1-13.174,9.089Z" transform="translate(-409.537 -273.771)" fill="#57b894"/>
    <path id="Caminho_618" data-name="Caminho 618" d="M1093.169,507.175a13.782,13.782,0,0,1,9.932-8.75l1.136,6.752,2.106-7.091a13.8,13.8,0,1,1-13.174,9.089Z" transform="translate(-409.921 -272.532)" fill="none" stroke="#3f3d56" stroke-miterlimit="10" stroke-width="1"/>
    <path id="Caminho_619" data-name="Caminho 619" d="M1103.416,611.881a13.8,13.8,0,0,0,12.212-24.546l-1.618,5.449-1.148-6.831-.035-.013a13.8,13.8,0,0,0-9.411,25.941Z" transform="translate(-410.588 -301.858)" fill="#57b894"/>
    <path id="Caminho_620" data-name="Caminho 620" d="M1104.416,608.156a13.8,13.8,0,0,0,12.212-24.546l-1.618,5.449-1.148-6.831a.25.25,0,0,0-.035-.013,13.8,13.8,0,0,0-9.411,25.942Z" transform="translate(-410.925 -300.603)" fill="none" stroke="#3f3d56" stroke-miterlimit="10" stroke-width="1"/>
    <path id="Caminho_621" data-name="Caminho 621" d="M1086.272,651.827a13.791,13.791,0,1,0,2.659-10.805l6.148,9.253-8.4-4.911A13.67,13.67,0,0,0,1086.272,651.827Z" transform="translate(-407.805 -318.89)" fill="#57b894"/>
    <path id="Caminho_622" data-name="Caminho 622" d="M1087.122,649.07a13.791,13.791,0,1,0,2.659-10.805l6.148,9.253-8.4-4.911A13.667,13.667,0,0,0,1087.122,649.07Z" transform="translate(-408.091 -317.961)" fill="none" stroke="#3f3d56" stroke-miterlimit="10" stroke-width="1"/>
    <path id="Caminho_623" data-name="Caminho 623" d="M69.026,619.194a9.066,9.066,0,1,0,1.207-17.387l.227,4.666-2.208-4A9.032,9.032,0,0,0,63.6,607.58a8.89,8.89,0,0,0-.521,2.452A9.064,9.064,0,0,0,69.026,619.194Z" transform="translate(-63.054 -307.418)" fill="#57b894"/>
    <path id="Caminho_624" data-name="Caminho 624" d="M87.67,669.354c-.779-3.969,2.6-7.487,5.933-9.773s7.233-4.534,8.371-8.414c1.636-5.577-3.237-10.685-7.029-15.09a54.58,54.58,0,0,1-7.2-10.7,14.726,14.726,0,0,1-1.722-4.864c-.3-2.472.5-4.932,1.3-7.291q4-11.784,8.55-23.37" transform="translate(-70.774 -303.457)" fill="none" stroke="#3f3d56" stroke-miterlimit="10" stroke-width="1"/>
    <path id="Caminho_625" data-name="Caminho 625" d="M69.589,617.382A9.066,9.066,0,1,0,70.8,599.994l.227,4.666-2.208-4a9.032,9.032,0,0,0-4.654,5.106,8.89,8.89,0,0,0-.521,2.452,9.064,9.064,0,0,0,5.949,9.161Z" transform="translate(-63.244 -306.807)" fill="none" stroke="#3f3d56" stroke-miterlimit="10" stroke-width="1"/>
    <path id="Caminho_626" data-name="Caminho 626" d="M86.59,584.388a9.056,9.056,0,0,1,6.525-5.749l.746,4.436,1.384-4.659a9.065,9.065,0,1,1-8.656,5.972Z" transform="translate(-70.802 -299.603)" fill="#57b894"/>
    <path id="Caminho_627" data-name="Caminho 627" d="M87.341,581.972a9.056,9.056,0,0,1,6.525-5.749l.746,4.436L96,576a9.065,9.065,0,1,1-8.656,5.972Z" transform="translate(-71.055 -298.789)" fill="none" stroke="#3f3d56" stroke-miterlimit="10" stroke-width="1"/>
    <path id="Caminho_628" data-name="Caminho 628" d="M94.074,650.765a9.065,9.065,0,0,0,8.023-16.127l-1.063,3.58-.754-4.488-.023-.009a9.065,9.065,0,1,0-6.183,17.044Z" transform="translate(-71.493 -318.057)" fill="#57b894"/>
    <path id="Caminho_629" data-name="Caminho 629" d="M94.724,648.318a9.065,9.065,0,0,0,8.023-16.127l-1.063,3.58-.754-4.488-.023-.009a9.065,9.065,0,1,0-6.183,17.044Z" transform="translate(-71.713 -317.232)" fill="none" stroke="#3f3d56" stroke-miterlimit="10" stroke-width="1"/>
    <path id="Caminho_630" data-name="Caminho 630" d="M82.805,677.011a9.061,9.061,0,1,0,1.747-7.1l4.039,6.08-5.519-3.227A8.98,8.98,0,0,0,82.805,677.011Z" transform="translate(-69.663 -329.247)" fill="#57b894"/>
    <path id="Caminho_631" data-name="Caminho 631" d="M83.368,675.2a9.061,9.061,0,1,0,1.747-7.1l4.039,6.08-5.519-3.227A8.98,8.98,0,0,0,83.368,675.2Z" transform="translate(-69.853 -328.636)" fill="none" stroke="#3f3d56" stroke-miterlimit="10" stroke-width="1"/>
    <ellipse id="Elipse_114" data-name="Elipse 114" cx="11.271" cy="14.586" rx="11.271" ry="14.586" transform="translate(307.597 196.989)" fill="#2f2e41"/>
    <ellipse id="Elipse_115" data-name="Elipse 115" cx="11.271" cy="14.586" rx="11.271" ry="14.586" transform="translate(368.925 197.32)" fill="#2f2e41"/>
    <path id="Caminho_632" data-name="Caminho 632" d="M602.606,536.434c0,6.59-9.2,11.934-20.553,11.934S561.5,543.024,561.5,536.434c0-5.708,6.9-10.482,16.124-11.649a33.221,33.221,0,0,1,4.429-.285,33.608,33.608,0,0,1,7.379.8C597.136,527.013,602.606,531.355,602.606,536.434Z" transform="translate(-231.029 -281.433)" fill="#2f2e41"/>
    <ellipse id="Elipse_116" data-name="Elipse 116" cx="11.271" cy="14.586" rx="11.271" ry="14.586" transform="translate(310.249 193.674)" fill="none" stroke="#3f3d56" stroke-miterlimit="10" stroke-width="1"/>
    <ellipse id="Elipse_117" data-name="Elipse 117" cx="11.271" cy="14.586" rx="11.271" ry="14.586" transform="translate(371.577 194.005)" fill="none" stroke="#3f3d56" stroke-miterlimit="10" stroke-width="1"/>
    <ellipse id="Elipse_118" data-name="Elipse 118" cx="20.553" cy="11.934" rx="20.553" ry="11.934" transform="translate(333.123 239.752)" fill="none" stroke="#3f3d56" stroke-miterlimit="10" stroke-width="1"/>
    <path id="Caminho_633" data-name="Caminho 633" d="M597.6,526.122a3.273,3.273,0,0,1-.875,2.249,2.877,2.877,0,0,1-2.108.933h-6.63A3.092,3.092,0,0,1,585,526.122a3.252,3.252,0,0,1,.544-1.818,31.189,31.189,0,0,1,4.429-.3,31.6,31.6,0,0,1,7.379.849A3.36,3.36,0,0,1,597.6,526.122Z" transform="translate(-238.948 -281.265)" fill="#fff"/>
    <circle id="Elipse_119" data-name="Elipse 119" cx="3.315" cy="3.315" r="3.315" transform="translate(318.205 200.967)" fill="#fff"/>
    <circle id="Elipse_120" data-name="Elipse 120" cx="3.315" cy="3.315" r="3.315" transform="translate(379.865 200.967)" fill="#fff"/>
    <circle id="Elipse_121" data-name="Elipse 121" cx="3.315" cy="3.315" r="3.315" transform="translate(383.18 232.128)" fill="#57b894" opacity="0.3"/>
    <circle id="Elipse_122" data-name="Elipse 122" cx="3.315" cy="3.315" r="3.315" transform="translate(302.293 232.128)" fill="#57b894" opacity="0.3"/>
  </g>
</svg>
